<svg width="71" height="14" viewBox="0 0 71 14" fill="none" xmlns="http://www.w3.org/2000/svg">
<g clip-path="url(#clip0_464_12086)">
<path fill-rule="evenodd" clip-rule="evenodd" d="M65.793 5.10562C66.0231 5.16145 66.2713 5.22167 66.5389 5.28738C69.2271 5.94122 70.5032 7.21948 70.5029 9.20933C70.5029 11.6896 68.6162 13.1701 65.4523 13.1701C63.1843 13.1701 60.9354 12.6509 59.4297 11.8434L60.3636 9.15176C61.7452 9.91522 63.4702 10.3822 65.3761 10.3822C66.6912 10.3822 67.3581 10.048 67.3581 9.30541C67.3581 8.62181 66.8423 8.28615 64.4232 7.74818C61.3158 7.07491 59.9633 6.12518 59.9633 3.78755C59.9633 1.61516 61.774 0 64.9952 0C67.1488 0 68.9977 0.480749 70.2555 1.15366L69.2834 3.72997C68.3022 3.12088 66.577 2.71089 64.957 2.71089C63.7372 2.71089 63.0131 3.02533 63.0131 3.67222C63.0131 4.43113 63.5327 4.55721 65.793 5.10562ZM16.125 0.269043H19.1746V12.9009H16.125V0.269043ZM27.7145 0.269043C30.9355 0.269043 32.4984 2.09562 32.4984 4.49884C32.4984 6.69066 31.355 7.9404 29.5823 8.36322C29.563 8.36322 32.4221 12.9007 32.4221 12.9007H28.9532L24.7602 6.15233H27.7143C28.9914 6.15233 29.4677 5.44092 29.4677 4.57567C29.4677 3.72985 29.0106 2.99901 27.7336 2.99901H24.2839V12.9007H21.2344V0.269043H27.7145ZM8.32879 8.1328H5.76251L7.66155 4.24917H7.6999L11.9691 12.9009H15.476L9.0911 0.269287H6.38487L0 12.9009H3.43054L4.46479 10.7861H9.60566L8.32879 8.1328ZM45.1144 3.6721C45.1144 4.94109 44.5999 5.80616 43.6277 6.34466C44.8285 6.76766 45.6479 7.88282 45.6481 9.36305C45.6481 11.4971 43.9517 12.9007 41.3598 12.9007H33.9453V0.269043H41.0739C43.6087 0.269043 45.1144 1.63412 45.1144 3.6721ZM41.0739 2.94143H36.9952H36.9951V5.17175H41.0547C41.6839 5.17175 42.1603 4.69118 42.1603 4.05659C42.1603 3.422 41.6839 2.94143 41.0739 2.94143ZM36.9951 10.2474H41.1499C41.8933 10.2474 42.4653 9.68979 42.4651 8.94005C42.4651 8.20957 41.8933 7.67106 41.1499 7.67106H36.9951V10.2474ZM55.2739 7.32531C55.2739 9.24261 54.3971 10.3054 52.6629 10.3054C50.9477 10.3054 50.0709 9.24261 50.0709 7.32531V0.269287H46.9453V7.09465C46.9453 10.9977 48.9847 13.1703 52.6629 13.1703C56.3412 13.1703 58.3997 10.9977 58.3997 7.09465V0.269287H55.2739V7.32531Z" fill="#00205B"/>
</g>
<defs>
<clipPath id="clip0_464_12086">
<rect width="70.5" height="13.1703" fill="white"/>
</clipPath>
</defs>
</svg>
