<svg width="119" height="13" viewBox="0 0 119 13" fill="none" xmlns="http://www.w3.org/2000/svg">
<path d="M64.4141 0.491699C60.2473 0.491699 58.089 3.05479 58.089 6.50644C58.089 9.97177 60.2473 12.5486 64.4141 12.5486C68.5945 12.5486 70.7528 9.97177 70.7528 6.50644C70.7592 3.05479 68.5945 0.491699 64.4141 0.491699ZM100.534 0.491699C97.0094 0.491699 95.2406 1.89288 95.2406 4.37412C95.2406 6.39033 96.4155 7.34014 98.8469 7.59966L101.552 7.88735C102.583 8.00343 103.055 8.39952 103.055 8.91892C103.055 9.5067 102.365 10.0334 100.705 10.0334C98.7859 10.0334 98.0136 9.54768 97.8839 8.57027H95.0769C95.2066 11.2086 96.9208 12.5554 100.603 12.5554C103.963 12.5554 105.841 11.0786 105.841 8.85727C105.841 6.92312 104.728 5.76132 102.625 5.52214L99.9607 5.22143C98.4032 5.05064 98.014 4.66079 98.014 4.13438C98.014 3.5466 98.813 3.02062 100.377 3.02062C101.88 3.02062 102.665 3.58143 102.809 4.42207H105.671C105.528 1.99554 103.499 0.491699 100.534 0.491699ZM35.1657 0.765004V8.18805C35.1657 11.4959 38.1162 12.528 40.5887 12.528C43.0478 12.528 45.9849 11.4959 45.9849 8.18805V0.765004H43.0614V7.8531H43.0751C43.0751 9.34325 42.1604 9.94432 40.5962 9.94432C39.0798 9.94432 38.0892 9.31589 38.0892 7.8531V0.765004H35.1657ZM10.6369 0.806101L0.411621 7.16196V12.2677H0.499992L10.7527 5.88449H16.0735C16.2376 5.88449 16.3879 6.01407 16.3879 6.19889C16.3879 6.34899 16.3197 6.4108 16.2379 6.45849L11.2034 9.47922C10.8755 9.67737 10.7595 10.0669 10.7595 10.3608L10.7522 12.2677H17.1526V1.2027C17.1526 0.990873 16.9888 0.8061 16.7429 0.8061L10.6369 0.806101ZM26.6276 0.806101L22.2348 12.2684H25.2542L26.0193 10.1217H30.9237L31.6751 12.2684H34.7965L30.3497 0.806101L26.6276 0.806101ZM47.324 0.806101V3.28707H51.0194V12.2684H53.936V3.28707H57.6178V0.806101L47.324 0.806101ZM72.344 0.806101V12.2684H77.6998C81.8052 12.2684 82.9385 10.7369 82.9385 6.45165C82.9385 2.42589 81.8529 0.806101 77.6998 0.806101H72.344ZM84.5714 0.806101V12.2684H93.7925V9.78677H87.4949V7.70926H92.563V5.22144H87.4949V3.28707H93.7925V0.806101L84.5714 0.806101ZM107.33 0.806101L107.344 12.2684H110.254V7.91474L114.203 12.2684H117.898L112.57 6.60919L117.898 0.806101H114.421L110.254 5.46049V0.806101L107.33 0.806101ZM64.4141 3.06857C66.593 3.06857 67.7615 4.40116 67.7615 6.50644C67.7679 8.65943 66.593 9.97172 64.4141 9.97172C62.2555 9.97172 61.0673 8.65241 61.0673 6.50644C61.0673 4.40116 62.2555 3.06857 64.4141 3.06857ZM28.4921 3.19186L30.0696 7.68186H26.8865L28.4921 3.19186ZM75.2613 3.28707H77.5833C79.414 3.28707 79.9602 3.78593 79.9602 6.45165C79.9602 8.88484 79.3456 9.78677 77.5833 9.78677H75.2613V3.28707Z" fill="black"/>
</svg>
