<svg width="24" height="24" viewBox="0 0 24 24" fill="none" xmlns="http://www.w3.org/2000/svg">
<path fill-rule="evenodd" clip-rule="evenodd" d="M9.7673 20.254C10.4774 20.713 11.2983 21.0235 12.3 20.9992C13.3 21.0235 14.1226 20.713 14.8328 20.254L14.8175 18.2991H9.7826L9.7673 20.254V20.254ZM14.7274 17.399C14.7274 13.4775 18.8946 12.1355 18.5823 8.22929C18.3861 5.76495 16.7165 3 12.3 3C7.88342 3 6.21382 5.76495 6.01671 8.23019C5.7044 12.1355 9.87253 13.4775 9.87253 17.399H14.7274V17.399ZM7.79972 8.39851C7.98603 6.06018 9.70153 4.79831 12.3 4.79831C14.8975 4.79831 16.4888 6.03228 16.6751 8.37061C16.7768 9.65228 16.0406 10.5064 15.0469 11.9042C14.3143 12.9357 13.6041 14.013 13.2 15.5989H11.3999C10.9958 14.013 10.2857 12.9357 9.55212 11.9033C8.55936 10.5064 7.69712 9.68018 7.79972 8.39851V8.39851Z" fill="#374050"/>
</svg>
