<svg width="62" height="62" viewBox="0 0 62 62" fill="none" xmlns="http://www.w3.org/2000/svg">
<g clip-path="url(#clip0_464_12123)">
<path d="M49.1219 30.8437C49.1219 40.9449 40.9453 49.1215 30.8442 49.1215V30.8437H49.1219ZM30.8442 12.5659V30.8437H12.5664C12.5664 20.7425 20.743 12.5659 30.8442 12.5659Z" fill="#0166B1"/>
<path d="M30.8442 12.5659C40.9453 12.5659 49.122 20.7425 49.122 30.8437H30.8442V12.5659ZM12.5664 30.8437H30.8442V49.1215C20.743 49.1215 12.5664 40.9448 12.5664 30.8437Z" fill="white"/>
<path fill-rule="evenodd" clip-rule="evenodd" d="M30.8438 13.5681V12.566C40.9377 12.566 49.1215 20.7498 49.1215 30.8437H48.1194C48.1194 21.3171 40.3686 13.5681 30.8438 13.5681ZM13.5681 30.8437C13.5681 40.3704 21.3189 48.1194 30.8438 48.1194V49.1215C20.7498 49.1215 12.566 40.9377 12.566 30.8437H13.5681ZM0 30.8437C0 13.8097 13.8097 0 30.8438 0C47.8778 0 61.6875 13.8097 61.6875 30.8437C61.6875 47.8778 47.8778 61.6875 30.8438 61.6875C13.8097 61.6875 0 47.8778 0 30.8437ZM30.8438 59.6818C46.7716 59.6818 59.6818 46.7698 59.6818 30.8437C59.6818 14.9177 46.7698 2.00571 30.8438 2.00571C14.9177 2.00571 2.00571 14.9177 2.00571 30.8437C2.00571 46.7698 14.9159 59.6818 30.8438 59.6818ZM18.2193 12.605C19.205 13.7422 18.6469 14.9333 17.6613 15.9643C17.3699 16.2692 17.1079 16.5419 16.8596 16.8003C15.9227 17.7757 15.1809 18.5478 13.7858 20.0812L8.46094 15.0647C8.97187 14.4025 9.82342 13.3805 10.4086 12.7327C12.3473 10.5862 13.0593 9.95819 13.9851 9.86463C14.4816 9.81425 14.9726 9.9312 15.3639 10.2461C16.1666 10.892 16.0959 11.8277 15.9854 12.121L15.9618 12.1858L16.0361 12.157C16.7826 11.8529 17.6831 11.9878 18.2193 12.605ZM13.4416 11.7845C12.9252 12.2523 11.7856 13.4345 10.713 14.7372L11.7458 15.7142C11.7458 15.7142 13.8257 13.5532 14.3928 12.9181C14.6446 12.6374 14.8711 12.2973 14.7896 11.9392C14.7081 11.583 14.3475 11.3365 13.9978 11.4318C13.7822 11.4894 13.6047 11.637 13.4416 11.7845ZM15.4853 13.8951C14.824 14.5753 12.7984 16.7021 12.7984 16.7021L13.8783 17.7187C13.8819 17.7151 16.2843 15.1618 16.5634 14.8649C16.7699 14.6436 17.0199 14.3539 17.087 14.0499C17.1431 13.7943 17.0399 13.537 16.8152 13.3877C16.5869 13.2366 16.3314 13.26 16.0977 13.3733C15.9165 13.4615 15.748 13.6252 15.4853 13.8951ZM33.1559 6.18861L31.451 9.98158H29.8983L28.1934 6.18861L28.0847 5.85214L28.1155 6.203L27.9361 11.2717C27.3382 11.3293 26.7204 11.4102 26.1116 11.511L26.3888 4.00423C27.2404 3.91067 28.0883 3.84409 28.9362 3.80811L30.6139 7.94835L30.6737 8.25603L30.7335 7.94835L32.4131 3.80811C33.261 3.84409 34.1089 3.91067 34.9605 4.00423L35.2377 11.511C34.6289 11.4102 34.0111 11.3275 33.4132 11.2717L33.2338 6.203L33.2646 5.85214L33.1559 6.18861ZM46.971 19.4316C46.6322 18.9944 46.0288 18.2747 45.6103 17.8284L47.5435 14.1218L47.7192 13.8843L47.4801 14.0588L43.7514 15.9805C43.3292 15.5973 42.6679 15.0341 42.1661 14.6508L46.1267 8.45936C46.6901 8.89119 47.1322 9.24746 47.5924 9.63611L44.978 13.5586L44.7443 13.8267L45.0378 13.627L48.5219 11.8943L49.7557 13.1196L48.011 16.5779L47.8098 16.8694L48.0798 16.6391L52.0314 14.0445C52.4028 14.4781 52.8992 15.0935 53.2108 15.4983L46.971 19.4316Z" fill="#6F6F6F"/>
</g>
<defs>
<clipPath id="clip0_464_12123">
<rect width="61.6875" height="61.6875" fill="white"/>
</clipPath>
</defs>
</svg>
