<svg width="163" height="36" viewBox="0 0 163 36" fill="none" xmlns="http://www.w3.org/2000/svg">
<g clip-path="url(#clip0_464_16797)">
<path d="M0 13.2222H14.932H23.9998V4.23584L0 13.2222Z" fill="#FF9D28"/>
<path d="M23.999 4.23526V35.9997L35.3473 0L23.999 4.23526Z" fill="#68C5ED"/>
<path d="M24.0034 13.2217H14.9355L24.0034 35.9726V13.2217Z" fill="#044D80"/>
<path d="M0 13.2217L17.2668 19.0587L14.932 13.2217H0Z" fill="#E54747"/>
<path d="M55.0008 27.6109C54.8651 27.7466 54.6479 27.9095 54.3492 28.0996C54.0506 28.2896 53.6433 28.5068 53.1547 28.6968C52.666 28.8869 52.0687 29.0769 51.3357 29.2127C50.6298 29.3484 49.8153 29.4299 48.8922 29.4299C47.1276 29.4299 45.5801 29.1312 44.2769 28.5882C42.9737 28.0181 41.9149 27.2308 41.0733 26.1991C40.2317 25.1674 39.6072 23.9729 39.2272 22.5883C38.8199 21.2037 38.6299 19.6562 38.6299 18.0001C38.6299 16.344 38.8471 14.7965 39.2815 13.3847C39.7158 11.973 40.3403 10.7513 41.209 9.71961C42.0507 8.68795 43.1366 7.87348 44.4126 7.30334C45.6887 6.73321 47.209 6.43457 48.9465 6.43457C49.7882 6.43457 50.5755 6.51601 51.2542 6.65176C51.9329 6.81465 52.5574 6.97755 53.0732 7.19474C53.589 7.41193 54.0234 7.62913 54.3492 7.84633C54.7022 8.06352 54.9465 8.28071 55.1094 8.41645C55.2994 8.57935 55.4895 8.79654 55.6252 9.04089C55.761 9.28523 55.8424 9.55672 55.8424 9.82821C55.8424 10.2626 55.6795 10.697 55.3537 11.1314C55.0279 11.5657 54.675 11.973 54.2678 12.3531C53.9963 12.0816 53.6976 11.8101 53.3718 11.5386C53.0461 11.2671 52.666 11.0228 52.2587 10.8056C51.8515 10.5884 51.39 10.4255 50.8741 10.2897C50.3583 10.154 49.7882 10.0725 49.1366 10.0725C48.0235 10.0725 47.0733 10.2897 46.3131 10.7513C45.5529 11.2128 44.9556 11.7829 44.4941 12.516C44.0326 13.249 43.7068 14.0635 43.5167 14.9865C43.3267 15.9096 43.2181 16.8598 43.2181 17.8372C43.2181 18.8689 43.3267 19.8462 43.5167 20.7964C43.7068 21.7467 44.0597 22.5611 44.5484 23.2942C45.0371 24.0272 45.6615 24.5973 46.4488 25.0317C47.2362 25.4661 48.1864 25.6833 49.3538 25.6833C49.9782 25.6833 50.5212 25.6018 51.037 25.4661C51.5529 25.3032 52.0144 25.1132 52.3945 24.896C52.8017 24.6788 53.1275 24.4344 53.4261 24.2172C53.7248 23.9729 53.9691 23.7557 54.1592 23.5928C54.2949 23.7557 54.4307 23.9457 54.6207 24.1629C54.8108 24.3801 54.9736 24.6245 55.1094 24.8417C55.2723 25.086 55.3809 25.3303 55.5166 25.5747C55.6252 25.819 55.6795 26.0362 55.6795 26.2263C55.6795 26.5249 55.6252 26.7421 55.5166 26.9593C55.408 27.1493 55.218 27.3665 55.0008 27.6109ZM71.9418 25.086C71.9418 26.8236 72.1862 28.0996 72.702 28.8869C72.2948 29.0498 71.9418 29.1584 71.5889 29.2127C71.236 29.267 70.883 29.3213 70.5029 29.3213C69.7156 29.3213 69.1183 29.1584 68.7111 28.8597C68.3039 28.5611 68.0324 28.0996 67.9238 27.5294C67.4351 28.0453 66.8107 28.4796 65.9962 28.8326C65.2089 29.1855 64.2315 29.3484 63.0912 29.3484C62.494 29.3484 61.8967 29.267 61.2994 29.1041C60.7021 28.9412 60.1591 28.6697 59.6704 28.2896C59.1818 27.9095 58.8017 27.4208 58.4759 26.7964C58.1772 26.172 58.0143 25.4118 58.0143 24.5159C58.0143 23.4028 58.2858 22.4797 58.8288 21.7738C59.3718 21.0679 60.0505 20.525 60.865 20.1177C61.6795 19.7105 62.5754 19.439 63.4985 19.2761C64.4487 19.1132 65.3175 19.0318 66.1048 18.9775C66.3763 18.9503 66.6206 18.9503 66.8921 18.9503H67.598V18.353C67.598 17.5114 67.3808 16.9141 66.9193 16.534C66.4577 16.1811 65.7247 15.9911 64.7202 15.9911C63.77 15.9911 62.9283 16.1539 62.1953 16.4526C61.4623 16.7512 60.7293 17.1042 60.0234 17.5114C59.7247 17.1313 59.4533 16.7241 59.2904 16.2625C59.1003 15.801 59.0189 15.4752 59.0189 15.258C59.0189 14.9594 59.1818 14.6608 59.5347 14.3621C59.8876 14.0635 60.3492 13.8191 60.9464 13.5748C61.5437 13.3304 62.2225 13.1676 63.0098 13.0047C63.77 12.8689 64.5844 12.7875 65.4532 12.7875C66.6478 12.7875 67.6523 12.8961 68.4668 13.1404C69.2812 13.3847 69.96 13.7648 70.4758 14.2535C70.9916 14.7693 71.3717 15.3938 71.5889 16.1539C71.8061 16.9141 71.9147 17.81 71.9147 18.8146L71.9418 25.086ZM67.7066 21.258H67.245C67.0822 21.258 66.9464 21.258 66.7835 21.2851C66.2405 21.3394 65.6975 21.3937 65.1546 21.4752C64.6116 21.5566 64.1229 21.7195 63.7157 21.9367C63.3084 22.1539 62.9555 22.4525 62.684 22.8055C62.4125 23.1584 62.2768 23.62 62.2768 24.1629C62.2768 24.7874 62.4397 25.3032 62.7926 25.7376C63.1455 26.172 63.7428 26.3892 64.5844 26.3892C64.9917 26.3892 65.3989 26.3349 65.779 26.2263C66.1591 26.1177 66.4849 25.9819 66.7835 25.7919C67.0821 25.6018 67.2993 25.4118 67.4622 25.2218C67.6251 25.0046 67.7066 24.8145 67.7066 24.6516V21.258ZM80.168 14.7422C80.521 14.335 81.0639 13.9006 81.8241 13.4662C82.5843 13.0318 83.5074 12.8146 84.6476 12.8146C85.4621 12.8146 86.2494 12.9504 86.9824 13.2218C87.7155 13.4933 88.367 13.9549 88.9372 14.5522C89.5073 15.1766 89.9688 15.9911 90.2946 16.9956C90.6476 18.0001 90.8105 19.249 90.8105 20.7422C90.8105 22.4525 90.6204 23.8914 90.2132 25.0046C89.806 26.1177 89.3173 27.0136 88.6928 27.638C88.0684 28.2896 87.3625 28.7511 86.6024 29.0226C85.8422 29.2941 85.0549 29.4299 84.2947 29.4299C83.6703 29.4299 83.1001 29.3484 82.6386 29.2127C82.177 29.0769 81.7698 28.914 81.444 28.724C81.1182 28.5611 80.8739 28.3711 80.6839 28.2082C80.521 28.0453 80.3852 27.9095 80.3581 27.8552V35.9999H75.8513V13.3033C75.9599 13.2761 76.0956 13.249 76.2585 13.249C76.3943 13.2218 76.5572 13.2218 76.7201 13.1947C76.9101 13.1947 77.1002 13.1675 77.3445 13.1675C78.0775 13.1675 78.702 13.2761 79.2178 13.5205C79.7065 13.7648 80.0323 14.1721 80.168 14.7422ZM86.1408 20.8507C86.1408 20.1992 86.0865 19.5747 85.9779 19.0046C85.8693 18.4345 85.6793 17.9458 85.4349 17.5114C85.1906 17.1042 84.8377 16.7784 84.4033 16.534C83.9689 16.2897 83.4531 16.1811 82.8286 16.1811C81.9056 16.1811 81.254 16.3711 80.901 16.6969C80.5481 17.0499 80.3581 17.43 80.3581 17.8643V24.896C80.521 25.086 80.8467 25.276 81.3083 25.5204C81.7698 25.7647 82.2857 25.8733 82.8829 25.8733C83.996 25.8733 84.8105 25.4389 85.3535 24.543C85.8693 23.6743 86.1408 22.4525 86.1408 20.8507ZM94.2856 26.5521C94.1227 26.1177 94.0412 25.6561 93.9869 25.1675C93.9326 24.6788 93.9326 24.1901 93.9326 23.7014V8.36216C94.0955 8.33501 94.2584 8.30786 94.4213 8.30786C94.5842 8.28071 94.7471 8.28071 94.91 8.25356C95.0729 8.25356 95.2629 8.22641 95.4258 8.22641C95.7788 8.22641 96.1317 8.25356 96.4846 8.33501C96.8376 8.38931 97.1634 8.52505 97.4348 8.74224C97.7335 8.93229 97.9507 9.20378 98.1407 9.55672C98.3036 9.90966 98.4122 10.344 98.4122 10.887V13.249H103.055V16.5883H98.4394V23.6471C98.4394 25.1946 99.0638 25.9548 100.313 25.9548C100.611 25.9548 100.91 25.9005 101.181 25.819C101.453 25.7104 101.697 25.6018 101.914 25.4932C102.132 25.3846 102.322 25.2489 102.485 25.1132C102.647 24.9774 102.756 24.8688 102.838 24.8145C103.163 25.3032 103.435 25.7104 103.598 26.0634C103.761 26.4163 103.869 26.7421 103.869 27.0679C103.869 27.3665 103.761 27.638 103.516 27.9095C103.272 28.181 102.946 28.4525 102.539 28.6697C102.132 28.914 101.616 29.1041 101.019 29.2398C100.421 29.3756 99.7697 29.457 99.0638 29.457C97.7063 29.457 96.6204 29.1855 95.8602 28.6697C95.1543 28.0996 94.6113 27.4208 94.2856 26.5521ZM114.457 26.1177C115 26.1177 115.489 26.0634 115.923 25.9276C116.331 25.819 116.711 25.6561 117.064 25.4932C117.389 25.3304 117.688 25.1132 117.932 24.9231C118.177 24.7059 118.394 24.5159 118.584 24.353C118.855 24.6788 119.127 25.1132 119.426 25.629C119.724 26.1448 119.86 26.5792 119.86 26.905C119.86 27.3937 119.589 27.8281 119.046 28.2353C118.584 28.5882 117.932 28.8869 117.064 29.1584C116.222 29.4027 115.218 29.5385 114.077 29.5385C113.046 29.5385 112.014 29.4027 111.009 29.1312C110.005 28.8597 109.109 28.3982 108.322 27.7466C107.534 27.095 106.91 26.1991 106.421 25.086C105.933 23.9729 105.688 22.5611 105.688 20.8779C105.688 19.4933 105.905 18.2987 106.34 17.2942C106.774 16.2897 107.344 15.4481 108.05 14.7965C108.756 14.1449 109.571 13.6562 110.494 13.3304C111.389 13.0318 112.313 12.8689 113.263 12.8689C114.484 12.8689 115.543 13.0589 116.412 13.439C117.281 13.8191 117.96 14.335 118.503 14.9865C119.046 15.6381 119.426 16.3711 119.67 17.2128C119.914 18.0544 120.023 18.9232 120.023 19.8462V20.3078C120.023 20.4978 120.023 20.6607 119.996 20.8779C119.996 21.0679 119.969 21.258 119.969 21.448C119.969 21.6381 119.941 21.7738 119.914 21.8824H110.168C110.249 23.1041 110.629 24.1086 111.308 24.9231C111.96 25.7104 113.018 26.1177 114.457 26.1177ZM115.978 19.4118C115.978 18.353 115.76 17.4843 115.353 16.8327C114.946 16.1811 114.213 15.8282 113.154 15.8282C112.231 15.8282 111.525 16.154 110.982 16.7784C110.439 17.4028 110.168 18.2716 110.168 19.4118H115.978ZM127.869 14.8236C128.005 14.6336 128.168 14.4164 128.385 14.1721C128.602 13.9277 128.874 13.7105 129.199 13.5205C129.525 13.3304 129.878 13.1675 130.258 13.0318C130.638 12.8961 131.045 12.8418 131.507 12.8418C131.778 12.8418 132.05 12.8689 132.349 12.8961C132.647 12.9504 132.919 13.0318 133.163 13.1404C133.407 13.249 133.625 13.4119 133.788 13.6291C133.95 13.8463 134.032 14.0906 134.032 14.3893C134.032 14.8779 133.923 15.4209 133.679 16.0454C133.435 16.6698 133.19 17.2128 132.946 17.6471C132.566 17.3485 132.186 17.1042 131.833 16.9413C131.453 16.7784 131.018 16.6969 130.502 16.6969C129.824 16.6969 129.254 16.887 128.792 17.2942C128.331 17.7014 128.086 18.163 128.086 18.7331V29.4299H123.579V13.2761C123.688 13.249 123.824 13.2218 123.987 13.2218C124.122 13.1947 124.285 13.1947 124.448 13.1675C124.611 13.1675 124.828 13.1404 125.073 13.1404C125.779 13.1404 126.403 13.2761 126.919 13.5476C127.407 13.8463 127.733 14.2535 127.869 14.8236ZM140.656 14.8236C140.792 14.6336 140.955 14.4164 141.172 14.1721C141.389 13.9277 141.661 13.7105 141.987 13.5205C142.312 13.3304 142.665 13.1675 143.045 13.0318C143.425 12.8961 143.833 12.8418 144.294 12.8418C144.566 12.8418 144.837 12.8689 145.136 12.8961C145.434 12.9504 145.706 13.0318 145.95 13.1404C146.195 13.249 146.412 13.4119 146.575 13.6291C146.738 13.8463 146.819 14.0906 146.819 14.3893C146.819 14.8779 146.71 15.4209 146.466 16.0454C146.222 16.6698 145.977 17.2128 145.733 17.6471C145.353 17.3485 144.973 17.1042 144.62 16.9413C144.24 16.7784 143.806 16.6969 143.29 16.6969C142.611 16.6969 142.041 16.887 141.579 17.2942C141.118 17.7014 140.873 18.163 140.873 18.7331V29.4299H136.367V13.2761C136.475 13.249 136.611 13.2218 136.774 13.2218C136.91 13.1947 137.073 13.1947 137.235 13.1675C137.398 13.1675 137.616 13.1404 137.86 13.1404C138.566 13.1404 139.19 13.2761 139.706 13.5476C140.195 13.8463 140.52 14.2535 140.656 14.8236ZM162.131 25.086C162.131 26.8236 162.376 28.0996 162.891 28.8869C162.484 29.0498 162.131 29.1584 161.778 29.2127C161.425 29.267 161.072 29.3213 160.692 29.3213C159.905 29.3213 159.308 29.1584 158.9 28.8597C158.493 28.5611 158.222 28.0996 158.113 27.5294C157.624 28.0453 157 28.4796 156.186 28.8326C155.398 29.1855 154.421 29.3484 153.281 29.3484C152.683 29.3484 152.086 29.267 151.489 29.1041C150.891 28.9412 150.348 28.6697 149.86 28.2896C149.371 27.9095 148.991 27.4208 148.665 26.7964C148.367 26.172 148.204 25.4118 148.204 24.5159C148.204 23.4028 148.475 22.4797 149.018 21.7738C149.561 21.0679 150.24 20.525 151.054 20.1177C151.869 19.7105 152.765 19.439 153.688 19.2761C154.638 19.1132 155.507 19.0318 156.294 18.9775C156.566 18.9503 156.81 18.9503 157.081 18.9503H157.787V18.353C157.787 17.5114 157.57 16.9141 157.109 16.534C156.647 16.1811 155.914 15.9911 154.91 15.9911C153.959 15.9911 153.118 16.1539 152.385 16.4526C151.652 16.7512 150.919 17.1042 150.213 17.5114C149.914 17.1313 149.643 16.7241 149.48 16.2625C149.29 15.801 149.208 15.4752 149.208 15.258C149.208 14.9594 149.371 14.6608 149.724 14.3621C150.077 14.0635 150.538 13.8191 151.136 13.5748C151.733 13.3304 152.412 13.1676 153.199 13.0047C153.959 12.8689 154.774 12.7875 155.643 12.7875C156.837 12.7875 157.842 12.8961 158.656 13.1404C159.471 13.3847 160.149 13.7648 160.665 14.2535C161.181 14.7693 161.561 15.3938 161.778 16.1539C161.995 16.9141 162.104 17.81 162.104 18.8146L162.131 25.086ZM157.896 21.258H157.434C157.271 21.258 157.136 21.258 156.973 21.2851C156.43 21.3394 155.887 21.3937 155.344 21.4752C154.801 21.5566 154.312 21.7195 153.905 21.9367C153.498 22.1539 153.145 22.4525 152.873 22.8055C152.602 23.1584 152.466 23.62 152.466 24.1629C152.466 24.7874 152.629 25.3032 152.982 25.7376C153.335 26.172 153.932 26.3892 154.774 26.3892C155.181 26.3892 155.588 26.3349 155.968 26.2263C156.348 26.1177 156.674 25.9819 156.973 25.7919C157.271 25.6018 157.489 25.4118 157.652 25.2218C157.814 25.0046 157.896 24.8145 157.896 24.6516V21.258Z" fill="#044D80"/>
</g>
<defs>
<clipPath id="clip0_464_16797">
<rect width="162.891" height="36" fill="white"/>
</clipPath>
</defs>
</svg>
