<svg width="72" height="38" viewBox="0 0 72 38" fill="none" xmlns="http://www.w3.org/2000/svg">
<g clip-path="url(#clip0_464_12048)">
<path fill-rule="evenodd" clip-rule="evenodd" d="M20.0954 1.54636C20.0954 1.13468 19.9324 0.739872 19.6423 0.448775C19.3523 0.157677 18.9588 -0.00585938 18.5486 -0.00585938C18.1383 -0.00585938 17.7449 0.157677 17.4548 0.448775C17.1647 0.739872 17.0018 1.13468 17.0018 1.54636V18.0065C17.0018 18.2103 17.0418 18.4122 17.1195 18.6005C17.1972 18.7888 17.3112 18.9599 17.4548 19.1041C17.5985 19.2482 17.769 19.3625 17.9566 19.4405C18.1443 19.5185 18.3454 19.5587 18.5486 19.5587C18.7517 19.5587 18.9528 19.5185 19.1405 19.4405C19.3282 19.3625 19.4987 19.2482 19.6423 19.1041C19.786 18.9599 19.8999 18.7888 19.9776 18.6005C20.0554 18.4122 20.0954 18.2103 20.0954 18.0065V1.54636ZM11.5945 7.38864C11.5945 6.97697 11.4315 6.58216 11.1415 6.29106C10.8514 5.99996 10.4579 5.83642 10.0477 5.83642C9.63745 5.83642 9.24402 5.99996 8.95393 6.29106C8.66385 6.58216 8.50088 6.97697 8.50088 7.38864V14.9152C8.50088 15.1191 8.54089 15.3209 8.61863 15.5093C8.69636 15.6976 8.8103 15.8687 8.95393 16.0128C9.09757 16.157 9.26809 16.2713 9.45576 16.3493C9.64342 16.4273 9.84456 16.4675 10.0477 16.4675C10.2508 16.4675 10.452 16.4273 10.6396 16.3493C10.8273 16.2713 10.9978 16.157 11.1415 16.0128C11.2851 15.8687 11.399 15.6976 11.4768 15.5093C11.5545 15.3209 11.5945 15.1191 11.5945 14.9152V7.38864ZM3.09362 11.6589C3.09362 11.2472 2.93066 10.8524 2.64057 10.5613C2.35049 10.2702 1.95705 10.1067 1.54681 10.1067C1.13657 10.1067 0.743134 10.2702 0.453051 10.5613C0.162967 10.8524 0 11.2472 0 11.6589V14.9152C0 15.3269 0.162967 15.7217 0.453051 16.0128C0.743134 16.3039 1.13657 16.4675 1.54681 16.4675C1.95705 16.4675 2.35049 16.3039 2.64057 16.0128C2.93066 15.7217 3.09362 15.3269 3.09362 14.9152V11.6589ZM25.501 7.39133C25.501 6.97966 25.6639 6.58484 25.954 6.29375C26.2441 6.00265 26.6376 5.83911 27.0478 5.83911C27.458 5.83911 27.8515 6.00265 28.1416 6.29375C28.4316 6.58484 28.5946 6.97966 28.5946 7.39133V14.9179C28.5946 15.3296 28.4316 15.7244 28.1416 16.0155C27.8515 16.3066 27.458 16.4701 27.0478 16.4701C26.6376 16.4701 26.2441 16.3066 25.954 16.0155C25.6639 15.7244 25.501 15.3296 25.501 14.9179V7.39133ZM34.4701 15.971C34.7453 16.2347 35.1071 16.3872 35.4861 16.4006C35.5064 16.4014 35.5267 16.4018 35.547 16.4018C35.9458 16.4018 36.3292 16.2476 36.6176 15.9712C36.906 15.6949 37.0771 15.3176 37.0955 14.9179V11.6616C37.0771 11.2619 36.906 10.8846 36.6176 10.6083C36.3426 10.3447 35.9812 10.1923 35.6025 10.1787C35.5819 10.1779 35.5613 10.1775 35.5406 10.1775C35.1419 10.1775 34.7585 10.3317 34.4701 10.608C34.1817 10.8844 34.0106 11.2616 33.9922 11.6613V14.9177C34.0106 15.3174 34.1817 15.6947 34.4701 15.971ZM51.4452 0.451216C51.1552 0.742314 50.9922 1.13713 50.9922 1.5488V18.0089C50.9922 18.4206 51.1552 18.8154 51.4452 19.1065C51.7353 19.3976 52.1288 19.5611 52.539 19.5611C52.9492 19.5611 53.3427 19.3976 53.6328 19.1065C53.9228 18.8154 54.0858 18.4206 54.0858 18.0089V1.5488C54.0858 1.13713 53.9228 0.742314 53.6328 0.451216C53.3427 0.160119 52.9492 -0.00341797 52.539 -0.00341797C52.1288 -0.00341797 51.7353 0.160119 51.4452 0.451216ZM59.9461 6.2935C59.656 6.5846 59.4931 6.97941 59.4931 7.39109V14.9177C59.4931 15.3294 59.656 15.7242 59.9461 16.0153C60.2362 16.3064 60.6296 16.4699 61.0399 16.4699C61.4501 16.4699 61.8435 16.3064 62.1336 16.0153C62.4237 15.7242 62.5867 15.3294 62.5867 14.9177V7.39109C62.5867 6.97941 62.4237 6.5846 62.1336 6.2935C61.8435 6.0024 61.4501 5.83887 61.0399 5.83887C60.6296 5.83887 60.2362 6.0024 59.9461 6.2935ZM68.447 10.5638C68.1569 10.8548 67.9939 11.2497 67.9939 11.6613V14.9177C67.9939 15.3294 68.1569 15.7242 68.447 16.0153C68.7371 16.3064 69.1305 16.4699 69.5407 16.4699C69.951 16.4699 70.3444 16.3064 70.6345 16.0153C70.9246 15.7242 71.0876 15.3294 71.0876 14.9177V11.6613C71.0876 11.2497 70.9246 10.8548 70.6345 10.5638C70.3444 10.2727 69.951 10.1091 69.5407 10.1091C69.1305 10.1091 68.7371 10.2727 68.447 10.5638ZM45.5867 7.39109C45.5867 6.97941 45.4237 6.5846 45.1337 6.2935C44.8436 6.0024 44.4501 5.83887 44.0399 5.83887C43.6296 5.83887 43.2362 6.0024 42.9461 6.2935C42.656 6.5846 42.4931 6.97941 42.4931 7.39109V14.9177C42.4931 15.3294 42.656 15.7242 42.9461 16.0153C43.2362 16.3064 43.6296 16.4699 44.0399 16.4699C44.4501 16.4699 44.8436 16.3064 45.1337 16.0153C45.4237 15.7242 45.5867 15.3294 45.5867 14.9177V7.39109ZM32.006 24.7463C33.031 24.7637 34.0505 24.9011 35.0437 25.1559L35.0174 27.7847C34.2225 27.5665 33.4054 27.4402 32.582 27.4082C31.3314 27.4082 30.6534 27.8277 30.6534 28.4221C30.6534 29.1534 31.5087 29.4215 32.0295 29.5847L32.0817 29.6011L32.9407 29.8786C34.9812 30.5226 35.9027 31.913 35.9027 33.4222C35.9027 36.5366 33.1744 37.5835 30.7883 37.5835C29.6595 37.5768 28.5336 37.4662 27.4249 37.2532V34.4031C28.3821 34.6814 29.3708 34.8357 30.3671 34.8622C31.9172 34.8622 32.6314 34.4064 32.6314 33.7063C32.6314 33.0788 32.0159 32.7155 31.2425 32.4711L30.5843 32.2564C28.8466 31.6983 27.3985 30.6745 27.3985 28.6236C27.3985 26.3052 29.1329 24.7463 32.006 24.7463ZM60.8177 32.9716C61.1749 32.4424 61.3679 31.8189 61.3724 31.1798C61.3795 30.7517 61.301 30.3266 61.1417 29.9294C60.9824 29.5323 60.7455 29.1711 60.4449 28.8673C60.1443 28.5635 59.7861 28.3232 59.3915 28.1605C58.9969 27.9978 58.5738 27.9161 58.1472 27.9201C57.5102 27.9201 56.8876 28.1094 56.3577 28.464C55.8278 28.8186 55.4144 29.3228 55.1697 29.9128C54.9249 30.5029 54.8597 31.1524 54.9823 31.7796C55.1049 32.4068 55.4098 32.9835 55.8585 33.4371C56.3073 33.8906 56.8798 34.2007 57.5039 34.3282C58.1281 34.4557 58.7758 34.3948 59.3655 34.1534C59.9553 33.912 60.4606 33.5008 60.8177 32.9716ZM51.6242 31.1798C51.6242 27.6394 54.3492 24.7629 58.1472 24.7629C61.9484 24.7629 64.6767 27.6328 64.6767 31.1798C64.6767 34.7268 61.9451 37.6 58.1472 37.6C54.3492 37.6 51.6242 34.7202 51.6242 31.1798ZM20.1055 37.3787H23.2221V24.9841H20.1055V37.3787ZM12.9767 24.7629C13.9416 24.766 14.9004 24.9163 15.8202 25.2088V28.5477C15.012 28.1087 14.1064 27.8815 13.1873 27.8872C11.1699 27.8872 9.77119 29.2908 9.77119 31.1898C9.77119 33.026 11.1107 34.4924 13.1873 34.4924C14.1062 34.4965 15.0114 34.2694 15.8202 33.8319V37.1576C14.8992 37.4444 13.9411 37.5935 12.9767 37.6001C9.46841 37.6001 6.39453 35.1727 6.39453 31.1799C6.39453 27.4777 9.18537 24.7629 12.9767 24.7629ZM48.3554 25.2085C47.4355 24.9161 46.4767 24.7658 45.5119 24.7627C41.7205 24.7627 38.9297 27.4774 38.9297 31.1796C38.9297 35.1725 42.0036 37.5999 45.5119 37.5999C46.4762 37.5933 47.4343 37.4441 48.3554 37.1573V33.8316C47.5466 34.2692 46.6413 34.4963 45.7225 34.4921C43.6458 34.4921 42.3063 33.0258 42.3063 31.1895C42.3063 29.2905 43.7051 27.8869 45.7225 27.8869C46.6415 27.8812 47.5471 28.1084 48.3554 28.5475V25.2085Z" fill="#049FD9"/>
</g>
<defs>
<clipPath id="clip0_464_12048">
<rect width="71.0875" height="37.6" fill="white"/>
</clipPath>
</defs>
</svg>
