<svg width="24" height="24" viewBox="0 0 24 24" fill="none" xmlns="http://www.w3.org/2000/svg">
<path fill-rule="evenodd" clip-rule="evenodd" d="M15.757 12.8992C15.8953 12.5968 16.2786 12.3167 16.6091 12.2792C16.9396 12.2417 17.2408 11.9393 17.2783 11.6088C17.3182 11.2807 17.5971 10.8962 17.8983 10.7568C18.2007 10.6173 18.3941 10.2376 18.3308 9.91291C18.2628 9.58709 18.4105 9.13587 18.6543 8.91201C18.8992 8.68464 18.966 8.26389 18.8031 7.97323C18.6402 7.68491 18.6402 7.21025 18.8031 6.92193C18.966 6.6301 18.8992 6.20935 18.6543 5.98315C18.4105 5.75695 18.264 5.3069 18.3308 4.98225C18.3941 4.65643 18.2007 4.27553 17.8983 4.13606C17.5983 3.99659 17.3182 3.61451 17.2783 3.284C17.2396 2.95584 16.9384 2.65346 16.6091 2.61361C16.2786 2.57493 15.8953 2.29482 15.757 1.99479C15.6164 1.69241 15.2367 1.49903 14.9108 1.56583C14.585 1.63029 14.135 1.48379 13.9099 1.24001C13.6837 0.993888 13.2618 0.928255 12.9723 1.09117C12.6828 1.25408 12.2082 1.25408 11.9199 1.09117C11.6304 0.925911 11.2096 0.991544 10.9811 1.23767C10.7572 1.48145 10.3072 1.62795 9.98018 1.56349C9.65554 1.49785 9.27463 1.69124 9.13633 1.99362C8.99686 2.29365 8.61362 2.57376 8.28311 2.61127C7.9526 2.65229 7.65139 2.95349 7.61272 3.28283C7.57287 3.61217 7.2951 3.99541 6.99272 4.13371C6.69269 4.27318 6.49813 4.65409 6.56376 4.97991C6.62822 5.30455 6.48172 5.75578 6.23794 5.98081C5.99417 6.20583 5.92619 6.62776 6.0891 6.91959C6.25201 7.2079 6.25201 7.68257 6.0891 7.97088C5.92619 8.26154 5.99299 8.6823 6.23794 8.91084C6.48289 9.13352 6.62822 9.58475 6.56376 9.91174C6.49813 10.2364 6.69269 10.6173 6.99272 10.7556C7.2951 10.8951 7.57287 11.2795 7.61154 11.6076C7.65139 11.9382 7.95143 12.2405 8.28194 12.278C8.61244 12.3155 8.99569 12.5968 9.13516 12.898C9.27346 13.1981 9.65436 13.3914 9.97901 13.327C10.3048 13.2625 10.7561 13.4079 10.9799 13.6528C11.2073 13.8966 11.628 13.9646 11.9187 13.8017C12.207 13.6387 12.6817 13.6387 12.9712 13.8017C13.2606 13.9646 13.6826 13.8966 13.9088 13.6528C14.135 13.4067 14.5839 13.2625 14.9097 13.327C15.2367 13.3926 15.6176 13.1992 15.757 12.8992V12.8992ZM12.4462 11.4296C10.2451 11.4296 8.46134 9.64463 8.46134 7.44593C8.46134 5.24489 10.2451 3.45991 12.4462 3.45991C14.6472 3.45991 16.431 5.24489 16.431 7.44593C16.431 9.64463 14.6461 11.4296 12.4462 11.4296V11.4296ZM7.72864 13.7851L6.27183 22.0467L9.93789 21.5028L13.1973 23.2679L14.6482 15.0392C13.9485 15.2419 13.2102 15.3568 12.4448 15.3568C10.6763 15.3568 9.04716 14.7685 7.72864 13.7851V13.7851ZM17.0886 13.8415C16.7241 14.1064 16.3362 14.3408 15.9283 14.5412L15.0516 19.5058L19.0001 17.3634L17.0886 13.8415V13.8415Z" fill="#374050"/>
</svg>
