<svg width="83" height="18" viewBox="0 0 83 18" fill="none" xmlns="http://www.w3.org/2000/svg">
<g clip-path="url(#clip0_464_12194)">
<path fill-rule="evenodd" clip-rule="evenodd" d="M6.88672 0V2.00925V2.05625C7.73562 2.37155 8.47036 2.93437 8.99584 3.67187V1.90937H11.622C13.8016 1.90937 15.3761 3.5015 15.3761 6.02187C15.3895 6.52211 15.3021 7.01993 15.1192 7.48571C14.9362 7.95149 14.6615 8.37569 14.3112 8.73309C13.9609 9.09048 13.5423 9.37375 13.0803 9.56604C12.6183 9.75833 12.1224 9.85571 11.622 9.85238H9.48347C9.12683 10.6656 8.5057 11.3344 7.72097 11.75H11.5985C13.737 11.75 17.5146 9.9875 17.5205 6.01012C17.5205 1.8565 14.4596 0 11.058 0H6.88672ZM18.6719 11.7383H20.7516V2.91992H18.6719V11.7383ZM28.9264 3.81278L28.1274 5.21691C27.2697 4.49428 24.432 3.81278 24.432 5.29916C24.432 5.98269 25.2435 6.22193 26.1921 6.50159C27.5264 6.89497 29.132 7.36833 29.132 9.27066C29.132 12.1435 25.0195 12.7957 22.082 10.6219L23.0103 9.27066C23.8504 10.1108 27.2697 11.2035 27.2697 9.39403C27.2697 8.6175 26.3943 8.36571 25.395 8.07825C24.0656 7.69586 22.5168 7.25034 22.5168 5.42253C22.5168 2.66716 26.3003 1.99741 28.9264 3.80691V3.81278ZM32.0953 7.40249C32.0953 4.15361 35.5146 3.83049 36.9069 5.63999L38.1348 4.25349C35.4382 1.29836 30.0391 2.89636 30.0391 7.39661C30.0391 11.7382 35.4382 13.6006 38.1877 10.3341L36.9774 9.10624C35.8024 10.857 32.0953 10.6514 32.0953 7.40249ZM43.4775 10.1991C43.1082 10.2061 42.7415 10.1369 42.4003 9.99574C42.059 9.8546 41.7506 9.64458 41.4942 9.37881C41.2378 9.11304 41.0389 8.79723 40.9101 8.45112C40.7813 8.10502 40.7253 7.73607 40.7456 7.36734C40.7235 6.99818 40.7783 6.62847 40.9065 6.28157C41.0347 5.93468 41.2334 5.61815 41.4902 5.352C41.7469 5.08585 42.0561 4.87588 42.3982 4.73535C42.7403 4.59482 43.1078 4.5268 43.4775 4.53559C44.2027 4.56907 44.8864 4.88325 45.3841 5.4117C45.8819 5.94015 46.1546 6.64145 46.1447 7.36734C46.1638 7.7304 46.1091 8.09357 45.9839 8.4349C45.8587 8.77624 45.6656 9.08866 45.4164 9.35332C45.1671 9.61797 44.8668 9.82936 44.5335 9.97472C44.2003 10.1201 43.841 10.1964 43.4775 10.1991ZM43.4305 2.77309C42.1973 2.76367 41.0106 3.24293 40.1299 4.10608C39.2491 4.96922 38.746 6.146 38.7305 7.37909C38.7305 8.63262 39.2284 9.8348 40.1148 10.7212C41.0012 11.6076 42.2034 12.1055 43.4569 12.1055C44.7104 12.1055 45.9126 11.6076 46.799 10.7212C47.6854 9.8348 48.1833 8.63262 48.1833 7.37909C48.1679 6.146 47.6647 4.96922 46.784 4.10608C45.9032 3.24293 44.7165 2.76367 43.4833 2.77309H43.4305ZM50.4179 2.91992H48.2266L51.8691 11.8617H53.7079L57.3093 2.91992H55.1767L52.7856 9.42942L50.4179 2.91992ZM59.5073 6.55043C59.9891 3.7128 63.7197 3.70105 64.0487 6.55043H59.5073ZM57.4922 7.36705C57.4922 12.1258 63.4788 13.3654 65.6643 10.3339L64.4893 9.27643C63.5669 10.6218 60.1124 11.1799 59.5367 8.10143H66.0638C66.569 0.957427 57.5216 1.4098 57.5216 7.39055L57.4922 7.36705ZM69.6246 2.9375H67.5625V11.75H69.6188V8.13688C69.6188 5.63412 72.1156 4.7 73.0027 4.7L72.3212 3.01975C71.2787 3.13091 70.3162 3.63002 69.6246 4.418V2.9375ZM73.6699 2.9375H75.8261L77.9293 9.4L80.1971 2.9375H82.2886C82.2886 2.9375 78.6578 12.2259 77.9704 13.9473C77.4299 15.275 76.6662 15.8625 74.9331 15.8625H73.6641V14.1823H75.2033C76.1257 14.1823 76.9247 11.7441 76.9247 11.7441L73.6699 2.9375ZM37.6371 15.3339L38.0366 14.9461L38.0424 14.8874C37.8821 14.6954 37.6815 14.541 37.4549 14.435C37.2325 14.3306 36.9898 14.2764 36.7441 14.2764C36.4593 14.2759 36.1796 14.3509 35.9333 14.4937C35.6866 14.631 35.4831 14.8345 35.3458 15.0812C35.2088 15.3291 35.1399 15.6088 35.1461 15.892C35.1358 16.108 35.1702 16.3238 35.247 16.526C35.3238 16.7281 35.4414 16.9123 35.5926 17.067C35.7412 17.2168 35.9191 17.3342 36.1152 17.4121C36.3114 17.4899 36.5214 17.5264 36.7323 17.5194C36.9621 17.5227 37.19 17.4787 37.4021 17.3901C37.6381 17.2774 37.8512 17.1221 38.0307 16.9319L37.6429 16.5206C37.5132 16.6598 37.3601 16.7751 37.1906 16.8614C37.0484 16.9251 36.894 16.9572 36.7382 16.9554C36.5531 16.9576 36.3707 16.911 36.2094 16.8202C36.0535 16.7344 35.9252 16.6061 35.8393 16.4501C35.7526 16.2914 35.7062 16.1139 35.7042 15.9331C35.7012 15.7972 35.7258 15.6622 35.7762 15.536C35.8267 15.4098 35.9021 15.2951 35.9979 15.1987C36.0912 15.1016 36.2035 15.0249 36.3279 14.9733C36.4523 14.9217 36.586 14.8965 36.7206 14.8991C36.8955 14.9017 37.0679 14.9419 37.2261 15.0169C37.3842 15.0919 37.5243 15.2 37.6371 15.3339ZM40.9336 14.3525H41.5505V15.6274H42.9957V14.3525H43.5773V17.5309H42.9957V16.209H41.5505V17.5309H40.9336V14.3525ZM47.5891 16.2149L48.1061 15.0869L48.1119 15.0928L48.5996 16.2149H47.5891ZM48.3822 14.3408H47.8417L47.8182 14.3467L46.4141 17.5309H47.0486L47.3834 16.7437H48.7993L49.1224 17.5251H49.7687L48.3822 14.3408ZM52.6016 14.3467H53.2302L54.8341 16.4558V14.3467H55.4039V17.5309H54.8341L53.2126 15.3043L53.2184 17.5309H52.6016V14.3467ZM59.1442 14.3467H58.5156V17.5309H59.1384L59.1325 15.3043L60.754 17.5309H61.318V14.3467H60.754L60.7481 16.4558L59.1442 14.3467ZM64.4297 14.3408H66.8208V14.8578H65.0524V15.6274H66.6211V16.2091H65.0524V16.9493H66.8208V17.5251H64.4297V14.3408ZM70.4274 14.3469H69.8047V17.5253H72.0431V16.9496H70.4274V14.3469ZM78.7177 15.8273V14.9754H78.3828V14.8579H79.1877V14.9754H78.8528V15.8273H78.7177ZM79.2732 14.8579V15.8273L79.4024 15.8332V15.0048L79.6903 15.8332H79.8078L80.0957 15.0166V15.8214H80.225V14.8521H80.0487L79.8078 15.5277L79.755 15.6863L79.7079 15.5453L79.473 14.8579H79.2732Z" fill="black"/>
<path d="M9.2316 7.10872C9.2316 8.02228 8.96062 8.9153 8.45295 9.67482C7.94529 10.4343 7.22375 11.0262 6.37962 11.3755C5.5355 11.7249 4.60672 11.816 3.7108 11.6373C2.81489 11.4587 1.99209 11.0183 1.34653 10.3719C0.700956 9.72549 0.261622 8.90214 0.0841094 8.00599C-0.0934034 7.10985 -0.00111796 6.18119 0.34929 5.33751C0.699697 4.49383 1.29248 3.77304 2.05264 3.26634C2.8128 2.75965 3.70617 2.48981 4.61972 2.49097C5.84239 2.49253 7.01453 2.97892 7.87909 3.84347C8.74365 4.70803 9.23004 5.88018 9.2316 7.10285" fill="#00A5EF"/>
</g>
<defs>
<clipPath id="clip0_464_12194">
<rect width="82.2794" height="17.5369" fill="white"/>
</clipPath>
</defs>
</svg>
