<svg width="32" height="32" viewBox="0 0 32 32" fill="none" xmlns="http://www.w3.org/2000/svg">
<g clip-path="url(#clip0_525_69)">
<path fill-rule="evenodd" clip-rule="evenodd" d="M28.4444 0H3.55556C1.6 0 0 1.6 0 3.55555V28.4444C0 30.4017 1.6 31.9999 3.55556 31.9999H16V19.5555H12.4444V15.1555H16V11.5111C16 7.66399 18.1547 4.96177 22.6951 4.96177L25.9004 4.96533V9.59643H23.7724C22.0053 9.59643 21.3333 10.9226 21.3333 12.1529V15.1573H25.8987L24.8889 19.5555H21.3333V31.9999H28.4444C30.4 31.9999 32 30.4017 32 28.4444V3.55555C32 1.6 30.4 0 28.4444 0V0Z" fill="#57616F"/>
</g>
<defs>
<clipPath id="clip0_525_69">
<rect width="32" height="31.9999" fill="white"/>
</clipPath>
</defs>
</svg>
