<svg width="65" height="34" viewBox="0 0 65 34" fill="none" xmlns="http://www.w3.org/2000/svg">
<g clip-path="url(#clip0_464_12155)">
<path fill-rule="evenodd" clip-rule="evenodd" d="M29.4979 7.27895C29.0502 7.12895 28.6438 6.86134 28.3148 6.49998L26.9159 4.8165C26.6139 4.49046 26.2552 4.23241 25.8605 4.05726C25.4658 3.88211 25.043 3.79332 24.6165 3.79602C24.0715 3.80252 23.5369 3.95764 23.062 4.24702C22.5871 4.53641 22.1872 4.95073 21.8994 5.4517C21.6115 5.95266 21.4449 6.52411 21.415 7.11321C21.3851 7.70232 21.4929 8.29008 21.7283 8.82217C21.9638 9.35426 22.3193 9.81351 22.7621 10.1575C23.2049 10.5014 23.7206 10.719 24.2616 10.7901C24.8026 10.8612 25.3514 10.7835 25.8573 10.5642C26.3632 10.3449 26.8099 9.99109 27.1561 9.53543V7.72196C26.1775 9.76943 24.6405 9.54843 24.6405 9.54843C24.0911 9.54843 23.5643 9.31217 23.1759 8.89163C22.7874 8.47108 22.5692 7.9007 22.5692 7.30597C22.5692 6.71123 22.7874 6.14085 23.1759 5.7203C23.5643 5.29976 24.0911 5.0635 24.6405 5.0635C24.9124 5.06004 25.1823 5.11579 25.4339 5.22745C25.6856 5.33911 25.9139 5.5044 26.1054 5.71349L27.4863 7.38396C28.2438 8.18995 29.264 8.64061 30.3261 8.63844C30.863 8.661 31.3986 8.56598 31.9009 8.35909C32.4031 8.15219 32.8615 7.83767 33.2488 7.43437C33.636 7.03107 33.9441 6.5473 34.1545 6.01202C34.365 5.47675 34.4734 4.901 34.4734 4.31926C34.4734 3.73752 34.365 3.16177 34.1545 2.6265C33.9441 2.09123 33.636 1.60745 33.2488 1.20415C32.8615 0.800853 32.4031 0.486334 31.9009 0.279437C31.3986 0.0725394 30.863 -0.0224783 30.3261 7.6299e-05C29.7046 0.0138532 29.0944 0.182231 28.5426 0.492183C27.9908 0.802135 27.5123 1.24535 27.1441 1.78755V4.06901C28.1347 1.04656 30.3201 1.26756 30.3201 1.26756C30.7887 1.26445 31.2507 1.38694 31.665 1.62411C32.0793 1.86128 32.4329 2.20575 32.6943 2.62681C32.9557 3.04787 33.1169 3.53243 33.1633 4.03728C33.2097 4.54212 33.1401 5.05157 32.9605 5.52018C32.7809 5.98878 32.497 6.402 32.134 6.72296C31.7711 7.04392 31.3405 7.26266 30.8805 7.35968C30.4205 7.45669 29.9455 7.42896 29.4979 7.27895ZM48.3077 13.1754C48.3077 13.1754 50.1268 12.9934 50.8953 14.4169V12.0639C50.5231 11.6609 48.1996 11.5959 48.1996 11.5959C43.0303 11.5959 43.1024 15.9249 43.1024 15.9249C43.1024 15.9249 42.7601 18.3103 45.762 20.0848L48.6499 21.7813C49.9347 22.5613 49.7786 23.6208 49.7786 23.6208C49.7786 23.6208 49.7546 26.0517 46.4825 26.2207C46.4825 26.2207 43.8288 25.9997 42.9883 24.5373L43.8288 27.4362C44.6857 27.6996 45.5739 27.8244 46.4645 27.8067C52.2942 27.8067 52.1741 23.3998 52.1741 23.3998C52.1741 23.3998 52.4983 21.0273 49.7005 19.3698L46.8007 17.6734C45.3598 16.8284 45.5519 15.6129 45.5519 15.6129C45.5519 15.6129 45.4198 13.1754 48.3077 13.1754ZM6.89838 19.8052H3.60228V25.9346C3.59091 26.2844 3.70119 26.6261 3.9113 26.8921C4.12142 27.158 4.41607 27.329 4.737 27.3711H0C0.320978 27.3304 0.615813 27.1596 0.825214 26.8931C1.03461 26.6266 1.14305 26.2842 1.12872 25.9346V13.3183C1.14024 12.9695 1.0308 12.6287 0.821918 12.3629C0.61304 12.097 0.319843 11.9254 0 11.8818H9.22185V14.6768C9.20475 14.3377 9.06578 14.0193 8.83465 13.7897C8.60351 13.5602 8.29858 13.4376 7.98507 13.4483H3.60228V18.2322H8.13516V21.0207C8.11506 20.6839 7.97478 20.3688 7.74397 20.142C7.51317 19.9152 7.20993 19.7944 6.89838 19.8052ZM28.6055 12.3646C28.8141 12.6301 28.924 12.9701 28.9139 13.3186V25.9349C28.9254 26.2837 28.816 26.6245 28.6071 26.8903C28.3982 27.1561 28.105 27.3277 27.7852 27.3713H32.5102C32.1903 27.3277 31.8971 27.1561 31.6882 26.8903C31.4794 26.6245 31.3699 26.2837 31.3814 25.9349V13.3186C31.3713 12.9701 31.4812 12.6301 31.6898 12.3646C31.8985 12.0991 32.1909 11.9271 32.5102 11.8821H27.7852C28.1044 11.9271 28.3968 12.0991 28.6055 12.3646ZM13.0611 23.2179C13.0609 24.0021 13.3441 24.7553 13.8501 25.3164C14.356 25.8776 15.0447 26.2022 15.7688 26.2209C16.4963 26.1956 17.1862 25.8658 17.6935 25.3008C18.2008 24.7359 18.4858 23.9798 18.4886 23.1919V13.3186C18.4984 12.9682 18.3868 12.6265 18.1757 12.3606C17.9646 12.0948 17.6693 11.9241 17.3478 11.8821H22.0849C21.7634 11.9241 21.4681 12.0948 21.257 12.3606C21.0459 12.6265 20.9343 12.9682 20.9441 13.3186V22.9189C20.9441 25.9869 18.6447 27.7873 15.7869 27.7873C12.929 27.7873 10.5936 25.9999 10.5936 22.9189V13.3186C10.6037 12.9701 10.4938 12.6301 10.2852 12.3646C10.0765 12.0991 9.78413 11.9271 9.46484 11.8821H14.1898C13.87 11.9257 13.5768 12.0973 13.3679 12.3631C13.159 12.6289 13.0496 12.9698 13.0611 13.3186V23.2179ZM26.465 12.3606C26.2539 12.6265 26.1423 12.9682 26.1522 13.3186H26.1702V28.1513C26.1702 32.7858 21.6133 33.4878 21.6133 33.4878C22.2291 32.9564 22.7334 32.2892 23.0927 31.5304C23.4519 30.7717 23.6577 29.9389 23.6966 29.0873V13.3186C23.7064 12.9682 23.5948 12.6265 23.3837 12.3606C23.1727 12.0948 22.8773 11.9241 22.5559 11.8821H27.2929C26.9714 11.9241 26.6761 12.0948 26.465 12.3606ZM55.6062 23.2179C55.5707 23.6252 55.6141 24.036 55.7338 24.4241C55.8534 24.8121 56.0466 25.1689 56.3009 25.4714C56.5552 25.774 56.8651 26.0157 57.2107 26.1811C57.5563 26.3465 57.93 26.4319 58.3079 26.4319C58.6858 26.4319 59.0595 26.3465 59.4051 26.1811C59.7507 26.0157 60.0606 25.774 60.3149 25.4714C60.5693 25.1689 60.7624 24.8121 60.882 24.4241C61.0017 24.036 61.0451 23.6252 61.0096 23.2179V13.3186C61.0198 12.9701 60.9098 12.6301 60.7012 12.3646C60.4926 12.0991 60.2002 11.9271 59.8809 11.8821H64.6059C64.2866 11.9271 63.9942 12.0991 63.7856 12.3646C63.577 12.6301 63.467 12.9701 63.4772 13.3186V22.9189C63.4772 25.9869 61.1657 27.7873 58.3199 27.7873C55.4741 27.7873 53.1446 25.9999 53.1446 22.9189V13.3186C53.1545 12.9682 53.0429 12.6265 52.8318 12.3606C52.6207 12.0948 52.3254 11.9241 52.0039 11.8821H56.7409C56.4194 11.9241 56.1241 12.0948 55.913 12.3606C55.702 12.6265 55.5904 12.9682 55.6002 13.3186V23.2179H55.6062ZM33.3508 11.8821L32.5703 14.729C32.7119 14.3778 32.9361 14.0728 33.2205 13.8447C33.505 13.6166 33.8397 13.4733 34.1913 13.4291H36.6949V25.9349C36.7065 26.2837 36.597 26.6245 36.3881 26.8903C36.1793 27.1561 35.8861 27.3277 35.5662 27.3713H40.2912C39.9714 27.3277 39.6782 27.1561 39.4693 26.8903C39.2604 26.6245 39.151 26.2837 39.1625 25.9349V13.4486H41.2518C41.4045 13.4477 41.5558 13.4795 41.6971 13.5422C41.8384 13.6048 41.9668 13.6971 42.0751 13.8137C42.1833 13.9303 42.2692 14.0688 42.3278 14.2215C42.3864 14.3741 42.4166 14.5377 42.4166 14.703L43.185 11.8821H33.3508Z" fill="#EC1D25"/>
</g>
<defs>
<clipPath id="clip0_464_12155">
<rect width="64.625" height="33.4875" fill="white"/>
</clipPath>
</defs>
</svg>
