<svg width="134" height="150" viewBox="0 0 134 150" fill="none" xmlns="http://www.w3.org/2000/svg">
<g clip-path="url(#clip0_464_16836)">
<path d="M11.0908 116.779L67.9158 145.686L122.583 116.779V3.73926H11.0908V116.779Z" fill="white"/>
<path d="M123.735 4.17041L9.94141 118.792L68.9243 147.986L123.735 119.942V4.17041Z" fill="#F2F3F2"/>
<path d="M7.35205 41.419V119.223L9.3661 120.23L66.1911 149.137L67.9174 150L69.6437 149.137L124.455 120.23L126.469 119.223V0H7.35205V41.419ZM11.0924 117.066V3.73921H122.728V117.066L67.9174 145.973L11.0924 117.066Z" fill="#DCDEDC"/>
<path d="M66.9093 5.60882C67.4847 5.60882 68.0601 5.60882 68.6356 5.75264L66.9093 9.0604C64.3198 8.91659 62.018 10.93 61.8741 13.5187C61.7303 16.1074 63.7443 18.4084 66.3338 18.5523H66.9093C68.0601 18.5523 69.211 18.1208 70.0742 17.4017L71.9444 20.5657C70.5058 21.5724 68.7794 22.1476 66.9093 22.1476C62.3057 22.2915 58.4215 18.8399 58.2776 14.2378C58.1338 9.63567 61.5864 5.75264 66.19 5.60882H66.9093V5.60882ZM72.8075 12.6558L74.9655 16.2512L72.8075 19.7028L70.7935 16.2512H66.6215L68.7794 12.6558H72.8075ZM69.3549 11.3615C69.3549 10.7862 69.4988 10.2109 69.7865 9.77948C70.0742 9.34803 70.6496 8.91659 71.0812 8.62895L71.3689 8.48514C71.9444 8.19751 72.0882 8.05369 72.0882 7.76606C72.0882 7.47843 71.6567 7.19079 71.3689 7.19079C70.7935 7.19079 70.3619 7.47843 70.0742 8.05369L69.3549 7.33461C69.4987 7.04698 69.7865 6.75935 70.0742 6.47172C70.5058 6.18408 70.9374 6.18408 71.3689 6.18408C71.8005 6.18408 72.376 6.3279 72.6637 6.61553C72.9514 6.90316 73.2391 7.33461 73.2391 7.76606C73.2391 8.48514 72.8075 9.0604 71.9444 9.34803L71.5128 9.63566C71.0812 9.9233 70.7935 10.0671 70.6496 10.4986H73.2391V11.5053L69.3549 11.3615V11.3615ZM66.9093 29.3384L80.576 21.5724V0H53.0986V21.4286L66.9093 29.3384Z" fill="#FF492C"/>
<path d="M129.202 74.3096H4.61868L0.0151367 84.3767L4.61868 94.4438H129.202L133.662 84.3767L129.202 74.3096Z" fill="#FF492C"/>
<path d="M26.8436 60.4128C26.7573 60.4128 26.6854 60.384 26.6278 60.3265C26.5703 60.2594 26.5415 60.1827 26.5415 60.0964V42.6084C26.5415 42.5221 26.5703 42.4454 26.6278 42.3783C26.6854 42.3208 26.7573 42.292 26.8436 42.292H29.8791C29.9654 42.292 30.0373 42.3208 30.0949 42.3783C30.162 42.4454 30.1956 42.5221 30.1956 42.6084V57.1482C30.1956 57.2345 30.2387 57.2776 30.325 57.2776H38.784C38.8704 57.2776 38.9471 57.3064 39.0142 57.3639C39.0718 57.431 39.1005 57.5077 39.1005 57.594V60.0964C39.1005 60.1827 39.0718 60.2594 39.0142 60.3265C38.9471 60.384 38.8704 60.4128 38.784 60.4128H26.8436ZM52.8968 52.3879C53.0023 53.0398 53.0359 53.7733 52.9975 54.5882C52.9879 54.7992 52.8776 54.9046 52.6666 54.9046H44.668C44.5625 54.9046 44.5289 54.9478 44.5673 55.0341C44.6152 55.3792 44.7063 55.7244 44.8406 56.0696C45.2913 57.0283 46.2073 57.5077 47.5883 57.5077C48.6913 57.4981 49.564 57.0523 50.2066 56.1702C50.2737 56.0648 50.3504 56.012 50.4368 56.012C50.4943 56.012 50.5567 56.0456 50.6238 56.1127L52.4796 57.9535C52.5659 58.0398 52.6091 58.1165 52.6091 58.1836C52.6091 58.222 52.5755 58.2939 52.5084 58.3994C51.9425 59.0993 51.2088 59.6458 50.3073 60.0389C49.4154 60.4224 48.4323 60.6141 47.3581 60.6141C45.8716 60.6141 44.6152 60.2786 43.589 59.6074C42.5628 58.9363 41.8243 57.9967 41.3735 56.7886C41.0091 55.9257 40.8269 54.7944 40.8269 53.3946C40.8269 52.4454 40.9563 51.6113 41.2153 50.8922C41.6181 49.665 42.3134 48.687 43.3013 47.9583C44.2987 47.2393 45.4784 46.8797 46.8402 46.8797C48.5666 46.8797 49.9524 47.3783 50.9978 48.3754C52.0432 49.3725 52.6762 50.71 52.8968 52.3879ZM46.869 50.0293C45.7757 50.0293 45.0564 50.5374 44.7111 51.5537C44.644 51.7838 44.5864 52.0619 44.5385 52.3879C44.5385 52.4742 44.5816 52.5173 44.668 52.5173H49.142C49.2475 52.5173 49.2811 52.4742 49.2427 52.3879C49.1564 51.8893 49.1133 51.6496 49.1133 51.6688C48.9598 51.151 48.6913 50.7484 48.3076 50.4607C47.9144 50.1731 47.4349 50.0293 46.869 50.0293ZM60.5646 46.8941C61.6867 46.8941 62.6889 47.0906 63.5713 47.4837C64.4536 47.8673 65.1393 48.3994 65.6285 49.0801C66.1176 49.7512 66.3621 50.4991 66.3621 51.3236V60.0964C66.3621 60.1827 66.3334 60.2594 66.2758 60.3265C66.2183 60.384 66.1464 60.4128 66.06 60.4128H63.0246C62.9383 60.4128 62.8663 60.384 62.8088 60.3265C62.7417 60.2594 62.7081 60.1827 62.7081 60.0964V59.2479C62.7081 59.1999 62.6937 59.1664 62.6649 59.1472C62.6266 59.128 62.593 59.1424 62.5642 59.1904C61.8353 60.1395 60.6701 60.6141 59.0684 60.6141C57.7161 60.6141 56.6276 60.2882 55.8028 59.6362C54.9684 58.9842 54.5512 58.0159 54.5512 56.7311C54.5512 55.408 55.0211 54.3773 55.961 53.6391C56.8913 52.9104 58.2196 52.5461 59.946 52.5461H62.5786C62.6649 52.5461 62.7081 52.5029 62.7081 52.4166V51.8414C62.7081 51.2757 62.5355 50.8299 62.1902 50.5039C61.8449 50.1875 61.327 50.0293 60.6365 50.0293C60.109 50.0293 59.6678 50.1252 59.313 50.3169C58.9581 50.5087 58.7279 50.7771 58.6224 51.1223C58.5745 51.314 58.4642 51.4003 58.2916 51.3812L55.1554 50.9641C54.9444 50.9257 54.8485 50.849 54.8677 50.734C54.9348 50.0053 55.2225 49.3486 55.7308 48.7637C56.2391 48.1789 56.9153 47.7234 57.7593 47.3975C58.5937 47.0619 59.5288 46.8941 60.5646 46.8941ZM60.0467 57.896C60.7851 57.896 61.4133 57.6995 61.9312 57.3064C62.4491 56.9133 62.7081 56.4051 62.7081 55.7819V54.8471C62.7081 54.7608 62.6649 54.7177 62.5786 54.7177H60.7228C59.946 54.7177 59.337 54.8663 58.8958 55.1635C58.4546 55.4511 58.234 55.8634 58.234 56.4003C58.234 56.8701 58.3971 57.2345 58.7231 57.4933C59.0492 57.7618 59.4904 57.896 60.0467 57.896ZM77.1949 42.6084C77.1949 42.5221 77.2236 42.4454 77.2812 42.3783C77.3387 42.3208 77.4107 42.292 77.497 42.292H80.5324C80.6187 42.292 80.6907 42.3208 80.7482 42.3783C80.8058 42.4454 80.8345 42.5221 80.8345 42.6084V60.0964C80.8345 60.1827 80.8058 60.2594 80.7482 60.3265C80.6907 60.384 80.6187 60.4128 80.5324 60.4128H77.497C77.4107 60.4128 77.3387 60.384 77.2812 60.3265C77.2236 60.2594 77.1949 60.1827 77.1949 60.0964V59.2479C77.1949 59.1999 77.1757 59.1712 77.1373 59.1616C77.099 59.152 77.0654 59.1616 77.0366 59.1904C76.3077 60.1395 75.3151 60.6141 74.0587 60.6141C72.8503 60.6141 71.8097 60.2786 70.9369 59.6074C70.0642 58.9363 69.436 58.0159 69.0523 56.8462C68.7646 55.9449 68.6208 54.8999 68.6208 53.711C68.6208 52.4837 68.7742 51.4147 69.0811 50.5039C69.4839 49.3917 70.1121 48.5144 70.9657 47.872C71.8193 47.2201 72.8742 46.8941 74.1306 46.8941C75.3774 46.8941 76.3461 47.3255 77.0366 48.1884C77.0654 48.246 77.099 48.2651 77.1373 48.246C77.1757 48.2268 77.1949 48.1932 77.1949 48.1453V42.6084ZM76.6482 56.3716C76.9935 55.7388 77.1661 54.8663 77.1661 53.7541C77.1661 52.6036 76.9743 51.6976 76.5906 51.036C76.1974 50.3649 75.622 50.0293 74.8643 50.0293C74.0491 50.0293 73.4353 50.3649 73.0229 51.036C72.5913 51.7167 72.3755 52.6324 72.3755 53.7829C72.3755 54.8184 72.5578 55.6813 72.9222 56.3716C73.3538 57.1194 73.9916 57.4933 74.8355 57.4933C75.6124 57.4933 76.2166 57.1194 76.6482 56.3716ZM95.3645 52.3879C95.47 53.0398 95.5035 53.7733 95.4652 54.5882C95.4556 54.7992 95.3453 54.9046 95.1343 54.9046H87.1356C87.0301 54.9046 86.9966 54.9478 87.0349 55.0341C87.0829 55.3792 87.174 55.7244 87.3083 56.0696C87.759 57.0283 88.6749 57.5077 90.056 57.5077C91.1589 57.4981 92.0317 57.0523 92.6743 56.1702C92.7414 56.0648 92.8181 56.012 92.9045 56.012C92.962 56.012 93.0243 56.0456 93.0915 56.1127L94.9473 57.9535C95.0336 58.0398 95.0768 58.1165 95.0768 58.1836C95.0768 58.222 95.0432 58.2939 94.976 58.3994C94.4102 59.0993 93.6765 59.6458 92.775 60.0389C91.883 60.4224 90.9 60.6141 89.8258 60.6141C88.3393 60.6141 87.0829 60.2786 86.0567 59.6074C85.0305 58.9363 84.292 57.9967 83.8412 56.7886C83.4768 55.9257 83.2946 54.7944 83.2946 53.3946C83.2946 52.4454 83.424 51.6113 83.683 50.8922C84.0858 49.665 84.7811 48.687 85.769 47.9583C86.7664 47.2393 87.9461 46.8797 89.3079 46.8797C91.0343 46.8797 92.4201 47.3783 93.4655 48.3754C94.5109 49.3725 95.1439 50.71 95.3645 52.3879ZM89.3367 50.0293C88.2434 50.0293 87.5241 50.5374 87.1788 51.5537C87.1117 51.7838 87.0541 52.0619 87.0062 52.3879C87.0062 52.4742 87.0493 52.5173 87.1356 52.5173H91.6097C91.7152 52.5173 91.7488 52.4742 91.7104 52.3879C91.6241 51.8893 91.5809 51.6496 91.5809 51.6688C91.4275 51.151 91.1589 50.7484 90.7753 50.4607C90.3821 50.1731 89.9026 50.0293 89.3367 50.0293ZM104.356 46.9229C104.979 46.9229 105.468 47.0427 105.823 47.2824C105.967 47.3591 106.02 47.4885 105.981 47.6707L105.435 50.6333C105.425 50.8347 105.305 50.8922 105.075 50.8059C104.816 50.7196 104.514 50.6765 104.169 50.6765C104.034 50.6765 103.847 50.6956 103.608 50.734C102.984 50.7819 102.457 51.0072 102.025 51.4099C101.594 51.8222 101.378 52.3639 101.378 53.035V60.0964C101.378 60.1827 101.349 60.2594 101.292 60.3265C101.224 60.384 101.148 60.4128 101.061 60.4128H98.0403C97.954 60.4128 97.8772 60.384 97.8101 60.3265C97.7526 60.2594 97.7238 60.1827 97.7238 60.0964V47.4118C97.7238 47.3255 97.7526 47.2536 97.8101 47.1961C97.8772 47.1386 97.954 47.1098 98.0403 47.1098H101.061C101.148 47.1098 101.224 47.1386 101.292 47.1961C101.349 47.2536 101.378 47.3255 101.378 47.4118V48.4042C101.378 48.4521 101.392 48.4857 101.421 48.5048C101.459 48.524 101.488 48.5144 101.507 48.4761C102.217 47.4406 103.167 46.9229 104.356 46.9229Z" fill="#252530"/>
<path d="M57.1581 81.1835C57.1581 81.2315 57.1389 81.2698 57.1006 81.2986C57.0718 81.337 57.0334 81.3561 56.9855 81.3561H52.0942C52.0463 81.3561 52.0223 81.3801 52.0223 81.428V84.1174C52.0223 84.1653 52.0463 84.1893 52.0942 84.1893H55.3886C55.4366 84.1893 55.4797 84.2037 55.5181 84.2324C55.5469 84.2708 55.5613 84.3139 55.5613 84.3619V85.4549C55.5613 85.5028 55.5469 85.546 55.5181 85.5843C55.4797 85.6131 55.4366 85.6275 55.3886 85.6275H52.0942C52.0463 85.6275 52.0223 85.6514 52.0223 85.6994V89.8125C52.0223 89.8605 52.0031 89.8988 51.9648 89.9276C51.936 89.9659 51.8976 89.9851 51.8497 89.9851H50.5261C50.4782 89.9851 50.4398 89.9659 50.4111 89.9276C50.3727 89.8988 50.3535 89.8605 50.3535 89.8125V80.0905C50.3535 80.0426 50.3727 80.0043 50.4111 79.9755C50.4398 79.9371 50.4782 79.918 50.5261 79.918H56.9855C57.0334 79.918 57.0718 79.9371 57.1006 79.9755C57.1389 80.0043 57.1581 80.0426 57.1581 80.0905V81.1835ZM64.6964 89.9851C64.6005 89.9851 64.5382 89.9372 64.5094 89.8413L64.0347 88.3024C64.0155 88.2641 63.9915 88.2449 63.9627 88.2449H60.1648C60.136 88.2449 60.1121 88.2641 60.0929 88.3024L59.6181 89.8413C59.5894 89.9372 59.527 89.9851 59.4311 89.9851H57.9925C57.935 89.9851 57.8918 89.9659 57.863 89.9276C57.8343 89.8988 57.8295 89.8509 57.8487 89.7837L60.9704 80.0618C60.9992 79.9659 61.0615 79.918 61.1574 79.918H62.9557C63.0516 79.918 63.114 79.9659 63.1427 80.0618L66.2789 89.7837C66.2885 89.8029 66.2933 89.8269 66.2933 89.8557C66.2933 89.9419 66.2405 89.9851 66.135 89.9851H64.6964ZM60.5388 86.8499C60.5293 86.9074 60.5484 86.9362 60.5964 86.9362H63.5168C63.5743 86.9362 63.5935 86.9074 63.5743 86.8499L62.0925 82.0321C62.083 81.9937 62.0686 81.9745 62.0494 81.9745C62.0302 81.9745 62.0158 81.9937 62.0062 82.0321L60.5388 86.8499ZM67.9477 89.9851C67.8997 89.9851 67.8614 89.9659 67.8326 89.9276C67.7942 89.8988 67.775 89.8605 67.775 89.8125V80.0905C67.775 80.0426 67.7942 80.0043 67.8326 79.9755C67.8614 79.9371 67.8997 79.918 67.9477 79.918H69.2712C69.3191 79.918 69.3575 79.9371 69.3863 79.9755C69.4246 80.0043 69.4438 80.0426 69.4438 80.0905V88.475C69.4438 88.523 69.4678 88.5469 69.5158 88.5469H74.3351C74.383 88.5469 74.4214 88.5661 74.4502 88.6045C74.4885 88.6332 74.5077 88.6716 74.5077 88.7195V89.8125C74.5077 89.8605 74.4885 89.8988 74.4502 89.9276C74.4214 89.9659 74.383 89.9851 74.3351 89.9851H67.9477ZM76.1621 89.9851C76.1142 89.9851 76.0758 89.9659 76.047 89.9276C76.0087 89.8988 75.9895 89.8605 75.9895 89.8125V80.0905C75.9895 80.0426 76.0087 80.0043 76.047 79.9755C76.0758 79.9371 76.1142 79.918 76.1621 79.918H77.4856C77.5336 79.918 77.5767 79.9371 77.6151 79.9755C77.6439 80.0043 77.6583 80.0426 77.6583 80.0905V88.475C77.6583 88.523 77.6822 88.5469 77.7302 88.5469H82.5495C82.5975 88.5469 82.6406 88.5661 82.679 88.6045C82.7078 88.6332 82.7222 88.6716 82.7222 88.7195V89.8125C82.7222 89.8605 82.7078 89.8988 82.679 89.9276C82.6406 89.9659 82.5975 89.9851 82.5495 89.9851H76.1621Z" fill="white"/>
<path d="M49.8568 109.093C49.4623 108.621 48.8977 108.385 48.163 108.385C47.1576 108.385 46.4731 108.76 46.1096 109.51C45.9007 109.943 45.777 110.632 45.7383 111.575H42.5248C42.5789 110.145 42.838 108.988 43.3021 108.107C44.1838 106.428 45.7499 105.589 48.0006 105.589C49.7794 105.589 51.1948 106.084 52.2466 107.074C53.2985 108.056 53.8244 109.36 53.8244 110.984C53.8244 112.229 53.4532 113.335 52.7107 114.302C52.2234 114.944 51.423 115.659 50.3092 116.448L48.9867 117.388C48.1591 117.975 47.5907 118.401 47.2813 118.664C46.9797 118.927 46.7244 119.232 46.5156 119.58H53.8592V122.492H42.3392C42.3701 121.286 42.6292 120.184 43.1164 119.186C43.5882 118.064 44.702 116.877 46.4576 115.624C47.9812 114.534 48.9673 113.753 49.4159 113.281C50.1043 112.546 50.4484 111.742 50.4484 110.868C50.4484 110.156 50.2512 109.565 49.8568 109.093ZM61.7365 122.91C59.5941 122.91 58.0898 122.16 57.2236 120.659C56.3651 119.159 55.9358 117.02 55.9358 114.244C55.9358 111.467 56.3651 109.325 57.2236 107.817C58.0898 106.308 59.5941 105.554 61.7365 105.554C63.8788 105.554 65.3831 106.308 66.2494 107.817C67.1079 109.325 67.5371 111.467 67.5371 114.244C67.5371 117.02 67.104 119.159 66.2378 120.659C65.3793 122.16 63.8788 122.91 61.7365 122.91ZM63.6739 118.675C63.9755 117.654 64.1263 116.177 64.1263 114.244C64.1263 112.217 63.9717 110.717 63.6623 109.742C63.3607 108.768 62.7187 108.281 61.7365 108.281C60.7542 108.281 60.1046 108.768 59.7875 109.742C59.4704 110.717 59.3118 112.217 59.3118 114.244C59.3118 116.177 59.4704 117.658 59.7875 118.687C60.1046 119.708 60.7542 120.218 61.7365 120.218C62.7187 120.218 63.3645 119.704 63.6739 118.675ZM77.0501 109.093C76.6557 108.621 76.0911 108.385 75.3564 108.385C74.3509 108.385 73.6664 108.76 73.3029 109.51C73.0941 109.943 72.9704 110.632 72.9317 111.575H69.7181C69.7723 110.145 70.0314 108.988 70.4954 108.107C71.3771 106.428 72.9433 105.589 75.1939 105.589C76.9728 105.589 78.3882 106.084 79.44 107.074C80.4919 108.056 81.0178 109.36 81.0178 110.984C81.0178 112.229 80.6465 113.335 79.9041 114.302C79.4168 114.944 78.6163 115.659 77.5026 116.448L76.1801 117.388C75.3525 117.975 74.784 118.401 74.4747 118.664C74.173 118.927 73.9178 119.232 73.709 119.58H81.0526V122.492H69.5325C69.5635 121.286 69.8226 120.184 70.3098 119.186C70.7816 118.064 71.8953 116.877 73.651 115.624C75.1746 114.534 76.1607 113.753 76.6093 113.281C77.2976 112.546 77.6418 111.742 77.6418 110.868C77.6418 110.156 77.4446 109.565 77.0501 109.093ZM86.9344 109.023C86.5632 109.518 86.3853 110.179 86.4008 111.007H83.3148C83.3458 110.172 83.4888 109.379 83.7441 108.629C84.0148 107.971 84.4402 107.364 85.0202 106.807C85.4533 106.413 85.9677 106.111 86.5632 105.902C87.1587 105.694 87.8896 105.589 88.7558 105.589C90.3645 105.589 91.66 106.007 92.6422 106.842C93.6322 107.67 94.1272 108.783 94.1272 110.183C94.1272 111.173 93.8333 112.009 93.2455 112.689C92.8743 113.114 92.4876 113.405 92.0854 113.559C92.387 113.559 92.8201 113.818 93.3847 114.336C94.2278 115.118 94.6493 116.185 94.6493 117.538C94.6493 118.962 94.1543 120.214 93.1643 121.297C92.1821 122.372 90.7242 122.91 88.7906 122.91C86.4085 122.91 84.7534 122.133 83.8253 120.578C83.338 119.75 83.0673 118.668 83.0132 117.33H86.2615C86.2615 118.002 86.3698 118.559 86.5864 119C86.9886 119.812 87.7194 120.218 88.779 120.218C89.4287 120.218 89.9933 119.998 90.4728 119.557C90.9601 119.108 91.2037 118.467 91.2037 117.631C91.2037 116.525 90.7551 115.787 89.8579 115.415C89.3475 115.207 88.5431 115.102 87.4449 115.102V112.736C88.5199 112.72 89.2701 112.616 89.6955 112.422C90.4303 112.097 90.7976 111.44 90.7976 110.45C90.7976 109.808 90.6082 109.286 90.2292 108.884C89.8579 108.482 89.332 108.281 88.6514 108.281C87.8703 108.281 87.2979 108.528 86.9344 109.023Z" fill="#252530"/>
</g>
<defs>
<clipPath id="clip0_464_16836">
<rect width="133.647" height="150" fill="white" transform="translate(0.0151367)"/>
</clipPath>
</defs>
</svg>
