<svg width="134" height="150" viewBox="0 0 134 150" fill="none" xmlns="http://www.w3.org/2000/svg">
<g clip-path="url(#clip0_464_16845)">
<path d="M11.1309 116.779L67.9558 145.686L122.623 116.779V3.73926H11.1309V116.779Z" fill="white"/>
<path d="M123.779 4.17041L9.98486 118.792L68.9677 147.986L123.779 119.942V4.17041Z" fill="#F2F3F2"/>
<path d="M7.38818 41.419V119.223L9.40223 120.23L66.2272 149.137L67.9535 150L69.6799 149.137L124.491 120.23L126.505 119.223V0H7.38818V41.419ZM11.1286 117.066V3.73921H122.764V117.066L67.9535 145.973L11.1286 117.066Z" fill="#DCDEDC"/>
<path d="M66.9493 5.60882C67.5247 5.60882 68.1002 5.60882 68.6756 5.75264L66.9493 9.0604C64.3598 8.91659 62.058 10.93 61.9142 13.5187C61.7703 16.1074 63.7844 18.4084 66.3739 18.5523H66.9493C68.1002 18.5523 69.2511 18.1208 70.1142 17.4017L71.9844 20.5657C70.5458 21.5724 68.8195 22.1476 66.9493 22.1476C62.3458 22.2915 58.4615 18.8399 58.3177 14.2378C58.1738 9.63567 61.6265 5.75264 66.23 5.60882H66.9493V5.60882ZM72.8476 12.6558L75.0055 16.2512L72.8476 19.7028L70.8335 16.2512H66.6616L68.8195 12.6558H72.8476ZM69.3949 11.3615C69.3949 10.7862 69.5388 10.2109 69.8265 9.77948C70.1142 9.34803 70.6897 8.91659 71.1213 8.62895L71.409 8.48514C71.9844 8.19751 72.1283 8.05369 72.1283 7.76606C72.1283 7.47843 71.6967 7.19079 71.409 7.19079C70.8335 7.19079 70.4019 7.47843 70.1142 8.05369L69.3949 7.33461C69.5388 7.04698 69.8265 6.75935 70.1142 6.47172C70.5458 6.18408 70.9774 6.18408 71.409 6.18408C71.8406 6.18408 72.416 6.3279 72.7037 6.61553C72.9914 6.90316 73.2792 7.33461 73.2792 7.76606C73.2792 8.48514 72.8476 9.0604 71.9844 9.34803L71.5528 9.63566C71.1213 9.9233 70.8335 10.0671 70.6897 10.4986H73.2792V11.5053L69.3949 11.3615V11.3615ZM66.9493 29.3384L80.6161 21.5724V0H53.1387V21.4286L66.9493 29.3384Z" fill="#FF492C"/>
<path d="M129.242 74.3096H4.65823L0.0546875 84.3767L4.65823 94.4438H129.242L133.701 84.3767L129.242 74.3096Z" fill="#FF492C"/>
<path d="M52.2825 116.383C51.9866 116.029 51.5632 115.852 51.0121 115.852C50.2581 115.852 49.7447 116.133 49.4721 116.696C49.3155 117.021 49.2226 117.537 49.1936 118.245H46.7835C46.8241 117.171 47.0184 116.304 47.3664 115.643C48.0277 114.384 49.2023 113.755 50.8903 113.755C52.2245 113.755 53.286 114.126 54.0749 114.869C54.8638 115.605 55.2582 116.583 55.2582 117.801C55.2582 118.735 54.9798 119.564 54.4229 120.289C54.0575 120.771 53.4571 121.307 52.6218 121.899L51.6299 122.604C51.0092 123.045 50.5829 123.364 50.3509 123.561C50.1246 123.758 49.9332 123.987 49.7766 124.248H55.2843V126.432H46.6443C46.6675 125.527 46.8618 124.701 47.2272 123.952C47.5811 123.111 48.4164 122.221 49.7331 121.281C50.8758 120.463 51.6154 119.877 51.9518 119.524C52.4681 118.973 52.7262 118.369 52.7262 117.714C52.7262 117.18 52.5783 116.736 52.2825 116.383ZM61.2851 126.745C59.6783 126.745 58.5501 126.183 57.9004 125.057C57.2565 123.932 56.9346 122.328 56.9346 120.246C56.9346 118.163 57.2565 116.557 57.9004 115.425C58.5501 114.294 59.6783 113.729 61.2851 113.729C62.8918 113.729 64.0201 114.294 64.6697 115.425C65.3136 116.557 65.6355 118.163 65.6355 120.246C65.6355 122.328 65.3107 123.932 64.661 125.057C64.0172 126.183 62.8918 126.745 61.2851 126.745ZM62.7381 123.57C62.9643 122.804 63.0775 121.696 63.0775 120.246C63.0775 118.726 62.9614 117.601 62.7294 116.87C62.5032 116.139 62.0217 115.773 61.2851 115.773C60.5484 115.773 60.0611 116.139 59.8233 116.87C59.5855 117.601 59.4666 118.726 59.4666 120.246C59.4666 121.696 59.5855 122.807 59.8233 123.578C60.0611 124.344 60.5484 124.727 61.2851 124.727C62.0217 124.727 62.5061 124.341 62.7381 123.57ZM72.8631 116.383C72.5673 116.029 72.1438 115.852 71.5928 115.852C70.8387 115.852 70.3253 116.133 70.0527 116.696C69.8961 117.021 69.8033 117.537 69.7743 118.245H67.3641C67.4047 117.171 67.599 116.304 67.9471 115.643C68.6084 114.384 69.783 113.755 71.471 113.755C72.8051 113.755 73.8666 114.126 74.6555 114.869C75.4444 115.605 75.8388 116.583 75.8388 117.801C75.8388 118.735 75.5604 119.564 75.0036 120.289C74.6381 120.771 74.0378 121.307 73.2025 121.899L72.2106 122.604C71.5899 123.045 71.1635 123.364 70.9315 123.561C70.7053 123.758 70.5139 123.987 70.3572 124.248H75.865V126.432H67.2249C67.2481 125.527 67.4424 124.701 67.8079 123.952C68.1617 123.111 68.997 122.221 70.3137 121.281C71.4565 120.463 72.196 119.877 72.5325 119.524C73.0487 118.973 73.3069 118.369 73.3069 117.714C73.3069 117.18 73.159 116.736 72.8631 116.383ZM80.3691 116.33C80.0907 116.702 79.9573 117.198 79.9689 117.818H77.6544C77.6776 117.192 77.785 116.597 77.9764 116.034C78.1794 115.541 78.4984 115.086 78.9335 114.668C79.2583 114.373 79.6441 114.146 80.0907 113.99C80.5374 113.833 81.0855 113.755 81.7352 113.755C82.9417 113.755 83.9133 114.068 84.65 114.695C85.3925 115.315 85.7637 116.151 85.7637 117.2C85.7637 117.943 85.5433 118.569 85.1025 119.08C84.824 119.399 84.534 119.616 84.2324 119.732C84.4586 119.732 84.7834 119.927 85.2069 120.315C85.8391 120.901 86.1553 121.702 86.1553 122.717C86.1553 123.784 85.784 124.724 85.0416 125.536C84.3049 126.342 83.2115 126.745 81.7613 126.745C79.9747 126.745 78.7334 126.162 78.0373 124.996C77.6718 124.376 77.4688 123.564 77.4282 122.56H79.8645C79.8645 123.065 79.9457 123.483 80.1081 123.813C80.4097 124.422 80.9579 124.727 81.7526 124.727C82.2398 124.727 82.6633 124.561 83.0229 124.231C83.3884 123.894 83.5711 123.413 83.5711 122.786C83.5711 121.957 83.2347 121.403 82.5618 121.125C82.1789 120.968 81.5757 120.89 80.752 120.89V119.115C81.5583 119.103 82.1209 119.025 82.44 118.88C82.991 118.636 83.2666 118.143 83.2666 117.401C83.2666 116.919 83.1244 116.528 82.8402 116.226C82.5618 115.924 82.1673 115.773 81.6569 115.773C81.071 115.773 80.6418 115.959 80.3691 116.33Z" fill="#252530"/>
<path d="M20.7885 106.522H18.44V101.34H20.9573C21.5924 101.35 22.0424 101.534 22.3073 101.892C22.4667 102.113 22.5464 102.376 22.5464 102.683C22.5464 103 22.4667 103.254 22.3073 103.446C22.2182 103.554 22.087 103.652 21.9135 103.742C22.1784 103.838 22.3776 103.99 22.5112 104.199C22.6471 104.407 22.7151 104.66 22.7151 104.958C22.7151 105.265 22.6378 105.54 22.4831 105.784C22.3846 105.946 22.2616 106.082 22.1139 106.192C21.9475 106.319 21.7506 106.405 21.5233 106.452C21.2983 106.499 21.0534 106.522 20.7885 106.522ZM20.7639 104.241H19.4737V105.622H20.7463C20.9737 105.622 21.1506 105.592 21.2772 105.531C21.5069 105.419 21.6217 105.203 21.6217 104.884C21.6217 104.615 21.5104 104.429 21.2877 104.329C21.1635 104.272 20.9889 104.243 20.7639 104.241ZM21.3018 103.253C21.4424 103.169 21.5128 103.017 21.5128 102.799C21.5128 102.558 21.419 102.399 21.2315 102.321C21.0698 102.267 20.8635 102.24 20.6127 102.24H19.4737V103.383H20.7463C20.9737 103.383 21.1588 103.34 21.3018 103.253ZM27.4128 104.258H24.8955V105.591H27.7643V106.522H23.8373V101.34H27.6378V102.258H24.8955V103.358H27.4128V104.258ZM30.669 105.774C30.9245 105.774 31.1319 105.745 31.2913 105.689C31.5936 105.581 31.7448 105.381 31.7448 105.088C31.7448 104.917 31.6698 104.785 31.5198 104.691C31.3698 104.599 31.1342 104.519 30.8131 104.448L30.2647 104.325C29.7256 104.203 29.353 104.071 29.1467 103.928C28.7975 103.689 28.6229 103.315 28.6229 102.806C28.6229 102.342 28.7916 101.957 29.1291 101.65C29.4666 101.343 29.9623 101.189 30.6163 101.189C31.1624 101.189 31.6276 101.334 32.012 101.625C32.3987 101.913 32.6014 102.333 32.6202 102.884H31.5795C31.5608 102.572 31.4249 102.351 31.1717 102.219C31.003 102.133 30.7932 102.089 30.5424 102.089C30.2635 102.089 30.0409 102.145 29.8744 102.258C29.708 102.37 29.6248 102.527 29.6248 102.729C29.6248 102.914 29.7069 103.052 29.8709 103.144C29.9764 103.205 30.2014 103.276 30.5459 103.358L31.4389 103.573C31.8303 103.667 32.1257 103.792 32.3249 103.949C32.6343 104.193 32.7889 104.545 32.7889 105.007C32.7889 105.481 32.6073 105.874 32.244 106.188C31.8831 106.5 31.3721 106.656 30.7112 106.656C30.0362 106.656 29.5053 106.503 29.1186 106.196C28.7318 105.886 28.5385 105.462 28.5385 104.923H29.5721C29.6049 105.16 29.6694 105.337 29.7655 105.454C29.9412 105.667 30.2424 105.774 30.669 105.774ZM37.5358 101.34V102.258H35.9854V106.522H34.8955V102.258H33.3381V101.34H37.5358ZM42.417 105.774C42.6725 105.774 42.8799 105.745 43.0393 105.689C43.3416 105.581 43.4928 105.381 43.4928 105.088C43.4928 104.917 43.4178 104.785 43.2678 104.691C43.1178 104.599 42.8822 104.519 42.5611 104.448L42.0127 104.325C41.4736 104.203 41.1009 104.071 40.8947 103.928C40.5455 103.689 40.3709 103.315 40.3709 102.806C40.3709 102.342 40.5396 101.957 40.8771 101.65C41.2146 101.343 41.7103 101.189 42.3642 101.189C42.9103 101.189 43.3756 101.334 43.76 101.625C44.1467 101.913 44.3494 102.333 44.3682 102.884H43.3275C43.3088 102.572 43.1729 102.351 42.9197 102.219C42.751 102.133 42.5412 102.089 42.2904 102.089C42.0115 102.089 41.7888 102.145 41.6224 102.258C41.456 102.37 41.3728 102.527 41.3728 102.729C41.3728 102.914 41.4549 103.052 41.6189 103.144C41.7244 103.205 41.9494 103.276 42.2939 103.358L43.1869 103.573C43.5783 103.667 43.8736 103.792 44.0729 103.949C44.3822 104.193 44.5369 104.545 44.5369 105.007C44.5369 105.481 44.3553 105.874 43.992 106.188C43.6311 106.5 43.1201 106.656 42.4592 106.656C41.7842 106.656 41.2533 106.503 40.8666 106.196C40.4798 105.886 40.2865 105.462 40.2865 104.923H41.3201C41.3529 105.16 41.4174 105.337 41.5135 105.454C41.6892 105.667 41.9904 105.774 42.417 105.774ZM47.8107 106.667C47.0701 106.667 46.5041 106.465 46.1127 106.062C45.5877 105.567 45.3252 104.855 45.3252 103.924C45.3252 102.975 45.5877 102.263 46.1127 101.787C46.5041 101.384 47.0701 101.182 47.8107 101.182C48.5514 101.182 49.1174 101.384 49.5088 101.787C50.0315 102.263 50.2928 102.975 50.2928 103.924C50.2928 104.855 50.0315 105.567 49.5088 106.062C49.1174 106.465 48.5514 106.667 47.8107 106.667ZM48.8338 105.274C49.0846 104.958 49.21 104.508 49.21 103.924C49.21 103.343 49.0834 102.894 48.8303 102.578C48.5795 102.259 48.2397 102.1 47.8107 102.1C47.3818 102.1 47.0396 102.258 46.7842 102.574C46.5287 102.891 46.401 103.341 46.401 103.924C46.401 104.508 46.5287 104.958 46.7842 105.274C47.0396 105.591 47.3818 105.749 47.8107 105.749C48.2397 105.749 48.5807 105.591 48.8338 105.274ZM54.9764 102.258H52.3783V103.45H54.653V104.35H52.3783V106.522H51.3025V101.347H54.9764V102.258ZM59.6494 101.34V102.258H58.099V106.522H57.0092V102.258H55.4517V101.34H59.6494ZM65.5073 101.34H66.6077L65.1487 106.522H64.1151L63.4893 103.492L63.3064 102.49L63.1236 103.492L62.4978 106.522H61.4924L60.0228 101.34H61.1724L61.858 104.308L62.0056 105.134L62.1568 104.325L62.7404 101.34H63.883L64.4983 104.308L64.6565 105.134L64.8147 104.339L65.5073 101.34ZM70.0854 105.457H68.1764L67.8178 106.522H66.6857L68.535 101.34H69.7584L71.5936 106.522H70.4194L70.0854 105.457ZM69.783 104.564L69.1361 102.525L68.4682 104.564H69.783ZM74.6354 104.49H73.5174V106.522H72.4592V101.34H75.001C75.3643 101.347 75.6432 101.392 75.8377 101.474C76.0346 101.556 76.201 101.677 76.337 101.836C76.4495 101.967 76.5385 102.113 76.6042 102.272C76.6698 102.431 76.7026 102.613 76.7026 102.817C76.7026 103.063 76.6405 103.306 76.5163 103.545C76.392 103.781 76.187 103.949 75.901 104.047C76.1401 104.144 76.3088 104.281 76.4073 104.459C76.5081 104.635 76.5585 104.904 76.5585 105.267V105.615C76.5585 105.852 76.5678 106.013 76.5866 106.097C76.6147 106.231 76.6803 106.329 76.7835 106.392V106.522H75.5916C75.5588 106.408 75.5354 106.315 75.5213 106.245C75.4932 106.099 75.478 105.951 75.4756 105.798L75.4686 105.317C75.4639 104.986 75.403 104.766 75.2858 104.656C75.1709 104.545 74.9541 104.49 74.6354 104.49ZM75.2928 103.548C75.5084 103.45 75.6162 103.255 75.6162 102.965C75.6162 102.651 75.5119 102.44 75.3034 102.332C75.1862 102.271 75.0104 102.24 74.776 102.24H73.5174V103.633H74.7444C74.9881 103.633 75.1709 103.604 75.2928 103.548ZM81.4249 104.258H78.9076V105.591H81.7764V106.522H77.8494V101.34H81.6499V102.258H78.9076V103.358H81.4249V104.258ZM87.751 105.457H85.842L85.4834 106.522H84.3513L86.2006 101.34H87.424L89.2592 106.522H88.085L87.751 105.457ZM87.4486 104.564L86.8017 102.525L86.1338 104.564H87.4486ZM94.7479 101.34H95.8483L94.3893 106.522H93.3557L92.7299 103.492L92.5471 102.49L92.3642 103.492L91.7385 106.522H90.733L89.2634 101.34H90.413L91.0986 104.308L91.2463 105.134L91.3974 104.325L91.981 101.34H93.1236L93.7389 104.308L93.8971 105.134L94.0553 104.339L94.7479 101.34ZM99.326 105.457H97.417L97.0584 106.522H95.9263L97.7756 101.34H98.999L100.834 106.522H99.66L99.326 105.457ZM99.0236 104.564L98.3768 102.525L97.7088 104.564H99.0236ZM103.876 104.49H102.758V106.522H101.7V101.34H104.242C104.605 101.347 104.884 101.392 105.078 101.474C105.275 101.556 105.442 101.677 105.578 101.836C105.69 101.967 105.779 102.113 105.845 102.272C105.91 102.431 105.943 102.613 105.943 102.817C105.943 103.063 105.881 103.306 105.757 103.545C105.633 103.781 105.428 103.949 105.142 104.047C105.381 104.144 105.549 104.281 105.648 104.459C105.749 104.635 105.799 104.904 105.799 105.267V105.615C105.799 105.852 105.808 106.013 105.827 106.097C105.855 106.231 105.921 106.329 106.024 106.392V106.522H104.832C104.799 106.408 104.776 106.315 104.762 106.245C104.734 106.099 104.719 105.951 104.716 105.798L104.709 105.317C104.705 104.986 104.644 104.766 104.526 104.656C104.412 104.545 104.195 104.49 103.876 104.49ZM104.533 103.548C104.749 103.45 104.857 103.255 104.857 102.965C104.857 102.651 104.753 102.44 104.544 102.332C104.427 102.271 104.251 102.24 104.017 102.24H102.758V103.633H103.985C104.229 103.633 104.412 103.604 104.533 103.548ZM109.291 106.522H107.058V101.34H109.291C109.612 101.345 109.879 101.383 110.092 101.453C110.456 101.572 110.75 101.792 110.975 102.11C111.155 102.368 111.278 102.647 111.344 102.947C111.41 103.247 111.442 103.533 111.442 103.805C111.442 104.494 111.304 105.078 111.028 105.556C110.653 106.2 110.074 106.522 109.291 106.522ZM110.096 102.662C109.93 102.381 109.6 102.24 109.108 102.24H108.11V105.622H109.108C109.619 105.622 109.975 105.37 110.177 104.867C110.287 104.59 110.342 104.261 110.342 103.879C110.342 103.351 110.26 102.946 110.096 102.662ZM114.322 105.774C114.578 105.774 114.785 105.745 114.945 105.689C115.247 105.581 115.398 105.381 115.398 105.088C115.398 104.917 115.323 104.785 115.173 104.691C115.023 104.599 114.788 104.519 114.467 104.448L113.918 104.325C113.379 104.203 113.006 104.071 112.8 103.928C112.451 103.689 112.276 103.315 112.276 102.806C112.276 102.342 112.445 101.957 112.783 101.65C113.12 101.343 113.616 101.189 114.27 101.189C114.816 101.189 115.281 101.334 115.665 101.625C116.052 101.913 116.255 102.333 116.274 102.884H115.233C115.214 102.572 115.078 102.351 114.825 102.219C114.656 102.133 114.447 102.089 114.196 102.089C113.917 102.089 113.694 102.145 113.528 102.258C113.362 102.37 113.278 102.527 113.278 102.729C113.278 102.914 113.36 103.052 113.524 103.144C113.63 103.205 113.855 103.276 114.199 103.358L115.092 103.573C115.484 103.667 115.779 103.792 115.978 103.949C116.288 104.193 116.442 104.545 116.442 105.007C116.442 105.481 116.261 105.874 115.898 106.188C115.537 106.5 115.026 106.656 114.365 106.656C113.69 106.656 113.159 106.503 112.772 106.196C112.385 105.886 112.192 105.462 112.192 104.923H113.226C113.258 105.16 113.323 105.337 113.419 105.454C113.595 105.667 113.896 105.774 114.322 105.774Z" fill="#252530"/>
<path d="M42.5028 41.5389V44.5668H37.3867V58.6392H33.7903V44.5668H28.6509V41.5389H42.5028ZM53.4892 47.5948C54.5565 48.9328 55.0902 50.5144 55.0902 52.3397C55.0902 54.1959 54.5565 55.7852 53.4892 57.1078C52.4219 58.4226 50.8016 59.08 48.6283 59.08C46.455 59.08 44.8347 58.4226 43.7674 57.1078C42.7 55.7852 42.1664 54.1959 42.1664 52.3397C42.1664 50.5144 42.7 48.9328 43.7674 47.5948C44.8347 46.2567 46.455 45.5877 48.6283 45.5877C50.8016 45.5877 52.4219 46.2567 53.4892 47.5948ZM48.6167 48.3836C47.6499 48.3836 46.9036 48.7278 46.3776 49.4162C45.8595 50.0968 45.6004 51.0713 45.6004 52.3397C45.6004 53.6081 45.8595 54.5865 46.3776 55.2748C46.9036 55.9631 47.6499 56.3073 48.6167 56.3073C49.5835 56.3073 50.3259 55.9631 50.8441 55.2748C51.3623 54.5865 51.6214 53.6081 51.6214 52.3397C51.6214 51.0713 51.3623 50.0968 50.8441 49.4162C50.3259 48.7278 49.5835 48.3836 48.6167 48.3836ZM68.4316 47.3511C69.4526 48.4416 69.963 50.0426 69.963 52.1541C69.963 54.3815 69.4603 56.0791 68.4548 57.247C67.4571 58.4149 66.1694 58.9988 64.5916 58.9988C63.5862 58.9988 62.7509 58.7474 62.0858 58.2447C61.7222 57.9663 61.3665 57.5602 61.0184 57.0266V63.6161H57.7469V45.9938H60.914V47.8616C61.2698 47.3125 61.6488 46.8793 62.0509 46.5622C62.7857 45.9976 63.6597 45.7154 64.6728 45.7154C66.1501 45.7154 67.403 46.2606 68.4316 47.3511ZM66.5522 52.3165C66.5522 51.342 66.3279 50.4796 65.8794 49.7294C65.4385 48.9792 64.7192 48.6041 63.7215 48.6041C62.5227 48.6041 61.699 49.1725 61.2505 50.3095C61.0184 50.9127 60.9024 51.6784 60.9024 52.6065C60.9024 54.076 61.293 55.1085 62.0742 55.704C62.5382 56.0521 63.0873 56.2261 63.7215 56.2261C64.6419 56.2261 65.3418 55.8703 65.8214 55.1588C66.3086 54.4472 66.5522 53.4998 66.5522 52.3165ZM84.511 50.2862C84.1088 50.2862 83.7608 50.3365 83.4669 50.4371C82.9487 50.6227 82.5581 50.9669 82.2952 51.4696L79.3252 51.3304L80.5086 42.0378H89.778V44.8453H82.8984L82.2952 48.5229C82.8056 48.1903 83.2039 47.9699 83.4901 47.8616C83.9696 47.6837 84.5535 47.5948 85.2419 47.5948C86.634 47.5948 87.8483 48.0627 88.8847 48.9985C89.9211 49.9343 90.4392 51.2956 90.4392 53.0822C90.4392 54.6367 89.9404 56.025 88.9427 57.247C87.945 58.469 86.4523 59.08 84.4646 59.08C82.8636 59.08 81.5488 58.6508 80.5202 57.7923C79.4915 56.9338 78.9192 55.7156 78.8032 54.1379H82.0979C82.2294 54.8571 82.4808 55.414 82.852 55.8085C83.2233 56.1952 83.7647 56.3885 84.4762 56.3885C85.296 56.3885 85.9186 56.1024 86.344 55.53C86.7771 54.95 86.9937 54.2229 86.9937 53.349C86.9937 52.4905 86.7926 51.7673 86.3904 51.1795C85.9882 50.584 85.3618 50.2862 84.511 50.2862ZM98.3165 59.0568C96.1741 59.0568 94.6698 58.3066 93.8036 56.8062C92.9451 55.3057 92.5159 53.1672 92.5159 50.3907C92.5159 47.6141 92.9451 45.4717 93.8036 43.9636C94.6698 42.4554 96.1741 41.7013 98.3165 41.7013C100.459 41.7013 101.963 42.4554 102.829 43.9636C103.688 45.4717 104.117 47.6141 104.117 50.3907C104.117 53.1672 103.684 55.3057 102.818 56.8062C101.959 58.3066 100.459 59.0568 98.3165 59.0568ZM100.254 54.8223C100.556 53.8014 100.706 52.3242 100.706 50.3907C100.706 48.3643 100.552 46.8639 100.242 45.8894C99.9407 44.9149 99.2987 44.4276 98.3165 44.4276C97.3343 44.4276 96.6846 44.9149 96.3675 45.8894C96.0504 46.8639 95.8918 48.3643 95.8918 50.3907C95.8918 52.3242 96.0504 53.8053 96.3675 54.8339C96.6846 55.8549 97.3343 56.3653 98.3165 56.3653C99.2987 56.3653 99.9445 55.851 100.254 54.8223Z" fill="#252530"/>
<path d="M20.1766 89.5156C18.8018 89.5156 17.7512 89.1415 17.0247 88.3932C16.0502 87.4752 15.5629 86.1527 15.5629 84.4255C15.5629 82.6636 16.0502 81.3411 17.0247 80.4579C17.7512 79.7096 18.8018 79.3355 20.1766 79.3355C21.5513 79.3355 22.602 79.7096 23.3285 80.4579C24.2987 81.3411 24.7837 82.6636 24.7837 84.4255C24.7837 86.1527 24.2987 87.4752 23.3285 88.3932C22.602 89.1415 21.5513 89.5156 20.1766 89.5156ZM22.0756 86.9314C22.5411 86.3441 22.7738 85.5088 22.7738 84.4255C22.7738 83.3466 22.5389 82.5135 22.069 81.9262C21.6035 81.3345 20.9727 81.0387 20.1766 81.0387C19.3804 81.0387 18.7453 81.3324 18.2711 81.9197C17.7969 82.507 17.5598 83.3423 17.5598 84.4255C17.5598 85.5088 17.7969 86.3441 18.2711 86.9314C18.7453 87.5187 19.3804 87.8124 20.1766 87.8124C20.9727 87.8124 21.6057 87.5187 22.0756 86.9314ZM29.8796 79.5704V81.0844C29.7752 81.0713 29.599 81.0626 29.351 81.0583C29.1074 81.0496 28.9377 81.104 28.842 81.2214C28.7506 81.3345 28.705 81.4607 28.705 81.5999V82.2003H29.9253V83.5119H28.705V89.248H26.8517V83.5119H25.8141V82.2003H26.8321V81.7435C26.8321 80.9821 26.9604 80.4579 27.2171 80.1708C27.4868 79.7444 28.1372 79.5313 29.1683 79.5313C29.2858 79.5313 29.3923 79.5356 29.488 79.5443C29.5838 79.5487 29.7143 79.5574 29.8796 79.5704ZM33.5724 89.248H31.7191V83.5119H30.6815V82.2003H31.6995V81.7435C31.6995 80.9865 31.867 80.4231 32.202 80.0533C32.5022 79.7053 33.1134 79.5313 34.0357 79.5313C34.1489 79.5313 34.2641 79.5356 34.3816 79.5443C34.4991 79.553 34.6209 79.5617 34.747 79.5704V81.0844C34.66 81.08 34.5752 81.0779 34.4925 81.0779C34.4099 81.0735 34.3098 81.0713 34.1924 81.0713C33.9009 81.0713 33.7225 81.1518 33.6573 81.3128C33.592 81.4737 33.5637 81.7261 33.5724 82.0698V82.2003H34.7927V83.5119H33.5724V89.248ZM37.7489 82.1676V89.248H35.8956V82.1676H37.7489ZM35.8956 81.2671V79.5704H37.7162V81.2671H35.8956ZM46.0619 84.6866H44.1564C44.1216 84.4212 44.0324 84.1819 43.8888 83.9687C43.68 83.6816 43.3559 83.538 42.9165 83.538C42.29 83.538 41.8615 83.8491 41.6309 84.4712C41.5091 84.8019 41.4482 85.2413 41.4482 85.7894C41.4482 86.3115 41.5091 86.7313 41.6309 87.0489C41.8528 87.6405 42.2705 87.9364 42.8839 87.9364C43.3189 87.9364 43.6278 87.8189 43.8105 87.584C43.9933 87.3491 44.1042 87.0445 44.1433 86.6704H46.0423C45.9988 87.236 45.7944 87.7711 45.4289 88.2757C44.8459 89.0893 43.9824 89.496 42.8382 89.496C41.694 89.496 40.8522 89.1567 40.3128 88.478C39.7733 87.7993 39.5036 86.9184 39.5036 85.8351C39.5036 84.6126 39.8016 83.662 40.3976 82.9834C40.9936 82.3047 41.8158 81.9654 42.8643 81.9654C43.7562 81.9654 44.4849 82.1655 45.0504 82.5657C45.6203 82.966 45.9575 83.6729 46.0619 84.6866ZM53.8072 87.1598C53.7593 87.5818 53.5396 88.0103 53.1481 88.4454C52.539 89.1371 51.6863 89.483 50.59 89.483C49.6851 89.483 48.8868 89.1915 48.1951 88.6085C47.5034 88.0256 47.1575 87.0772 47.1575 85.7633C47.1575 84.5321 47.4686 83.5881 48.0907 82.9312C48.7171 82.2742 49.5285 81.9458 50.5248 81.9458C51.1164 81.9458 51.6494 82.0567 52.1236 82.2786C52.5978 82.5005 52.9893 82.8507 53.2982 83.3292C53.5766 83.7512 53.7572 84.2407 53.8398 84.7975C53.8877 85.1238 53.9073 85.5936 53.8986 86.2071H49.0304C49.0565 86.9205 49.2805 87.4208 49.7025 87.708C49.9592 87.8863 50.2681 87.9755 50.6292 87.9755C51.012 87.9755 51.3231 87.8668 51.5624 87.6492C51.6929 87.5318 51.8082 87.3686 51.9082 87.1598H53.8072ZM51.9669 84.9802C51.9365 84.4886 51.7864 84.1167 51.5167 83.8643C51.2513 83.6077 50.9207 83.4793 50.5248 83.4793C50.0941 83.4793 49.7591 83.6142 49.5198 83.8839C49.2849 84.1536 49.137 84.5191 49.0761 84.9802H51.9669ZM63.8553 85.7894H61.8128V89.248H59.8159V79.6291H64.0054C64.9712 79.6291 65.7413 79.8771 66.3155 80.3731C66.8898 80.869 67.1769 81.6369 67.1769 82.6767C67.1769 83.8121 66.8898 84.6148 66.3155 85.0846C65.7413 85.5545 64.9212 85.7894 63.8553 85.7894ZM64.795 83.786C65.0561 83.5555 65.1866 83.19 65.1866 82.6897C65.1866 82.1894 65.0539 81.8327 64.7885 81.6195C64.5275 81.4063 64.1599 81.2997 63.6857 81.2997H61.8128V84.1319H63.6857C64.1599 84.1319 64.5297 84.0166 64.795 83.786ZM72.4816 83.8513C71.7333 83.8513 71.2308 84.0949 70.9742 84.5822C70.8306 84.8562 70.7588 85.2782 70.7588 85.8482V89.248H68.8859V82.135H70.6609V83.3749C70.9481 82.9007 71.1982 82.5766 71.4114 82.4026C71.7594 82.1111 72.2119 81.9654 72.7687 81.9654C72.8035 81.9654 72.8318 81.9675 72.8536 81.9719C72.8797 81.9719 72.9341 81.9741 73.0167 81.9784V83.8839C72.8993 83.8709 72.7948 83.8622 72.7035 83.8578C72.6121 83.8535 72.5382 83.8513 72.4816 83.8513ZM80.4162 83.0356C81.0165 83.7882 81.3167 84.6779 81.3167 85.7046C81.3167 86.7487 81.0165 87.6427 80.4162 88.3867C79.8158 89.1262 78.9044 89.496 77.6819 89.496C76.4594 89.496 75.548 89.1262 74.9476 88.3867C74.3472 87.6427 74.0471 86.7487 74.0471 85.7046C74.0471 84.6779 74.3472 83.7882 74.9476 83.0356C75.548 82.2829 76.4594 81.9066 77.6819 81.9066C78.9044 81.9066 79.8158 82.2829 80.4162 83.0356ZM77.6754 83.4793C77.1315 83.4793 76.7117 83.6729 76.4159 84.0601C76.1244 84.4429 75.9787 84.9911 75.9787 85.7046C75.9787 86.4181 76.1244 86.9684 76.4159 87.3556C76.7117 87.7428 77.1315 87.9364 77.6754 87.9364C78.2192 87.9364 78.6368 87.7428 78.9283 87.3556C79.2198 86.9684 79.3655 86.4181 79.3655 85.7046C79.3655 84.9911 79.2198 84.4429 78.9283 84.0601C78.6368 83.6729 78.2192 83.4793 77.6754 83.4793ZM89.4992 79.6422V89.248H87.6916V88.2627C87.4262 88.6847 87.1239 88.9914 86.7845 89.1828C86.4452 89.3742 86.0232 89.4699 85.5185 89.4699C84.6876 89.4699 83.9872 89.1349 83.4173 88.465C82.8517 87.7906 82.5689 86.9271 82.5689 85.8743C82.5689 84.6605 82.8473 83.7055 83.4042 83.0095C83.9654 82.3134 84.7137 81.9654 85.649 81.9654C86.0797 81.9654 86.4626 82.0611 86.7976 82.2525C87.1326 82.4396 87.4045 82.7006 87.6133 83.0356V79.6422H89.4992ZM84.4875 85.7372C84.4875 86.3941 84.618 86.9184 84.879 87.3099C85.1357 87.7058 85.5272 87.9038 86.0536 87.9038C86.58 87.9038 86.9803 87.708 87.2544 87.3164C87.5285 86.9249 87.6655 86.4181 87.6655 85.7959C87.6655 84.9259 87.4458 84.3037 87.0064 83.9296C86.7367 83.7034 86.4234 83.5903 86.0667 83.5903C85.5229 83.5903 85.1226 83.7969 84.866 84.2102C84.6136 84.6191 84.4875 85.1281 84.4875 85.7372ZM96.1286 88.2431C96.1112 88.2648 96.0677 88.3301 95.9981 88.4389C95.9285 88.5476 95.8458 88.6433 95.7501 88.726C95.4586 88.987 95.1759 89.1654 94.9018 89.2611C94.632 89.3568 94.3145 89.4047 93.949 89.4047C92.8962 89.4047 92.1871 89.0262 91.8216 88.2692C91.6172 87.8515 91.5149 87.236 91.5149 86.4224V82.135H93.4204V86.4224C93.4204 86.827 93.4683 87.1315 93.564 87.336C93.7337 87.6971 94.0665 87.8776 94.5624 87.8776C95.1976 87.8776 95.6327 87.621 95.8676 87.1076C95.9894 86.8292 96.0503 86.4616 96.0503 86.0048V82.135H97.9362V89.248H96.1286V88.2431ZM106.262 84.6866H104.357C104.322 84.4212 104.233 84.1819 104.089 83.9687C103.88 83.6816 103.556 83.538 103.117 83.538C102.49 83.538 102.062 83.8491 101.831 84.4712C101.71 84.8019 101.649 85.2413 101.649 85.7894C101.649 86.3115 101.71 86.7313 101.831 87.0489C102.053 87.6405 102.471 87.9364 103.084 87.9364C103.519 87.9364 103.828 87.8189 104.011 87.584C104.194 87.3491 104.305 87.0445 104.344 86.6704H106.243C106.199 87.236 105.995 87.7711 105.629 88.2757C105.046 89.0893 104.183 89.496 103.039 89.496C101.894 89.496 101.053 89.1567 100.513 88.478C99.9737 87.7993 99.704 86.9184 99.704 85.8351C99.704 84.6126 100.002 83.662 100.598 82.9834C101.194 82.3047 102.016 81.9654 103.065 81.9654C103.957 81.9654 104.685 82.1655 105.251 82.5657C105.821 82.966 106.158 83.6729 106.262 84.6866ZM111.175 87.9233V89.3133L110.294 89.3459C109.416 89.3764 108.815 89.2241 108.493 88.8891C108.285 88.676 108.18 88.3475 108.18 87.9038V83.525H107.188V82.2003H108.18V80.2165H110.02V82.2003H111.175V83.525H110.02V87.2838C110.02 87.5753 110.057 87.758 110.131 87.832C110.205 87.9016 110.432 87.9364 110.81 87.9364C110.867 87.9364 110.925 87.9364 110.986 87.9364C111.051 87.932 111.115 87.9277 111.175 87.9233ZM117.642 82.4613C118.199 82.818 118.518 83.4315 118.601 84.3016H116.741C116.715 84.0623 116.648 83.873 116.539 83.7338C116.334 83.4815 115.986 83.3553 115.495 83.3553C115.09 83.3553 114.801 83.4184 114.627 83.5446C114.457 83.6707 114.372 83.8187 114.372 83.9883C114.372 84.2015 114.464 84.3559 114.646 84.4516C114.829 84.5517 115.475 84.7236 116.585 84.9672C117.324 85.1412 117.879 85.4044 118.249 85.7568C118.614 86.1135 118.797 86.5595 118.797 87.0946C118.797 87.7993 118.534 88.3758 118.007 88.8239C117.485 89.2676 116.676 89.4895 115.58 89.4895C114.462 89.4895 113.635 89.2546 113.1 88.7847C112.569 88.3105 112.304 87.708 112.304 86.9771H114.19C114.229 87.3077 114.314 87.5427 114.444 87.6819C114.675 87.9299 115.101 88.0538 115.723 88.0538C116.089 88.0538 116.378 87.9995 116.591 87.8907C116.809 87.7819 116.917 87.6188 116.917 87.4013C116.917 87.1924 116.83 87.0337 116.656 86.9249C116.482 86.8161 115.836 86.6291 114.718 86.3637C113.913 86.1636 113.346 85.9134 113.015 85.6132C112.684 85.3174 112.519 84.891 112.519 84.3342C112.519 83.6773 112.776 83.1139 113.289 82.644C113.807 82.1698 114.533 81.9327 115.469 81.9327C116.356 81.9327 117.08 82.1089 117.642 82.4613Z" fill="white"/>
</g>
<defs>
<clipPath id="clip0_464_16845">
<rect width="133.647" height="150" fill="white" transform="translate(0.0546875)"/>
</clipPath>
</defs>
</svg>
