<svg width="176" height="36" viewBox="0 0 176 36" fill="none" xmlns="http://www.w3.org/2000/svg">
<path d="M44.5226 16.0682L32.7381 4.2837C32.3307 3.90543 31.7197 3.90543 31.3414 4.2837L29.0136 6.6115L38.4703 16.0682C38.8486 16.4465 38.8486 17.0866 38.4703 17.4649L28.7227 27.2125L31.0505 29.5403C31.4578 29.9186 32.0689 29.9186 32.4471 29.5403L44.4935 17.494C44.9009 17.0866 44.9009 16.4756 44.5226 16.0682Z" fill="#009C9C"/>
<path d="M24.4462 5.15682L23.6024 4.313C23.195 3.93473 22.584 3.93473 22.2057 4.313L19.8779 6.6408L21.4201 8.18296L24.4462 11.2091L27.4724 8.18296L24.4462 5.15682Z" fill="#40E3E3"/>
<path d="M24.1865 22.6733L21.1603 25.6995L19.6182 27.2416L21.946 29.5694C22.3533 29.9477 22.9644 29.9477 23.3426 29.5694L24.1865 28.7256L27.2126 25.6995L24.1865 22.6733Z" fill="#40E3E3"/>
<path d="M29.363 16.0683C29.7412 16.4757 29.7412 17.0867 29.363 17.465L24.1836 22.6444L27.2097 25.6705L35.4152 17.465C35.7935 17.0867 35.7935 16.4466 35.4152 16.0683L27.5007 8.15381L24.4455 11.1799L29.363 16.0683Z" fill="#1ABAB8"/>
<path d="M10.1313 16.3592L18.3368 8.15368L15.3106 5.12753L14.4377 4.2837C14.0303 3.90543 13.4193 3.90543 13.041 4.2837L0.994638 16.3592C0.616371 16.7374 0.616371 17.3776 0.994638 17.7559L12.7791 29.5403C13.1865 29.9186 13.7975 29.9186 14.1758 29.5403L15.0487 28.6965L18.0749 25.6704L10.1604 17.7559C9.75299 17.3776 9.75299 16.7665 10.1313 16.3592Z" fill="#87F0F0"/>
<path d="M19.2701 16.3595L22.8782 12.7514L19.8521 9.72528L18.3099 8.18311L10.1626 16.3886C9.78434 16.7669 9.78434 17.407 10.1626 17.7853L18.048 25.6707L19.5902 24.1285L22.6163 21.1024L19.2701 17.7562C18.8919 17.407 18.8919 16.7669 19.2701 16.3595Z" fill="#40E3E3"/>
<path d="M19.2629 17.7558L22.6091 21.102L26.2172 17.4939C26.5954 17.1156 26.5954 16.4755 26.2172 16.0972L22.8709 12.751L19.2629 16.3591C18.9137 16.7664 18.9137 17.3775 19.2629 17.7558Z" fill="#17CFCF"/>
<path d="M53.982 13.5947C54.0111 12.2562 54.273 10.9468 54.7677 9.69562C55.2332 8.56082 55.9316 7.51331 56.8045 6.66948C57.7647 5.79656 58.8995 5.12731 60.1216 4.71995C61.6056 4.22529 63.1768 3.99251 64.719 4.02161C66.4649 3.96341 68.2107 4.22529 69.8402 4.80724C71.0041 5.24371 72.1098 5.88384 73.0409 6.72767C73.7683 7.36782 74.3212 8.15346 74.6995 9.02638C74.9904 9.66653 75.165 10.3358 75.2523 11.0341C75.2814 11.296 75.1941 11.5579 74.9904 11.7324C74.7867 11.907 74.554 11.9943 74.2921 11.9943H71.4114C71.1786 11.9943 70.975 11.9361 70.8004 11.7906C70.6549 11.6743 70.5385 11.5288 70.4803 11.3833C70.4221 11.296 70.3057 11.0923 70.102 10.7722C69.8402 10.394 69.5201 10.0448 69.1418 9.78291C68.6181 9.40464 68.0361 9.08458 67.4251 8.8518C66.5812 8.56082 65.6501 8.41533 64.7481 8.44443C63.2059 8.35714 61.6638 8.88089 60.4708 9.87021C59.3942 10.8595 58.7831 12.2562 58.754 13.7402C58.6958 14.6422 58.6958 15.6024 58.6958 16.6499C58.6958 17.6683 58.6958 18.6577 58.754 19.5597C58.8122 21.5383 59.3942 22.9641 60.4708 23.837C61.6929 24.7681 63.2059 25.2337 64.719 25.1755C65.5337 25.1755 66.3485 25.0882 67.1341 24.8845C67.8324 24.7099 68.4726 24.3899 69.0254 23.9534C69.5783 23.5169 70.0147 22.935 70.2766 22.2657C70.5967 21.451 70.7422 20.5781 70.7131 19.7052V19.4142H66.3776C66.1157 19.4142 65.8829 19.3269 65.7083 19.1232C65.5337 18.9486 65.4173 18.7159 65.4173 18.454V15.9225C65.4173 15.3987 65.8538 14.9623 66.3776 14.9623H74.5831C75.1068 14.9623 75.5433 15.3987 75.5433 15.9225V19.8216C75.5724 21.16 75.3396 22.4985 74.874 23.7497C74.4376 24.9136 73.7392 25.9611 72.8372 26.8341C71.877 27.7361 70.7131 28.4344 69.4619 28.8709C66.4067 29.8311 63.1186 29.8311 60.0343 28.8709C58.8122 28.4635 57.6774 27.7943 56.7463 26.9214C55.8734 26.0484 55.175 25.0009 54.7386 23.837C54.273 22.5858 54.0111 21.2473 53.982 19.9088C53.982 19.4724 53.9529 18.9486 53.9238 18.4249C53.9238 17.872 53.9238 17.3192 53.9238 16.7372C53.9238 16.1553 53.9238 15.6024 53.9238 15.0787C53.9238 14.5258 53.9529 14.0602 53.982 13.5947Z" fill="#424A52"/>
<path d="M86.5115 14.7007C85.9004 14.6716 85.3185 14.788 84.7365 14.9917C84.271 15.1663 83.8636 15.4281 83.5144 15.7773C83.1944 16.0683 82.9325 16.4466 82.7579 16.8539C82.5833 17.2031 82.4669 17.5814 82.4378 17.9596H90.4687C90.4105 17.5814 90.3233 17.2031 90.2069 16.8539C90.0614 16.4466 89.8577 16.0974 89.5667 15.7773C89.2466 15.4281 88.8393 15.1663 88.4028 14.9917C87.7918 14.7589 87.1516 14.6716 86.5115 14.7007ZM77.8113 20.0256C77.8113 18.7453 78.015 17.4941 78.4224 16.272C78.8006 15.1372 79.3826 14.0897 80.1682 13.1876C80.9248 12.3147 81.885 11.6164 82.9325 11.1508C84.0673 10.6562 85.2894 10.3943 86.5115 10.3943C87.7336 10.3652 88.9557 10.6271 90.0905 11.1217C91.138 11.5873 92.0982 12.2565 92.8838 13.1004C93.6404 13.9442 94.2514 14.9044 94.6588 15.981C95.0661 17.0867 95.2989 18.2506 95.2698 19.4436V21.044C95.2698 21.5677 94.8334 22.0042 94.3096 22.0042H82.4378C82.4378 22.4988 82.5542 22.9935 82.7579 23.43C82.9907 23.8373 83.2817 24.1865 83.6599 24.4484C84.0673 24.7394 84.5038 24.943 84.9693 25.0885C85.464 25.234 85.9877 25.2922 86.5115 25.2922C87.1225 25.3213 87.7627 25.234 88.3737 25.0594C88.7811 24.943 89.1885 24.7394 89.5376 24.4775C89.7413 24.332 89.945 24.1865 90.1778 24.0701C90.3814 23.9828 90.6142 23.9537 90.847 23.9537H93.6986C93.9604 23.9537 94.2223 24.0701 94.3969 24.2447C94.6006 24.4193 94.6879 24.6521 94.6588 24.9139C94.5715 25.3795 94.3969 25.816 94.1059 26.1942C93.6986 26.8053 93.1748 27.329 92.5638 27.7364C91.7781 28.2893 90.9052 28.7257 90.0032 29.0167C88.8684 29.395 87.6754 29.5695 86.5115 29.5404C85.2894 29.5404 84.0673 29.3077 82.9325 28.8421C81.885 28.4056 80.9248 27.7364 80.1682 26.8926C79.3826 25.9906 78.8006 24.9721 78.4224 23.8373C77.9859 22.6443 77.7822 21.3349 77.8113 20.0256Z" fill="#424A52"/>
<path d="M103.798 22.5862C103.769 23.2263 103.973 23.8665 104.38 24.332C104.758 24.7685 105.486 25.0013 106.562 25.0013H108.715C109.239 25.0013 109.676 25.4377 109.676 25.9615V28.3184C109.676 28.8421 109.239 29.2786 108.715 29.2786H106.068C103.827 29.2786 102.139 28.7258 100.946 27.6492C99.7534 26.5725 99.1714 24.914 99.1423 22.7026V15.0499H96.7854C96.5235 15.0499 96.2908 14.9626 96.1162 14.759C95.9416 14.5844 95.8252 14.3516 95.8252 14.0897V11.7328C95.8252 11.4709 95.9125 11.2382 96.1162 11.0636C96.2908 10.889 96.5235 10.7726 96.7854 10.7726H99.1423V4.98219C99.1423 4.45843 99.5788 4.02197 100.103 4.02197H102.809C103.332 4.02197 103.769 4.45843 103.769 4.98219V10.7726H108.366C108.89 10.8017 109.268 11.2091 109.297 11.7328V14.0897C109.297 14.6135 108.861 15.0499 108.337 15.0499H103.74L103.798 22.5862Z" fill="#424A52"/>
<path d="M127.158 19.9955L123.23 9.86957L119.331 19.9955H127.158ZM125.179 4.37015C125.5 4.34105 125.791 4.45744 126.023 4.66112C126.256 4.923 126.431 5.24307 126.547 5.56314L135.247 28.0555C135.276 28.1428 135.276 28.2301 135.276 28.2883C135.276 28.812 134.84 29.2485 134.316 29.2485H131.756C131.406 29.2776 131.028 29.1903 130.766 28.9575C130.592 28.783 130.475 28.5793 130.388 28.3756L128.846 24.4183H117.614L116.072 28.3756C115.985 28.6084 115.839 28.783 115.694 28.9575C115.403 29.1903 115.054 29.3067 114.704 29.2485H112.144C111.62 29.2485 111.184 28.812 111.184 28.2883C111.184 28.201 111.184 28.1137 111.213 28.0555L119.913 5.56314C120.029 5.24307 120.204 4.923 120.437 4.66112C120.669 4.45744 120.989 4.34105 121.28 4.37015H125.179Z" fill="#424A52"/>
<path d="M150.525 21.0146C150.583 20.3453 150.583 19.6761 150.525 19.036C150.38 17.4938 149.914 16.3881 149.1 15.7188C148.285 15.0205 147.237 14.6713 146.161 14.7004C145.084 14.6713 144.037 15.0205 143.222 15.7188C142.378 16.4754 141.912 17.552 141.854 18.6577C141.796 19.0941 141.767 19.5597 141.796 19.9962C141.796 20.4617 141.825 20.8982 141.854 21.3347C141.912 22.4404 142.407 23.4879 143.222 24.2444C144.037 24.9718 145.084 25.3501 146.161 25.321C147.237 25.3501 148.285 24.9718 149.1 24.3026C149.914 23.6334 150.38 22.5277 150.525 21.0146ZM147.237 29.6274C146.568 29.6274 145.899 29.5692 145.259 29.4238C144.735 29.3074 144.211 29.1328 143.716 28.9C143.338 28.6963 142.96 28.4635 142.611 28.1726C142.349 27.9689 142.087 27.7361 141.854 27.4742V35.0396C141.854 35.5633 141.418 35.9998 140.894 35.9998H138.217C137.693 35.9998 137.257 35.5633 137.257 35.0396V11.7325C137.257 11.2087 137.693 10.7723 138.217 10.7723H140.923C141.447 10.7723 141.883 11.2087 141.883 11.7325V12.5472C142.116 12.2853 142.349 12.0526 142.64 11.8489C142.989 11.587 143.367 11.3542 143.775 11.1505C144.269 10.9177 144.793 10.7432 145.317 10.6268C145.957 10.4813 146.626 10.4231 147.295 10.4231C148.401 10.394 149.507 10.6559 150.525 11.1214C151.456 11.5579 152.3 12.198 152.969 12.9837C153.668 13.7693 154.192 14.6713 154.57 15.6606C154.948 16.6791 155.181 17.7266 155.239 18.8032C155.268 19.1523 155.268 19.5597 155.268 20.0544C155.268 20.549 155.268 20.9564 155.239 21.3056C155.181 22.3822 154.977 23.4588 154.57 24.4481C154.192 25.4374 153.668 26.3394 152.969 27.1251C152.3 27.9107 151.456 28.5217 150.525 28.9873C149.449 29.4238 148.343 29.6565 147.237 29.6274Z" fill="#424A52"/>
<path d="M170.633 21.0146C170.692 20.3453 170.692 19.6761 170.633 19.036C170.488 17.4938 170.022 16.3881 169.208 15.7188C168.393 15.0205 167.345 14.6713 166.269 14.7004C165.192 14.6713 164.145 15.0205 163.33 15.7188C162.486 16.4754 162.02 17.552 161.962 18.6577C161.904 19.0941 161.875 19.5597 161.904 19.9962C161.904 20.4617 161.933 20.8982 161.962 21.3347C162.02 22.4404 162.515 23.4879 163.33 24.2444C164.145 24.9718 165.192 25.3501 166.269 25.321C167.345 25.3501 168.393 24.9718 169.208 24.3026C170.022 23.6334 170.488 22.5277 170.633 21.0146ZM167.316 29.5983C166.647 29.5983 165.978 29.5402 165.338 29.3947C164.814 29.2783 164.29 29.1037 163.795 28.8709C163.388 28.6672 163.01 28.4345 162.69 28.1726C162.428 27.9689 162.166 27.7361 161.933 27.4742V35.0396C161.933 35.3015 161.817 35.5342 161.642 35.7088C161.468 35.8834 161.235 35.9998 160.973 35.9998H158.267C157.743 35.9998 157.307 35.5633 157.307 35.0396V11.7325C157.307 11.2087 157.743 10.7723 158.267 10.7723H160.973C161.497 10.7723 161.933 11.2087 161.933 11.7325V12.5472C162.166 12.2853 162.428 12.0526 162.69 11.8489C163.039 11.587 163.417 11.3542 163.795 11.1505C164.29 10.9177 164.814 10.7432 165.338 10.6268C165.978 10.4813 166.647 10.4231 167.316 10.4231C168.422 10.394 169.528 10.6559 170.546 11.1214C171.477 11.5579 172.321 12.198 172.99 12.9837C173.689 13.7693 174.212 14.6713 174.591 15.6606C174.969 16.6791 175.202 17.7266 175.26 18.8032C175.289 19.1523 175.289 19.5597 175.289 20.0544C175.289 20.549 175.289 20.9564 175.26 21.3056C175.202 22.3822 174.998 23.4588 174.591 24.4481C174.212 25.4374 173.689 26.3394 172.99 27.1251C172.292 27.9107 171.477 28.5217 170.546 28.9873C169.528 29.4529 168.422 29.6856 167.316 29.6856" fill="#424A52"/>
</svg>
