<svg width="24" height="24" viewBox="0 0 24 24" fill="none" xmlns="http://www.w3.org/2000/svg">
<path fill-rule="evenodd" clip-rule="evenodd" d="M16.7912 19.2995C16.7912 17.4932 15.0416 16.5739 13.3376 15.8356C11.6392 15.1005 11.0968 14.4813 11.0968 13.1543C11.0968 12.3589 11.6152 12.6178 11.8424 11.1589C11.9384 10.5542 12.396 11.1493 12.484 9.76841C12.484 9.21831 12.2336 9.08159 12.2336 9.08159C12.2336 9.08159 12.3608 8.26689 12.4104 7.63958C12.4616 6.98251 12.092 5.58072 10.5696 5.15045C10.304 4.8762 10.124 4.4411 10.9432 4.0052C9.1512 3.92156 8.7344 4.86413 7.78 5.55739C6.968 6.1654 6.7488 7.12808 6.788 7.64038C6.84 8.26769 6.9664 9.08239 6.9664 9.08239C6.9664 9.08239 6.7152 9.21911 6.7152 9.76922C6.8032 11.1509 7.2624 10.555 7.3576 11.1597C7.5848 12.6186 8.104 12.3597 8.104 13.1551C8.104 14.4821 7.9344 14.9325 6.2352 15.6675C4.5304 16.405 4 17.5873 4.0088 19.2995C4.0112 19.8118 4 20 4 20H16.8C16.8 20 16.7912 19.8118 16.7912 19.2995ZM18.8227 14.6637C17.9147 14.2962 17.5387 13.8579 17.5387 13.0022C17.5387 12.4867 17.8731 12.6547 18.0203 11.713C18.0819 11.3237 18.3779 11.7065 18.4347 10.8162C18.4347 10.4616 18.2731 10.3731 18.2731 10.3731C18.2731 10.3731 18.3555 9.84552 18.3875 9.44099C18.4275 8.93673 18.0963 7.63385 16.5731 7.63385C15.0507 7.63385 14.7187 8.93673 14.7579 9.44099C14.7915 9.84472 14.8731 10.3731 14.8731 10.3731C14.8731 10.3731 14.7115 10.4608 14.7115 10.8162C14.7683 11.7065 15.0643 11.3237 15.1259 11.713C15.2731 12.6555 15.6075 12.4875 15.6075 13.0022C15.6075 13.8579 15.2571 14.2584 14.1603 14.7329C14.1051 14.7562 14.0643 14.7876 14.0139 14.8149C15.3259 15.3876 17.3947 16.376 17.8843 18.3914H20.0003C20.0003 18.3914 20.0003 16.8585 20.0003 16.5272C20.0003 15.7229 19.7819 15.0522 18.8227 14.6637Z" fill="#374050"/>
</svg>
