<svg width="32" height="32" viewBox="0 0 32 32" fill="none" xmlns="http://www.w3.org/2000/svg">
<g clip-path="url(#clip0_525_72)">
<path fill-rule="evenodd" clip-rule="evenodd" d="M7.11122 3.55556C7.11122 5.51111 5.86678 7.11111 3.55566 7.11111C1.42233 7.11111 0.000108507 5.51111 0.000108507 3.73333C0.000108507 1.77778 1.42233 0 3.55566 0C5.689 0 7.11122 1.6 7.11122 3.55556V3.55556ZM0 32H7.11111V8.88889H0V32V32ZM24.1776 9.24306C20.4443 9.24306 18.3109 11.3764 17.422 12.7986H17.2443L16.8887 9.77639H10.4887C10.4887 11.7319 10.6665 14.0431 10.6665 16.7097V31.9986H17.7776V19.3764C17.7776 18.6653 17.7776 18.132 17.9554 17.5986C18.4887 16.3542 19.3776 14.7542 21.3331 14.7542C23.822 14.7542 24.8887 16.8875 24.8887 19.732V31.9986H31.9998V18.8431C31.9998 12.2653 28.622 9.24306 24.1776 9.24306V9.24306Z" fill="#57616F"/>
</g>
<defs>
<clipPath id="clip0_525_72">
<rect width="31.9998" height="32" fill="white"/>
</clipPath>
</defs>
</svg>
