<svg width="24" height="24" viewBox="0 0 24 24" fill="none" xmlns="http://www.w3.org/2000/svg">
<path fill-rule="evenodd" clip-rule="evenodd" d="M19.5588 9.31039C17.9011 5.45293 15.2346 2.5185 13.8857 3.06583C11.5948 3.99827 15.2503 8.47003 3.99922 13.0423C3.02701 13.4389 2.78108 15.0181 3.18817 15.9641C3.59422 16.9081 4.9233 17.8489 5.89551 17.4544C6.064 17.3853 6.68144 17.1865 6.68144 17.1865C7.37528 18.1189 8.10156 17.5663 8.36005 18.1576C8.66982 18.8693 9.34273 20.416 9.57192 20.9414C9.8011 21.4667 10.3202 21.9533 10.6969 21.81C11.0726 21.6666 12.3525 21.18 12.8423 20.9947C13.332 20.8084 13.4482 20.371 13.2986 20.0277C13.1374 19.6562 12.476 19.5474 12.2866 19.1141C12.0982 18.683 11.4818 17.2953 11.3049 16.8579C11.0642 16.2634 11.576 15.7789 12.3201 15.7025C17.4417 15.1667 18.3993 18.3313 20.1428 17.6218C21.4896 17.0724 21.2154 13.1647 19.5588 9.31039ZM18.9819 15.5644C18.6816 15.6847 16.666 14.0972 15.3788 11.0989C14.0905 8.10274 14.2527 5.36401 14.552 5.24157C14.8513 5.12122 16.8177 7.03844 18.105 10.0346C19.3932 13.0308 19.2812 15.442 18.9819 15.5644Z" fill="#374050"/>
</svg>
