<svg width="24" height="24" viewBox="0 0 24 24" fill="none" xmlns="http://www.w3.org/2000/svg">
<path fill-rule="evenodd" clip-rule="evenodd" d="M20.5319 5.03196C20.2141 5.14374 4.52999 10.6711 4.2205 10.7801C3.95813 10.8725 3.89992 11.0988 4.21126 11.2226C4.58172 11.3714 7.71817 12.6278 7.71817 12.6278V12.6278L9.79681 13.4602C9.79681 13.4602 19.8094 6.10824 19.9443 6.00846C20.081 5.90869 20.2381 6.09623 20.1392 6.20339C20.0404 6.31148 12.8677 14.0681 12.8677 14.0681V14.0699L12.4501 14.5346L13.0035 14.8321V14.8321C13.0035 14.8321 17.2993 17.1454 17.6061 17.3098C17.8749 17.4539 18.2232 17.3348 18.3008 17.0013C18.3922 16.6077 20.9291 5.67403 20.9855 5.43014C21.0584 5.11326 20.8487 4.92017 20.5319 5.03196V5.03196ZM9.77845 18.4534C9.77845 18.6807 9.90686 18.7444 10.0842 18.5837C10.3161 18.3721 12.7172 16.2177 12.7172 16.2177L9.77845 14.6989V18.4534V18.4534Z" fill="#374050"/>
</svg>
