<svg width="24" height="24" viewBox="0 0 24 24" fill="none" xmlns="http://www.w3.org/2000/svg">
<path fill-rule="evenodd" clip-rule="evenodd" d="M20 8.5C20 9.88071 18.8807 11 17.5 11C16.1193 11 15 9.88071 15 8.5C15 7.11929 16.1193 6 17.5 6C18.8807 6 20 7.11929 20 8.5ZM20 15.5C20 16.8807 18.8807 18 17.5 18C16.1193 18 15 16.8807 15 15.5C15 14.1193 16.1193 13 17.5 13C18.8807 13 20 14.1193 20 15.5ZM10 17C12.7614 17 15 14.7614 15 12C15 9.23858 12.7614 7 10 7C7.23858 7 5 9.23858 5 12C5 14.7614 7.23858 17 10 17Z" fill="#374050"/>
</svg>
