<svg width="65" height="45" viewBox="0 0 65 45" fill="none" xmlns="http://www.w3.org/2000/svg">
<g clip-path="url(#clip0_464_12071)">
<path fill-rule="evenodd" clip-rule="evenodd" d="M26.764 4.86103C28.8376 2.72143 31.7253 1.39461 34.9197 1.39461C39.1651 1.39461 42.8692 3.73759 44.8416 7.21742C46.6067 6.43722 48.5173 6.03515 50.4491 6.03736C58.107 6.03736 64.3158 12.2379 64.3158 19.8866C64.3158 27.5354 58.107 33.7359 50.4499 33.7359C49.515 33.7359 48.602 33.6428 47.7181 33.4662C46.8359 35.0267 45.5514 36.3254 43.9967 37.2288C42.4419 38.1323 40.673 38.6079 38.872 38.6066C37.2812 38.6066 35.7781 38.2431 34.4369 37.5957C33.5461 39.6674 32.0624 41.4332 30.17 42.6738C28.2776 43.9143 26.0601 44.5748 23.7931 44.5732C21.4303 44.5749 19.1236 43.8576 17.1833 42.5176C15.243 41.1776 13.7622 39.2793 12.9401 37.0779C12.2148 37.2291 11.4756 37.3052 10.7345 37.3052C4.80539 37.3059 0 32.4978 0 26.5662C0 22.5902 2.1583 19.1201 5.36765 17.2628C4.68787 15.7133 4.33794 14.0408 4.33985 12.3504C4.33985 5.53003 9.9324 0 16.8309 0C20.8813 0 24.4813 1.90716 26.764 4.86178" fill="#00A1E0"/>
<path fill-rule="evenodd" clip-rule="evenodd" d="M37.4554 15.5626C37.7519 15.5606 38.0471 15.6028 38.331 15.6877C38.3573 15.6982 38.4285 15.7339 38.3993 15.8174L38.1144 16.5921C38.0896 16.6502 38.0739 16.6853 37.9524 16.648C37.9495 16.6472 37.9463 16.6463 37.943 16.6454C37.9127 16.637 37.8653 16.624 37.762 16.6018C37.6773 16.5854 37.5679 16.572 37.4554 16.572C37.3201 16.5702 37.1854 16.589 37.0558 16.6279C36.9378 16.6668 36.8309 16.7332 36.744 16.8216C36.6282 16.9317 36.5386 17.0661 36.4816 17.2149C36.3638 17.552 36.3075 17.9079 36.2904 18.0156C36.2877 18.0327 36.286 18.0435 36.2852 18.0471H37.4772C37.5761 18.0471 37.6076 18.0933 37.5986 18.1663L37.4592 18.9336C37.4382 19.0454 37.3347 19.0417 37.3347 19.0417H36.1068L35.2671 23.7462C35.196 24.1685 35.0864 24.5834 34.9395 24.9859C34.8091 25.3264 34.6719 25.5744 34.4552 25.8128C34.2543 26.0319 34.0272 26.1943 33.7655 26.2881C33.5069 26.3813 33.1943 26.4289 32.8509 26.4289C32.6875 26.4289 32.5128 26.426 32.3052 26.3768C32.1552 26.3425 32.0743 26.3172 31.9648 26.2784C31.9176 26.2621 31.8809 26.2047 31.9071 26.1317C31.9333 26.0579 32.153 25.4597 32.183 25.3815C32.222 25.2854 32.3179 25.3226 32.3179 25.3226C32.3248 25.3253 32.3315 25.3279 32.338 25.3305C32.3945 25.3528 32.4396 25.3706 32.5196 25.3859C32.608 25.4038 32.728 25.4187 32.8179 25.4187C32.9665 25.4212 33.1145 25.4003 33.2565 25.3569C33.4124 25.3055 33.5024 25.2153 33.5984 25.0954C33.6966 24.971 33.7768 24.7996 33.8577 24.5709C33.941 24.3385 34.0159 24.0331 34.0811 23.6606L34.9178 19.0417H34.0931C33.9942 19.0417 33.9619 18.9955 33.9724 18.9225L34.1111 18.1551C34.1321 18.0434 34.2356 18.0471 34.2356 18.0471H35.082L35.1269 17.7975C35.2544 17.057 35.5063 16.4938 35.8766 16.1243C36.2499 15.7518 36.7815 15.5626 37.4554 15.5626ZM21.5699 23.7827C21.6321 23.7827 21.6771 23.7328 21.6771 23.671V15.7928C21.6771 15.7309 21.6321 15.681 21.5699 15.681H20.5811C20.5196 15.681 20.4746 15.7309 20.4746 15.7928V23.671C20.4746 23.7328 20.5188 23.7827 20.5811 23.7827H21.5699ZM9.33342 23.2488C9.3141 23.231 9.28181 23.2013 9.31533 23.1143V23.115L9.57547 22.3998C9.61745 22.2769 9.71191 22.3171 9.74939 22.3402C9.78007 22.3586 9.80734 22.3763 9.83567 22.3945C9.87382 22.4192 9.91389 22.445 9.9668 22.4758C10.4745 22.7966 11.0647 22.9647 11.6663 22.9601C12.2391 22.9601 12.5959 22.6583 12.5959 22.2546V22.2322C12.5959 21.7904 12.0486 21.6236 11.4129 21.4306L11.2735 21.3874C10.4016 21.1415 9.47127 20.7869 9.47127 19.6963V19.6754C9.47127 18.6399 10.3146 17.9172 11.5231 17.9172L11.6543 17.9165C12.3635 17.9165 13.0487 18.1206 13.545 18.4186C13.59 18.4462 13.6334 18.4976 13.6087 18.5661L13.3403 19.2813C13.2938 19.4042 13.1656 19.3223 13.1656 19.3223C12.7316 19.0839 12.0576 18.8977 11.4894 18.8977C10.9781 18.8977 10.6483 19.1658 10.6483 19.5309V19.5517C10.6483 19.9794 11.2128 20.1611 11.8672 20.3712L11.9804 20.407C12.847 20.6782 13.7721 21.0544 13.7721 22.0884V22.11C13.7721 23.229 12.9527 23.9233 11.6333 23.9233C10.9856 23.9233 10.3656 23.8228 9.71041 23.4786C9.68213 23.4625 9.65397 23.4469 9.62592 23.4313C9.53051 23.3784 9.43634 23.3262 9.34307 23.2588C9.34088 23.2557 9.33743 23.2525 9.33342 23.2488ZM28.6474 23.2493C28.6279 23.2315 28.5954 23.202 28.6299 23.1143V23.115L28.8908 22.3998C28.9282 22.2829 29.0399 22.3253 29.0632 22.3402C29.0737 22.347 29.0839 22.3536 29.0939 22.3601C29.1508 22.397 29.2022 22.4302 29.2806 22.4758C29.7884 22.7965 30.3785 22.9646 30.9801 22.9601C31.5543 22.9601 31.9112 22.6583 31.9112 22.2546V22.2322C31.9112 21.7904 31.3624 21.6236 30.7267 21.4306L30.5873 21.3874C29.7161 21.1415 28.7858 20.7869 28.7858 19.6963V19.6754C28.7858 18.6399 29.6284 17.9172 30.8369 17.9172L30.9681 17.9165C31.678 17.9165 32.3625 18.1206 32.8588 18.4186C32.9037 18.4462 32.9472 18.4976 32.9232 18.5661L32.6541 19.2813C32.6084 19.4042 32.4794 19.3223 32.4794 19.3223C32.0454 19.0839 31.3714 18.8977 30.8032 18.8977C30.2919 18.8977 29.962 19.1658 29.962 19.5309V19.5517C29.962 19.9794 30.5265 20.1611 31.181 20.3712L31.2942 20.407C32.1608 20.6782 33.0859 21.0544 33.0859 22.0884V22.11C33.0859 23.229 32.2665 23.9233 30.9471 23.9233C30.2994 23.9233 29.6794 23.8228 29.0242 23.4786C28.9964 23.4628 28.9688 23.4474 28.9413 23.4322C28.8456 23.379 28.7512 23.3265 28.6569 23.2588C28.6546 23.2558 28.6513 23.2528 28.6474 23.2493ZM42.4148 18.8045C42.6455 19.0826 42.816 19.4049 42.9156 19.7514C43.0236 20.112 43.0783 20.5061 43.0783 20.9233C43.0812 21.3196 43.0264 21.7144 42.9156 22.0951C42.8076 22.4572 42.639 22.7768 42.4148 23.0428C42.1899 23.3087 41.905 23.5225 41.5692 23.6738C41.2311 23.8257 40.8353 23.9025 40.3892 23.9025C39.9424 23.9025 39.5451 23.8257 39.2085 23.6738C38.8719 23.5225 38.587 23.3087 38.3621 23.0428C38.1379 22.7753 37.9693 22.4564 37.8613 22.0951C37.7541 21.7353 37.6986 21.3405 37.6986 20.9233C37.6958 20.5269 37.7506 20.1322 37.8613 19.7514C37.9693 19.3908 38.1372 19.0712 38.3621 18.8053C38.5927 18.533 38.8816 18.3154 39.2077 18.1683C39.5443 18.0126 39.9424 17.9329 40.3892 17.9329C40.8353 17.9329 41.2318 18.0126 41.5692 18.1683C41.8952 18.3153 42.184 18.5326 42.4148 18.8045ZM41.4612 22.4058C41.6951 22.0542 41.8143 21.555 41.8143 20.9233C41.8143 20.2923 41.6951 19.7946 41.4612 19.4467C41.2288 19.1025 40.878 18.9342 40.3892 18.9342C39.8997 18.9342 39.5503 19.1025 39.3209 19.4467C39.09 19.7946 38.9731 20.2923 38.9731 20.9233C38.9731 21.555 39.09 22.0542 39.3217 22.4058C39.5503 22.7537 39.8997 22.9243 40.3892 22.9243C40.878 22.9243 41.2288 22.7537 41.4612 22.4058ZM51.8179 22.6896C51.8179 22.6896 51.9229 22.6494 51.9589 22.7552H51.9596L52.2295 23.4942C52.2647 23.5866 52.1845 23.6238 52.1845 23.6238C51.7685 23.7862 51.1897 23.8995 50.6252 23.8995C49.6709 23.8995 48.9385 23.6276 48.4512 23.0889C47.9646 22.5548 47.7187 21.824 47.7187 20.9195C47.7152 20.5209 47.7759 20.1243 47.8987 19.7447C48.0102 19.3962 48.192 19.074 48.4332 18.7978C48.6708 18.5311 48.9684 18.3166 49.3208 18.1623C49.6739 18.0066 50.0854 17.9284 50.548 17.9284C50.8243 17.9264 51.1005 17.9446 51.3741 17.9828C51.624 18.0226 51.8698 18.0842 52.1088 18.1668C52.1351 18.1773 52.207 18.2115 52.1778 18.2957C52.1001 18.5139 52.041 18.6746 51.9751 18.8537C51.9533 18.9131 51.9307 18.9745 51.9064 19.0407C51.8659 19.1524 51.779 19.1152 51.779 19.1152C51.4154 19.0027 51.069 18.9505 50.6147 18.9505C50.0705 18.9505 49.6611 19.1308 49.3928 19.4832C49.1221 19.8378 48.9722 20.3019 48.9707 20.9188C48.9684 21.5975 49.1394 22.0989 49.443 22.4095C49.7466 22.7194 50.1709 22.8766 50.7032 22.8766C50.9049 22.8779 51.1065 22.8635 51.3059 22.8334C51.4881 22.8058 51.6583 22.75 51.8179 22.6896ZM57.1166 18.6823C57.3367 18.9327 57.4993 19.2276 57.5934 19.5465H57.5927C57.8174 20.3253 57.7231 21.0054 57.7071 21.1202C57.7061 21.128 57.7053 21.1331 57.7051 21.1356C57.6939 21.2309 57.5964 21.2324 57.5964 21.2324L53.8683 21.2295C53.8915 21.7897 54.028 22.1868 54.3031 22.4564C54.5715 22.7209 54.9995 22.89 55.5783 22.8908C56.385 22.8921 56.7702 22.7461 57.0348 22.6457C57.0604 22.636 57.0848 22.6268 57.1084 22.6181C57.1084 22.6181 57.2111 22.5816 57.2478 22.6814L57.493 23.3579C57.5409 23.4719 57.5027 23.5113 57.4607 23.5344C57.2276 23.6626 56.6601 23.9002 55.5835 23.9032C55.061 23.9054 54.6052 23.8302 54.2296 23.6872C53.8739 23.5562 53.5533 23.3456 53.2925 23.0718C53.0474 22.8088 52.866 22.4937 52.7528 22.1331C52.6403 21.7778 52.5834 21.3807 52.5834 20.9546C52.5804 20.5564 52.6355 20.1599 52.7468 19.7775C52.8477 19.4272 53.0196 19.1012 53.2521 18.8194C53.4858 18.5424 53.7788 18.3208 54.1097 18.1705C54.453 18.0119 54.8759 17.9336 55.3406 17.9336C55.7076 17.9329 56.071 18.0059 56.4089 18.1482C56.6413 18.2473 56.8767 18.4261 57.1166 18.6823ZM54.1877 19.4475C54.0362 19.6747 53.9388 19.9667 53.8863 20.3176L56.5446 20.3191C56.5184 19.9786 56.4517 19.6754 56.2972 19.4475C56.0648 19.1018 55.7425 18.9111 55.2522 18.9111C54.7634 18.9111 54.4156 19.1018 54.1877 19.4475ZM27.2617 18.6823C27.4815 18.9327 27.644 19.2276 27.7378 19.5465C27.9617 20.3252 27.8674 21.0052 27.8515 21.1202C27.8504 21.1279 27.8497 21.1331 27.8495 21.1356C27.839 21.2309 27.7408 21.2324 27.7408 21.2324L24.0134 21.2295C24.0359 21.7897 24.1723 22.1868 24.4482 22.4564C24.7158 22.7209 25.1454 22.89 25.7226 22.8908C26.5309 22.8921 26.9162 22.7457 27.1802 22.6454C27.2054 22.6358 27.2295 22.6267 27.2527 22.6181C27.2527 22.6181 27.3554 22.5816 27.3929 22.6814L27.638 23.3579C27.686 23.4719 27.647 23.5113 27.6058 23.5344C27.3719 23.6626 26.8052 23.9002 25.7286 23.9032C25.2054 23.9054 24.7496 23.8302 24.3747 23.6872C24.0188 23.5563 23.6979 23.3457 23.4369 23.0718C23.1925 22.8088 23.0111 22.4937 22.8971 22.1331C22.7847 21.7778 22.7285 21.3807 22.7285 20.9546C22.7255 20.5564 22.7805 20.1599 22.8919 19.7775C22.9925 19.4273 23.1642 19.1012 23.3964 18.8194C23.6303 18.5423 23.9236 18.3206 24.2548 18.1705C24.5981 18.0119 25.0202 17.9336 25.4865 17.9336C25.853 17.9332 26.2158 18.0062 26.5533 18.1482C26.7872 18.2473 27.0218 18.4261 27.2617 18.6823ZM24.3312 19.4475C24.1806 19.6747 24.0831 19.9667 24.0306 20.3176L26.6897 20.3191C26.6635 19.9786 26.596 19.6754 26.4431 19.4475C26.2107 19.1018 25.8868 18.9111 25.3973 18.9111C24.9085 18.9111 24.5606 19.1018 24.3312 19.4475ZM16.875 20.1246C17.0688 20.1233 17.2626 20.1287 17.456 20.141C17.456 20.141 17.7506 20.1679 18.0707 20.2133V20.0568C18.0707 19.5644 17.9673 19.3327 17.7649 19.177C17.555 19.0206 17.2454 18.9386 16.8428 18.9386C16.8428 18.9386 15.9349 18.9275 15.219 19.3134C15.186 19.3327 15.1575 19.3439 15.1575 19.3439C15.1575 19.3439 15.0676 19.3744 15.0346 19.2843L14.7707 18.5818C14.731 18.4805 14.8044 18.4358 14.8044 18.4358C15.1395 18.175 15.9529 18.0186 15.9529 18.0186C16.2236 17.9649 16.6726 17.9277 16.9522 17.9277C17.6974 17.9277 18.2739 18.099 18.6645 18.4373C19.0573 18.7785 19.2567 19.3268 19.2567 20.0688L19.259 23.4436C19.259 23.4436 19.2665 23.5404 19.1735 23.5642C19.087 23.5877 19 23.6095 18.9126 23.6298C18.6011 23.6967 18.2882 23.7568 17.974 23.8101C17.6045 23.8719 17.2244 23.904 16.842 23.904C16.4784 23.904 16.1463 23.8704 15.854 23.8034C15.5812 23.7474 15.3228 23.6366 15.0946 23.4778C14.8861 23.3281 14.7227 23.1336 14.6088 22.9005C14.4948 22.668 14.4378 22.3842 14.4378 22.0564C14.4319 21.7612 14.5005 21.4692 14.6373 21.2071C14.768 20.9653 14.9533 20.7567 15.1785 20.5977C15.4142 20.4339 15.6775 20.3133 15.9559 20.2416C16.246 20.1641 16.5549 20.1246 16.875 20.1246ZM15.7588 22.516C15.8067 22.5905 15.8262 22.6196 15.9732 22.7343C15.9702 22.7336 16.3083 22.9958 17.0654 22.9496C17.5985 22.9183 18.0722 22.8178 18.0722 22.8178V21.1401C18.0722 21.1401 17.594 21.0611 17.0602 21.0551C16.3008 21.0447 15.9769 21.3218 15.9784 21.3218C15.755 21.4775 15.6463 21.7115 15.6463 22.0355C15.6463 22.2419 15.6838 22.4028 15.7588 22.516ZM47.5313 18.2001C47.5312 18.2135 47.5284 18.2268 47.5231 18.2391V18.2398C47.4893 18.3397 47.3072 18.8455 47.2435 19.0146C47.2187 19.0779 47.179 19.1219 47.1063 19.1144C47.1063 19.1144 46.8926 19.0638 46.6969 19.0638C46.5627 19.0638 46.3708 19.0817 46.1984 19.1338C46.0245 19.1872 45.8661 19.2815 45.7366 19.4087C45.6009 19.5391 45.4915 19.7216 45.4105 19.9511C45.3288 20.182 45.2868 20.55 45.2868 20.9195V23.67C45.2868 23.6997 45.275 23.7281 45.2539 23.749C45.2328 23.77 45.2042 23.7818 45.1744 23.7818H44.1953C44.1316 23.7818 44.0813 23.7326 44.0813 23.67V18.1646C44.0813 18.1028 44.1263 18.0528 44.1885 18.0528H45.1444C45.2066 18.0528 45.2516 18.1028 45.2516 18.1646V18.6146C45.394 18.4246 45.6496 18.257 45.8813 18.1542C46.1137 18.0499 46.3738 17.9724 46.8431 18.0007C47.0541 18.0165 47.2632 18.052 47.4676 18.1065C47.4802 18.1114 47.4916 18.1187 47.5012 18.1281C47.5108 18.1375 47.5185 18.1487 47.5237 18.1611C47.5288 18.1735 47.5315 18.1867 47.5313 18.2001Z" fill="white"/>
</g>
<defs>
<clipPath id="clip0_464_12071">
<rect width="64.3158" height="44.5732" fill="white"/>
</clipPath>
</defs>
</svg>
