<svg width="24" height="24" viewBox="0 0 24 24" fill="none" xmlns="http://www.w3.org/2000/svg">
<path fill-rule="evenodd" clip-rule="evenodd" d="M18.6286 10H16.5714V7.25714C16.5714 3.94629 15.0457 2 12 2C8.95314 2 7.42857 3.94629 7.42857 7.25714V10H5.14286C4.51086 10 4 10.7383 4 11.3703V20.2857C4 20.9131 4.48914 21.5874 5.08686 21.7794L6.45486 22.2217C7.05371 22.4126 8.05714 22.5714 8.68571 22.5714H15.3143C15.9417 22.5714 16.9463 22.4126 17.544 22.2206L18.9109 21.7783C19.5097 21.5874 20 20.9131 20 20.2857V11.3703C20 10.7383 19.2594 10 18.6286 10V10ZM14.2857 9.99993H9.71429V6.79879C9.71429 5.14736 10.6251 4.28564 12 4.28564C13.3749 4.28564 14.2857 5.14736 14.2857 6.79879V9.99993V9.99993Z" fill="#374050"/>
</svg>
