<svg width="65" height="12" viewBox="0 0 65 12" fill="none" xmlns="http://www.w3.org/2000/svg">
<g clip-path="url(#clip0_464_12103)">
<path d="M22.921 11.392C20.6034 11.392 18.4521 10.697 17.0161 9.40808C15.9312 8.43431 15.4099 7.11161 15.4099 5.75025C15.4099 4.40546 15.9537 3.07365 17.016 2.10501C18.3496 0.889583 20.7041 0.128418 22.921 0.128418C25.3742 0.128418 27.3376 0.746343 28.8386 2.10835C29.9066 3.0775 30.4229 4.4034 30.4229 5.75038C30.4229 7.05599 29.875 8.44638 28.8386 9.40808C27.4409 10.7053 25.2444 11.392 22.921 11.392V9.9064C24.151 9.9064 25.2921 9.48169 26.0889 8.6888C26.8803 7.9013 27.249 6.9333 27.249 5.75025C27.249 4.61692 26.8513 3.55732 26.0889 2.80579C25.3027 2.0314 24.1344 1.59564 22.921 1.59564C21.7037 1.59564 20.5347 2.0269 19.7478 2.80579C18.9896 3.55707 18.5909 4.61974 18.5909 5.75025C18.5909 6.87729 18.9942 7.93932 19.7478 8.68893C20.5353 9.47232 21.7003 9.90653 22.921 9.90653V11.3921V11.392ZM5.98211 0.133814C4.7424 0.133814 3.33402 0.365696 2.13735 0.900118C1.03293 1.39292 0.128907 2.18992 0.128907 3.5112C0.128393 4.70119 0.884676 5.39812 0.864121 5.37885C1.1858 5.67497 1.70365 6.1792 3.05756 6.47532C3.66264 6.60764 4.9563 6.81087 6.24456 6.9455C7.52332 7.08039 8.78178 7.2086 9.29436 7.33836C9.7016 7.44203 10.3857 7.58321 10.3857 8.35067C10.3857 9.11505 9.66499 9.34835 9.53973 9.39896C9.41461 9.44842 8.55003 9.84513 6.99584 9.84513C5.84837 9.84513 4.4689 9.50006 3.96608 9.32021C3.38644 9.11389 2.7784 8.84103 2.21122 8.14821C2.07017 7.97645 1.84766 7.50408 1.84766 7.03633H0.441081V10.9777H2.00452V10.4452C2.00452 10.3846 2.08032 10.1352 2.34277 10.2538C2.66934 10.4022 3.62795 10.7838 4.63025 10.9931C5.45205 11.165 5.98198 11.2882 7.00367 11.2882C8.67066 11.2882 9.5662 11.0166 10.1853 10.8398C10.7685 10.6728 11.4892 10.373 12.0746 9.90615C12.3917 9.65371 13.087 9.00662 13.087 7.83205C13.087 6.70463 12.4819 6.00487 12.269 5.792C11.9791 5.50192 11.6249 5.27711 11.2558 5.10381C10.9342 4.95247 10.4268 4.77069 10.0116 4.66907C9.20572 4.47124 7.38355 4.22715 6.51216 4.13594C5.59838 4.04049 4.01323 3.90919 3.38014 3.71328C3.18821 3.6538 2.7969 3.4674 2.7969 3.01314C2.7969 2.69004 2.97586 2.41615 3.32953 2.1948C3.89092 1.84306 5.0249 1.62441 6.20692 1.62441C7.60438 1.61927 8.78782 1.93877 9.54063 2.27535C9.79667 2.38969 10.0963 2.55387 10.3342 2.74811C10.6027 2.96702 10.9796 3.42192 11.1159 4.05642H12.3787V0.625584H10.9687V1.02434C10.9687 1.15307 10.8357 1.32033 10.5843 1.1821C9.95327 0.851043 8.16912 0.136768 5.98185 0.133814H5.98211ZM36.8827 0.757263L43.7611 6.96477L43.6904 2.78537C43.6835 2.23733 43.5825 2.00853 42.9898 2.00853H41.6965V0.75829H47.5777V2.00853H46.3161C45.7116 2.00853 45.6734 2.20187 45.6661 2.78537L45.7727 10.7712H43.7586L35.8361 3.70043L35.8378 8.7186C35.8447 9.26407 35.8703 9.521 36.4323 9.521H37.8448V10.7707H32.0689V9.52113H33.4191C33.9235 9.52113 33.9034 9.04028 33.9034 8.69021V2.8329C33.9034 2.45482 33.8504 2.00943 33.0585 2.00943H31.9629V0.757263H36.8827ZM54.2982 9.51869C54.3534 9.51869 54.5988 9.51163 54.6463 9.49711C54.7821 9.45472 54.8742 9.35785 54.9169 9.25688C54.9348 9.21448 54.9438 9.02692 54.9438 8.9862L54.9449 7.01038C54.9449 6.96285 54.9414 6.94229 54.8607 6.83644C54.7721 6.72082 51.2579 2.73835 51.097 2.56299C50.8973 2.34524 50.5466 2.00866 50.0137 2.00866H48.7916V0.757905H55.6886V2.00712H54.8571C54.6648 2.00712 54.537 2.18954 54.7013 2.39226C54.7013 2.39226 57.0218 5.16804 57.0438 5.19707C57.0653 5.22662 57.0838 5.23369 57.1134 5.20671C57.1424 5.17909 59.4921 2.41769 59.5106 2.39586C59.6223 2.26199 59.5465 2.00853 59.3057 2.00853H58.4528V0.757905H64.1053V2.00853H62.8425C62.3844 2.00853 62.198 2.09332 61.8533 2.48296C61.6957 2.66127 58.1439 6.71529 58.0473 6.82513C57.9967 6.88256 58.0011 6.96259 58.0011 7.01012V8.98568C58.0011 9.02577 58.0101 9.21358 58.0281 9.25572C58.0708 9.35721 58.1635 9.45407 58.2991 9.49595C58.3467 9.5106 58.5887 9.51779 58.6438 9.51779H59.9355V10.7683H53.0741V9.51766L54.2984 9.51869H54.2982Z" fill="black"/>
</g>
<defs>
<clipPath id="clip0_464_12103">
<rect width="64.2333" height="11.5205" fill="white"/>
</clipPath>
</defs>
</svg>
