<svg width="21" height="21" viewBox="0 0 21 21" fill="none" xmlns="http://www.w3.org/2000/svg">
<path d="M13.1655 1.95435L13.8454 7.29502C13.986 8.39964 14.8226 9.28461 15.9118 9.48081L20.1317 10.241L15.9118 11.0012C14.8226 11.1974 13.986 12.0824 13.8454 13.187L13.1655 18.5277L12.4856 13.187C12.3449 12.0824 11.5083 11.1974 10.4192 11.0012L6.19922 10.241L10.4192 9.48081C11.5083 9.28461 12.3449 8.39964 12.4856 7.29502L13.1655 1.95435Z" fill="#A409B8"/>
<path d="M4.29929 3.22925L4.59761 5.57246C4.66792 6.12477 5.08623 6.56725 5.63079 6.66535L7.46578 6.99591L5.63079 7.32648C5.08623 7.42457 4.66792 7.86706 4.59761 8.41937L4.29929 10.7626L4.00098 8.41937C3.93067 7.86706 3.51236 7.42457 2.9678 7.32648L1.13281 6.99591L2.9678 6.66535C3.51236 6.56725 3.93067 6.12477 4.00098 5.57246L4.29929 3.22925Z" fill="#A409B8"/>
<path d="M5.56492 12.1531L5.86323 14.4963C5.93355 15.0486 6.35185 15.4911 6.89641 15.5892L8.7314 15.9197L6.89641 16.2503C6.35185 16.3484 5.93355 16.7909 5.86323 17.3432L5.56492 19.6864L5.26661 17.3432C5.19629 16.7909 4.77799 16.3484 4.23343 16.2503L2.39844 15.9197L4.23343 15.5892C4.77799 15.4911 5.19629 15.0486 5.26661 14.4963L5.56492 12.1531Z" fill="#A409B8"/>
</svg>
