<svg width="85" height="15" viewBox="0 0 85 15" fill="none" xmlns="http://www.w3.org/2000/svg">
<g clip-path="url(#clip0_464_15967)">
<path fill-rule="evenodd" clip-rule="evenodd" d="M28.1796 3.26627C28.1796 4.27771 29.4695 4.55794 30.7258 4.82352C32.4521 5.18912 34.7888 5.69096 34.7906 8.33295C34.7906 10.449 33.1152 11.6622 30.1938 11.6622C28.6217 11.6532 27.078 11.2418 25.71 10.4671L25.6712 10.4438C25.6594 10.4364 25.6508 10.4248 25.6473 10.4114C25.6437 10.3979 25.6455 10.3836 25.6523 10.3713L26.5887 8.70804C26.5922 8.70178 26.5969 8.69629 26.6025 8.69189C26.6082 8.6875 26.6147 8.68428 26.6216 8.68243C26.6285 8.68058 26.6357 8.68013 26.6428 8.68113C26.6499 8.68212 26.6567 8.68453 26.6628 8.6882L26.7008 8.71062C27.9114 9.39526 29.0522 9.7281 30.1895 9.7281C31.2656 9.7281 32.528 9.4858 32.528 8.34847C32.528 7.29564 31.2553 7.02661 29.9412 6.755C27.8545 6.32387 25.9213 5.6056 25.9213 3.29731C25.9213 1.2934 27.6458 0 30.3137 0C31.6881 0 32.9652 0.286273 34.3301 0.905381L34.4267 0.953668C34.4333 0.956921 34.4391 0.961497 34.4439 0.96711C34.4486 0.972724 34.4521 0.979254 34.4542 0.986293C34.4563 0.993332 34.457 1.00073 34.4561 1.00802C34.4552 1.01532 34.4528 1.02235 34.4491 1.02868L33.5446 2.62905C33.538 2.64121 33.527 2.65034 33.5138 2.65452C33.5006 2.6587 33.4863 2.65761 33.4739 2.65147L33.3834 2.6075C32.4369 2.15878 31.4034 1.9233 30.3559 1.91768C29.3531 1.91768 28.1796 2.15136 28.1796 3.26627ZM41.5739 9.53692C41.5787 9.54239 41.5824 9.54879 41.5847 9.55572L42.0676 11.0371C42.0718 11.0498 42.0711 11.0637 42.0657 11.0759C42.0602 11.0882 42.0505 11.098 42.0383 11.1035L41.9115 11.1578C41.2433 11.4337 40.6017 11.6622 39.5041 11.6622C37.6149 11.6622 36.4861 10.6551 36.4861 8.96766V4.76497H34.8151C34.8079 4.76508 34.8008 4.76376 34.7941 4.76107C34.7875 4.75838 34.7815 4.75438 34.7764 4.74932C34.7713 4.74425 34.7673 4.73821 34.7646 4.73157C34.762 4.72493 34.7606 4.71781 34.7607 4.71065V3.09389C34.7606 3.0868 34.7619 3.07976 34.7646 3.07317C34.7672 3.06658 34.7711 3.06059 34.7761 3.05553C34.7811 3.05048 34.787 3.04646 34.7935 3.04372C34.8001 3.04098 34.8071 3.03957 34.8142 3.03957H36.4853V0.939088C36.4852 0.931996 36.4865 0.924951 36.4891 0.918365C36.4917 0.911779 36.4957 0.905783 36.5006 0.900727C36.5056 0.895671 36.5115 0.891656 36.5181 0.888916C36.5246 0.886176 36.5317 0.884765 36.5387 0.884766H38.5858C38.5999 0.884766 38.6135 0.890398 38.6236 0.900424C38.6336 0.91045 38.6392 0.924048 38.6392 0.938226V3.04043H41.433C41.4472 3.04043 41.4607 3.04607 41.4708 3.05609C41.4808 3.06612 41.4864 3.07972 41.4864 3.09389V4.7072C41.4864 4.71429 41.485 4.72131 41.4823 4.72786C41.4795 4.7344 41.4755 4.74033 41.4705 4.74531C41.4654 4.75028 41.4594 4.7542 41.4528 4.75684C41.4462 4.75947 41.4392 4.76077 41.4321 4.76066H38.6358V8.74864C38.6358 9.4031 39.1454 9.82648 39.9292 9.82648C40.6043 9.82648 40.9268 9.74887 41.395 9.5678L41.514 9.5221C41.5209 9.51952 41.5282 9.51834 41.5355 9.51865C41.5428 9.51895 41.5499 9.52072 41.5565 9.52386C41.5631 9.527 41.569 9.53144 41.5739 9.53692ZM18.4172 0.237061H2.63768C1.1425 0.237061 0 1.45199 0 2.94975V11.3888C0 11.4041 0.00608666 11.4188 0.016921 11.4296C0.0277553 11.4404 0.0424498 11.4465 0.0577719 11.4465H2.0979C2.11322 11.4465 2.12791 11.4404 2.13875 11.4296C2.14958 11.4188 2.15567 11.4041 2.15567 11.3888V2.82386H18.9V11.3888C18.9 11.4041 18.9061 11.4188 18.917 11.4296C18.9278 11.4404 18.9425 11.4465 18.9578 11.4465H21.0005C21.0158 11.4465 21.0305 11.4404 21.0414 11.4296C21.0522 11.4188 21.0583 11.4041 21.0583 11.3888V2.94975C21.0583 1.45199 19.9184 0.237061 18.4172 0.237061ZM50.8227 9.87293H51.1469C51.1544 9.87207 51.162 9.87282 51.1692 9.87512C51.1764 9.87743 51.183 9.88123 51.1887 9.88628C51.1943 9.89133 51.1988 9.89752 51.2018 9.90443C51.2049 9.91135 51.2064 9.91883 51.2064 9.92639V11.5509C51.2064 11.558 51.205 11.565 51.2022 11.5716C51.1995 11.5781 51.1955 11.584 51.1904 11.589C51.1854 11.594 51.1794 11.5979 51.1728 11.6005C51.1662 11.6032 51.1591 11.6045 51.1521 11.6044H50.5485C49.0714 11.6044 48.5299 10.9318 48.3385 10.5308C47.4734 11.2764 46.3651 11.6792 45.2231 11.663C43.5831 11.663 42.438 10.655 42.438 9.21329C42.438 8.48726 42.8113 6.69547 45.3697 6.48939C47.928 6.28331 48.0548 6.27382 48.0548 6.27382V5.80906C48.0548 4.71916 47.246 4.57171 46.4493 4.57171C45.7474 4.57171 44.742 4.81573 43.615 5.26152C43.6081 5.2641 43.6009 5.26528 43.5935 5.26497C43.5862 5.26467 43.5791 5.26289 43.5725 5.25975C43.5659 5.25661 43.56 5.25217 43.5551 5.2467C43.5503 5.24122 43.5466 5.23483 43.5443 5.22789L43.033 3.66547C43.0288 3.65285 43.0296 3.63916 43.035 3.62705C43.0404 3.61493 43.0501 3.60527 43.0623 3.59993C44.2249 3.0682 45.4917 2.80306 46.77 2.82389C49.0878 2.82389 50.2087 3.83275 50.2087 5.90219V9.24088C50.2087 9.65391 50.4217 9.87293 50.8227 9.87293ZM45.7387 10.0333C46.4311 10.0333 47.1054 9.75652 48.0539 9.08481L48.0522 7.68622C48.0522 7.68622 46.6062 7.86902 45.5827 8.00008C44.5592 8.13115 44.5316 8.87097 44.5316 9.10637C44.5316 9.66081 45.0179 10.0333 45.7387 10.0333ZM78.8667 6.35221C77.487 6.10991 76.8058 5.98229 76.8058 5.33301C76.8058 4.94757 76.9886 4.43797 78.4803 4.43797C79.3999 4.43843 80.3045 4.67095 81.1103 5.11399L81.168 5.14417C81.1804 5.15049 81.1946 5.15187 81.2079 5.14802C81.2212 5.14418 81.2326 5.1354 81.2396 5.12347L82.0398 3.7335C82.0435 3.72711 82.0458 3.72003 82.0466 3.7127C82.0475 3.70537 82.0468 3.69794 82.0446 3.6909C82.0424 3.68385 82.0388 3.67733 82.0339 3.67175C82.0291 3.66618 82.0232 3.66166 82.0165 3.65848L81.9493 3.62572C80.9835 3.18165 80.0574 2.81519 78.4916 2.81519C76.097 2.81519 74.7778 3.73954 74.7778 5.41751C74.7778 7.32657 76.5523 7.78184 78.2148 8.05777C79.6858 8.30179 80.2773 8.50874 80.2773 9.15802C80.2773 9.74954 79.7074 10.0367 78.4898 10.0367C77.3689 10.0367 76.2281 9.5607 75.4641 9.16061L75.4159 9.13733C75.4034 9.13141 75.3892 9.13043 75.3761 9.13459C75.363 9.13875 75.3519 9.14775 75.3451 9.15975L74.551 10.5635C74.5475 10.5697 74.5452 10.5766 74.5443 10.5837C74.5435 10.5908 74.544 10.598 74.5459 10.6049C74.5479 10.6118 74.5511 10.6182 74.5555 10.6239C74.56 10.6295 74.5655 10.6342 74.5717 10.6377L74.6191 10.6635C75.8694 11.3111 77.2059 11.6534 78.4898 11.6534C80.9965 11.6534 82.2674 10.7679 82.2674 9.02006C82.2683 7.11531 80.586 6.654 78.8667 6.35221ZM54.2841 3.83628C55.0748 3.1456 55.8974 2.82397 56.8709 2.82397C59.0464 2.82397 60.7511 4.76494 60.7494 7.24396C60.7494 9.84628 59.1559 11.6631 56.8692 11.6631C55.9776 11.6631 55.0351 11.3044 54.2824 10.6784V14.9466C54.2824 14.9537 54.281 14.9607 54.2782 14.9672C54.2755 14.9738 54.2715 14.9797 54.2664 14.9847C54.2614 14.9897 54.2554 14.9936 54.2488 14.9962C54.2422 14.9989 54.2351 15.0002 54.2281 15H52.1827C52.1756 15.0002 52.1685 14.9988 52.1618 14.9962C52.1552 14.9935 52.1491 14.9895 52.1441 14.9844C52.139 14.9793 52.135 14.9733 52.1323 14.9667L52.1307 14.9619L52.1294 14.9567C52.1287 14.9531 52.1284 14.9494 52.1284 14.9457V3.09473C52.1283 3.08763 52.1296 3.08059 52.1322 3.074C52.1349 3.06742 52.1388 3.06142 52.1438 3.05637C52.1488 3.05131 52.1547 3.04729 52.1612 3.04455C52.1678 3.04181 52.1748 3.0404 52.1819 3.0404H54.2306C54.2448 3.0404 54.2584 3.04604 54.2684 3.05606C54.2785 3.06609 54.2841 3.07969 54.2841 3.09386V3.83628ZM54.2815 8.68653C54.9524 9.47723 55.5835 9.8299 56.332 9.8299C57.6857 9.8299 58.5954 8.79 58.5954 7.24309C58.5954 5.67204 57.7073 4.65629 56.332 4.65629C55.6068 4.65629 54.9713 4.98568 54.2815 5.72637V8.68653ZM64.0164 0.237061H61.9694C61.9394 0.237061 61.915 0.261382 61.915 0.291383V11.3922C61.915 11.4222 61.9394 11.4465 61.9694 11.4465H64.0164C64.0464 11.4465 64.0707 11.4222 64.0707 11.3922V0.291383C64.0707 0.261382 64.0464 0.237061 64.0164 0.237061ZM72.8293 9.14705C72.8428 9.1509 72.8543 9.15984 72.8614 9.17199L73.6598 10.5559C73.6667 10.5679 73.6688 10.5821 73.6656 10.5956C73.6624 10.609 73.6541 10.6207 73.6426 10.6284L73.6064 10.6516C72.4813 11.3301 71.189 11.6804 69.8753 11.6631C67.1075 11.6631 65.2476 9.91267 65.2476 7.30776C65.2476 4.6675 66.9678 2.82397 69.4296 2.82397C71.9991 2.82397 73.5952 4.47867 73.5952 7.15169V7.7389C73.5952 7.74379 73.5945 7.74865 73.5932 7.75334L73.5923 7.75624L73.591 7.75956C73.5883 7.7661 73.5843 7.77203 73.5792 7.77701C73.5742 7.78198 73.5682 7.7859 73.5616 7.78854C73.555 7.79117 73.5479 7.79247 73.5408 7.79236H67.4679C67.6628 9.12801 68.6363 9.92561 70.0702 9.92561C71.3248 9.92561 71.9557 9.59238 72.6131 9.24515L72.7191 9.18923L72.7889 9.15129C72.8013 9.14471 72.8158 9.14319 72.8293 9.14705ZM71.4447 6.25666C71.2601 5.15296 70.5703 4.57007 69.4494 4.57007C68.3681 4.57007 67.6679 5.16762 67.4782 6.25666H71.4447ZM84.5987 10.418H84.5125C84.5086 10.418 84.5048 10.419 84.5015 10.421C84.4981 10.4229 84.4954 10.4258 84.4935 10.4292L84.071 11.1587L83.6761 10.4335C83.6741 10.43 83.6712 10.4271 83.6677 10.4252C83.6662 10.4243 83.6645 10.4236 83.6628 10.4231C83.6607 10.4225 83.6585 10.4222 83.6563 10.4223H83.5537C83.5477 10.4223 83.542 10.4246 83.5378 10.4288C83.5336 10.4331 83.5312 10.4388 83.5312 10.4447V11.4303C83.5312 11.4362 83.5336 11.4419 83.5378 11.4461C83.542 11.4503 83.5477 11.4527 83.5537 11.4527H83.6796C83.6855 11.4527 83.6912 11.4503 83.6954 11.4461C83.6996 11.4419 83.702 11.4362 83.702 11.4303V10.8086L84.0305 11.4035C84.0324 11.4069 84.0352 11.4097 84.0385 11.4116C84.0418 11.4136 84.0456 11.4147 84.0495 11.4148H84.0814C84.0852 11.4147 84.089 11.4136 84.0923 11.4116C84.0957 11.4097 84.0984 11.4069 84.1003 11.4035L84.4453 10.8069V11.4294C84.4453 11.4354 84.4476 11.4411 84.4518 11.4453C84.456 11.4495 84.4617 11.4518 84.4677 11.4518H84.5953C84.6012 11.4518 84.6069 11.4495 84.6111 11.4453C84.6142 11.4422 84.6163 11.4383 84.6172 11.434C84.6174 11.4333 84.6175 11.4325 84.6176 11.4316C84.6177 11.4309 84.6177 11.4302 84.6177 11.4294V10.4404C84.6178 10.435 84.6159 10.4298 84.6124 10.4256C84.6089 10.4215 84.6041 10.4188 84.5987 10.418ZM82.5932 10.4178H83.3512C83.3542 10.4176 83.3573 10.418 83.3603 10.419C83.3632 10.42 83.3659 10.4216 83.3681 10.4237C83.3699 10.4254 83.3714 10.4273 83.3726 10.4294C83.3729 10.43 83.3732 10.4306 83.3734 10.4312C83.3747 10.4341 83.3753 10.4371 83.3753 10.4402V10.5506C83.3753 10.5565 83.3729 10.5622 83.3687 10.5664C83.3645 10.5706 83.3588 10.573 83.3529 10.573H83.0588V11.4258C83.0588 11.4317 83.0565 11.4374 83.0523 11.4416C83.0481 11.4458 83.0424 11.4482 83.0364 11.4482H82.908C82.902 11.4482 82.8963 11.4458 82.8921 11.4416C82.8899 11.4394 82.8882 11.4368 82.8871 11.434C82.8861 11.4314 82.8855 11.4286 82.8855 11.4258V10.573H82.5932C82.5873 10.573 82.5816 10.5706 82.5774 10.5664C82.5732 10.5622 82.5708 10.5565 82.5708 10.5506V10.4402C82.5708 10.4343 82.5732 10.4286 82.5774 10.4244C82.5816 10.4202 82.5873 10.4178 82.5932 10.4178Z" fill="#CB2026"/>
</g>
<defs>
<clipPath id="clip0_464_15967">
<rect width="84.6203" height="15" fill="white"/>
</clipPath>
</defs>
</svg>
