<svg width="24" height="24" viewBox="0 0 24 24" fill="none" xmlns="http://www.w3.org/2000/svg">
<path fill-rule="evenodd" clip-rule="evenodd" d="M6.13795 14.3458C6.57875 16.1308 7.13924 16.9117 9.00882 17.7297C10.8793 18.5467 11.7676 19.4397 12.501 19.4397C13.2335 19.4397 14.0666 18.6588 15.9362 17.8399C17.8067 17.0219 17.307 16.773 17.7478 14.988L12.501 17.5397L6.13795 14.3458ZM21.5362 9.6889L13.6276 5.26006C13.0082 4.91331 11.9935 4.91331 11.3741 5.26006L3.46454 9.6889C2.84515 10.0356 2.84515 10.6037 3.46454 10.9505L11.3732 15.3793C11.9926 15.7261 13.0072 15.7261 13.6266 15.3793L18.7394 12.5161L13.1953 11.2174C12.9816 11.2697 12.7469 11.2991 12.5008 11.2991C11.5014 11.2991 10.6921 10.8184 10.6921 10.2247C10.6921 9.62906 11.5024 9.14836 12.5008 9.14836C13.2761 9.14836 13.9354 9.44001 14.1919 9.84565L20.0647 11.7732L21.5362 10.9495C22.1547 10.6037 22.1547 10.0356 21.5362 9.6889ZM19.1197 18.0809C19.058 18.4467 20.3386 19.048 20.4601 17.9793C21.0102 13.1609 20.065 11.7749 20.065 11.7749L18.7394 12.5161C18.7394 12.5151 19.8636 13.5856 19.1197 18.0809Z" fill="#374050"/>
</svg>
