<svg width="24" height="24" viewBox="0 0 24 24" fill="none" xmlns="http://www.w3.org/2000/svg">
<path fill-rule="evenodd" clip-rule="evenodd" d="M17.6807 5.51885C14.3222 2.16038 8.87733 2.16038 5.51975 5.51885C2.16038 8.87822 2.16038 14.3231 5.51796 17.6807C8.87733 21.04 14.3222 21.04 17.6816 17.6807C21.0391 14.3222 21.0391 8.87733 17.6807 5.51885V5.51885ZM8.68643 14.5132C7.07662 12.9034 7.07662 10.2947 8.68643 8.68578C10.2944 7.07686 12.9049 7.07686 14.5147 8.68578C16.1245 10.2956 16.1227 12.9042 14.5147 14.5132C12.9049 16.123 10.2962 16.123 8.68643 14.5132V14.5132ZM16.3897 14.1788C17.2569 12.5672 17.2578 10.6322 16.3897 9.01973L17.987 8.15973C19.1417 10.3017 19.1417 12.8987 17.9888 15.0379L16.3897 14.1788V14.1788ZM15.0388 5.21172L14.1779 6.80989C12.5663 5.94362 10.6313 5.94362 9.02146 6.80989L8.16056 5.21262C10.3016 4.05879 12.8968 4.05879 15.0388 5.21172V5.21172ZM5.21232 8.15973L6.81048 9.02063C5.94331 10.6313 5.94331 12.5654 6.80958 14.177L5.21142 15.0379C4.05759 12.8978 4.05848 10.3017 5.21232 8.15973V8.15973ZM8.15881 17.9862L9.0197 16.389C10.6313 17.257 12.5672 17.257 14.1788 16.389L15.0397 17.988C12.8969 19.141 10.3007 19.141 8.15881 17.9862V17.9862Z" fill="#374050"/>
</svg>
