<svg width="24" height="24" viewBox="0 0 24 24" fill="none" xmlns="http://www.w3.org/2000/svg">
<path fill-rule="evenodd" clip-rule="evenodd" d="M13.1281 6.45388L13.5996 7.90336C13.9897 7.56927 14.4824 7.27007 15.1231 7.06285C15.7469 6.85986 16.2977 6.74568 16.7957 6.68013L16.341 5.2814C15.8378 5.35435 15.2827 5.4717 14.6706 5.67047C14.0595 5.86923 13.5552 6.14623 13.1281 6.45388ZM14.1082 9.47233L14.5797 10.9218C14.9699 10.5877 15.4625 10.2885 16.1032 10.0813C16.727 9.87831 17.2778 9.76413 17.7758 9.69858L17.3212 8.29985C16.8179 8.3728 16.2629 8.49015 15.6507 8.68891C15.0396 8.88662 14.5364 9.16361 14.1082 9.47233ZM15.0895 12.4898L15.5611 13.9393C15.9512 13.6052 16.4438 13.306 17.0845 13.0988C17.7083 12.8958 18.2591 12.7816 18.7571 12.7161L18.3025 11.3174C17.7992 11.3903 17.2442 11.5077 16.632 11.7064C16.0199 11.9041 15.5166 12.1822 15.0895 12.4898ZM7.62324 14.7859L8.07785 16.1846C8.51872 15.9457 9.03149 15.7141 9.65526 15.5122C10.296 15.3039 10.87 15.2563 11.3817 15.2976L10.9102 13.8481C10.3826 13.8502 9.81279 13.9221 9.20276 14.1198C8.59061 14.3186 8.07257 14.549 7.62324 14.7859ZM5.66227 8.75027L6.11689 10.149C6.55776 9.91006 7.07052 9.67958 7.69429 9.47659C8.33498 9.26831 8.90907 9.22074 9.42077 9.26197L8.9503 7.81143C8.42273 7.81461 7.85288 7.88544 7.24179 8.0842C6.62965 8.28296 6.1116 8.51344 5.66227 8.75027ZM6.64217 11.7687L7.09678 13.1674C7.53765 12.9285 8.05041 12.697 8.67419 12.495C9.31488 12.2868 9.88896 12.2392 10.4007 12.2804L9.93019 10.8299C9.40263 10.832 8.83277 10.9039 8.22274 11.1016C7.6106 11.3004 7.09149 11.5319 6.64217 11.7687ZM13.6244 2.4511C11.8028 3.04315 10.8512 4.30339 10.3966 5.15658C9.52757 4.73368 8.01782 4.27378 6.1962 4.86584C3.52877 5.73278 2 7.64322 2 7.64322L6.32941 20.9507C6.46262 21.3599 7.01239 21.455 7.25767 21.1019C7.78523 20.3418 8.80124 19.349 10.7011 18.7316C12.5174 18.1416 13.8401 18.7887 14.5653 19.3427C14.8529 19.5626 15.2652 19.4061 15.3709 19.0593C15.6374 18.185 16.3299 16.9025 18.1303 16.3179C20.0323 15.6994 21.4385 15.9066 22.3128 16.2122C22.7198 16.3538 23.1057 15.9563 22.9736 15.5472L18.6516 2.23225C18.6516 2.23225 16.2918 1.58522 13.6244 2.4511ZM13.5047 17.0895C12.6388 16.8315 11.4949 16.711 10.1839 17.136C8.86129 17.5652 7.93514 18.1393 7.3304 18.6204L3.89965 8.06698C4.27814 7.68849 5.15459 6.96534 6.71403 6.45892C8.18254 5.9821 9.38674 6.3902 10.1807 6.85855L13.5047 17.0895ZM20.7932 14.2467C20.0204 14.2129 18.9335 14.2932 17.6109 14.7235C16.2999 15.1496 15.4457 15.9203 14.897 16.6371L11.573 6.40619C11.9388 5.56039 12.6725 4.52218 14.1421 4.04536C15.7005 3.53895 16.8349 3.60872 17.3635 3.69225L20.7932 14.2467Z" fill="#374050"/>
</svg>
