<svg width="24" height="24" viewBox="0 0 24 24" fill="none" xmlns="http://www.w3.org/2000/svg">
<path fill-rule="evenodd" clip-rule="evenodd" d="M9.55275 5H6.13819C5.50877 5 5 5.50877 5 6.13819V9.55275C5 10.181 5.50877 10.6909 6.13819 10.6909H9.55275C10.1822 10.6909 10.6909 10.181 10.6909 9.55275V6.13819C10.6909 5.50991 10.1822 5 9.55275 5V5ZM17.195 5H13.7805C13.151 5 12.6423 5.50877 12.6423 6.13819V9.55275C12.6423 10.181 13.151 10.6909 13.7805 10.6909H17.195C17.8244 10.6909 18.3332 10.181 18.3332 9.55275V6.13819C18.3332 5.50991 17.8244 5 17.195 5V5ZM9.55275 12.6422H6.13819C5.50877 12.6422 5 13.1509 5 13.7803V17.1949C5 17.8232 5.50877 18.3331 6.13819 18.3331H9.55275C10.1822 18.3331 10.6909 17.8232 10.6909 17.1949V13.7803C10.6909 13.1521 10.1822 12.6422 9.55275 12.6422V12.6422ZM17.195 12.6424H13.7805C13.151 12.6424 12.6423 13.1512 12.6423 13.7806V17.1951C12.6423 17.8234 13.151 18.3333 13.7805 18.3333H17.195C17.8244 18.3333 18.3332 17.8234 18.3332 17.1951V13.7806C18.3332 13.1523 17.8244 12.6424 17.195 12.6424V12.6424Z" fill="#374050"/>
</svg>
