<svg width="24" height="24" viewBox="0 0 24 24" fill="none" xmlns="http://www.w3.org/2000/svg">
<path fill-rule="evenodd" clip-rule="evenodd" d="M19.2697 4.7306C18.2899 3.75082 17.4185 4.03977 17.4185 4.03977L9.73751 11.7145L8.44563 15.5545L12.2839 14.2618L19.9605 6.58171C19.9605 6.58171 20.2486 5.71039 19.2697 4.7306V4.7306ZM12.5398 13.4251L12.1211 13.843L10.8114 14.2875C10.7189 14.0741 10.6034 13.8634 10.3686 13.6296C10.1339 13.3949 9.92408 13.2793 9.71069 13.1868L10.1552 11.8772L10.574 11.4593C10.574 11.4593 11.264 11.3802 11.9406 12.0577C12.6181 12.7343 12.5398 13.4251 12.5398 13.4251V13.4251ZM17.3367 18.2218H5.77822V6.66351H10.2238L12.002 4.88532H5.77822C4.8002 4.88532 4 5.68551 4 6.66351V18.2218C4 19.1998 4.8002 20 5.77822 20H17.3367C18.3147 20 19.1149 19.1998 19.1149 18.2218V11.9981L17.3367 13.7763V18.2218V18.2218Z" fill="#374050"/>
</svg>
