<svg width="24" height="24" viewBox="0 0 24 24" fill="none" xmlns="http://www.w3.org/2000/svg">
<path fill-rule="evenodd" clip-rule="evenodd" d="M12 7C6.0951 7 3 11.3488 3 12.04C3 12.7294 6.0951 17.08 12 17.08C17.904 17.08 21 12.7294 21 12.04C21 11.3488 17.904 7 12 7V7ZM11.9999 15.9163C9.79044 15.9163 7.99944 14.1811 7.99944 12.04C7.99944 9.89892 9.79044 8.16192 11.9999 8.16192C14.2094 8.16192 15.9995 9.89892 15.9995 12.04C15.9995 14.1811 14.2094 15.9163 11.9999 15.9163V15.9163ZM12.0001 12.04C11.6338 11.6377 12.5968 10.1014 12.0001 10.1014C10.8949 10.1014 9.99939 10.9699 9.99939 12.04C9.99939 13.1101 10.8949 13.9786 12.0001 13.9786C13.1044 13.9786 14.0008 13.1101 14.0008 12.04C14.0008 11.5477 12.3115 12.3811 12.0001 12.04V12.04Z" fill="#374050"/>
</svg>
