<svg width="41" height="32" viewBox="0 0 41 32" fill="none" xmlns="http://www.w3.org/2000/svg">
<g clip-path="url(#clip0_525_66)">
<path fill-rule="evenodd" clip-rule="evenodd" d="M36.2477 7.96576C36.2648 8.31247 36.2713 8.66346 36.2713 9.01017C36.2713 19.6897 28.145 32 13.2857 32C8.72064 32 4.47664 30.6624 0.900391 28.3681C1.53389 28.443 2.17594 28.4815 2.82656 28.4815C6.61469 28.4815 10.0968 27.1889 12.8598 25.0251C9.32631 24.9588 6.34075 22.626 5.31346 19.4157C5.8057 19.5078 6.31292 19.557 6.83299 19.557C7.57136 19.557 8.28618 19.4607 8.96248 19.2766C5.26637 18.5318 2.48199 15.2681 2.48199 11.3515C2.48199 11.3173 2.48199 11.2852 2.48199 11.2509C3.57134 11.8566 4.81907 12.2204 6.14171 12.2632C3.9737 10.8122 2.54619 8.34243 2.54619 5.53665C2.54619 4.05779 2.94427 2.66881 3.64197 1.47459C7.62486 6.3649 13.581 9.57946 20.2948 9.9176C20.1578 9.32477 20.0872 8.71054 20.0872 8.07491C20.0872 3.61477 23.7019 0 28.1642 0C30.4885 0 32.588 0.978063 34.0626 2.54896C35.901 2.18513 37.6303 1.51311 39.1926 0.58855C38.5891 2.47405 37.3071 4.05779 35.6399 5.05725C37.275 4.86035 38.8288 4.43018 40.2798 3.78598C39.1969 5.40824 37.8272 6.82932 36.2477 7.96576V7.96576Z" fill="#57616F"/>
</g>
<defs>
<clipPath id="clip0_525_66">
<rect width="39.3795" height="32" fill="white" transform="translate(0.900391)"/>
</clipPath>
</defs>
</svg>
