<svg width="24" height="24" viewBox="0 0 24 24" fill="none" xmlns="http://www.w3.org/2000/svg">
<path d="M3 17H21V18C21 18.5523 20.5523 19 20 19H4C3.44772 19 3 18.5523 3 18V17Z" fill="#374050"/>
<path d="M14 13C14 11.3431 12.6569 10 11 10" stroke="#374050" stroke-width="1.5"/>
<path d="M17 13C17 9.68629 14.3137 7 11 7" stroke="#374050" stroke-width="1.5"/>
<path d="M20 13C20 8.02944 15.9706 4 11 4" stroke="#374050" stroke-width="1.5"/>
<path fill-rule="evenodd" clip-rule="evenodd" d="M10 7H6C5.44772 7 5 7.44771 5 8V17C5 17.5523 5.44772 18 6 18H18C18.5523 18 19 17.5523 19 17V14.7H17V16H7V9H10V7Z" fill="#374050"/>
</svg>
